<svg xmlns="http://www.w3.org/2000/svg">
<defs>
<font id="GTWalsheimPro-Medium" horiz-adv-x="580" >
  <font-face 
    font-family="GT Walsheim Pro"
    font-weight="550"
    font-stretch="normal"
    units-per-em="1000"
    panose-1="2 0 8 3 4 0 0 2 0 3"
    ascent="800"
    descent="-200"
    x-height="466"
    cap-height="700"
    bbox="-150 -327 1214 976"
    underline-thickness="50"
    underline-position="-100"
    stemh="103"
    stemv="115"
    unicode-range="U+000D-FB04"
  />
<missing-glyph horiz-adv-x="800" 
d="M400 717c225 0 362 -177 362 -367s-137 -367 -362 -367s-362 177 -362 367s137 367 362 367zM400 695c-51 0 -98 -10 -143 -29c-40 -18 -75 -43 -106 -76c-30 -33 -52 -70 -67 -110c-16 -42 -24 -85 -24 -130s8 -88 24 -129c15 -41 37 -78 67 -110c31 -33 66 -59 106 -76
c45 -19 92 -29 143 -29s98 10 142 29c40 17 75 43 106 76c30 32 52 69 67 110c16 41 24 84 24 129s-8 88 -24 130c-15 40 -37 77 -67 110c-31 33 -66 58 -106 76c-44 19 -91 29 -142 29zM168 228c67 -40 113 -71 188 -71c55 0 158 5 220 37c1 0 2 1 3 2
c-17 -37 -59 -74 -107 -99c-38 -21 -73 -31 -106 -31c-65 0 -129 46 -198 162zM219 259l179 268l-110 -243h178v-25h-247zM230 169c40 -59 108 -77 136 -77c67 0 151 56 161 63c-57 -11 -102 -23 -169 -23c-35 0 -99 8 -128 37zM498 500c0 24 19 43 42 43
c24 0 43 -19 43 -43c0 -23 -19 -43 -43 -43c-23 0 -42 20 -42 43zM201 500c0 24 19 43 42 43c24 0 43 -19 43 -43c0 -23 -19 -43 -43 -43c-23 0 -42 20 -42 43zM600 161c3 7 2 13 2 18c-1 6 -3 10 -4 13l-3 5c-1 0 -2 1 -3 2c-1 0 -3 1 -4 2l-14 5c-11 5 -22 10 -33 19
c-7 5 -13 11 -18 20l-4 11c-1 5 -3 9 -3 14c-3 11 -4 20 -4 31c1 7 0 14 3 19l15 -5c0 -3 -1 -6 -1 -10v-13c1 -9 1 -19 4 -27c3 -5 2 -9 5 -12c4 -8 11 -13 19 -20c8 -5 18 -9 26 -13l15 -6c2 -1 4 -2 7 -5c4 -3 6 -6 7 -9c3 -6 5 -12 6 -19c0 -8 1 -16 -2 -24zM213 331
c0 -7 1 -13 2 -20s2 -13 2 -20s-2 -13 -7 -20c-5 -6 -9 -10 -14 -13c-1 0 -3 -1 -4 -1c-7 -3 -14 -6 -21 -10c-3 -1 -6 -2 -10 -5l-6 -5c-2 -3 -4 -8 -5 -13c-1 -7 -2 -12 -2 -17h-16c0 7 1 13 2 20c3 7 4 13 9 20l9 8l11 7c7 4 16 7 24 10l1 1c3 1 6 3 9 8c3 4 4 7 4 10
c0 7 -1 11 -2 18l-3 20z" />
    <glyph glyph-name="fi" unicode="fi" horiz-adv-x="658" 
d="M346 602c-15 4 -31 7 -48 7c-34 0 -74 0 -74 -73v-70h122v-91h-122v-375h-109v375h-95v91h95v58c0 178 114 182 168 182c28 0 51 -5 63 -12v-92zM454 466h109v-466h-109v466zM432 635c0 43 33 77 76 77s77 -34 77 -77s-34 -76 -77 -76s-76 33 -76 76z" />
    <glyph glyph-name="fl" unicode="fl" horiz-adv-x="614" 
d="M346 602c-15 4 -31 7 -48 7c-34 0 -74 0 -74 -73v-70h122v-91h-122v-375h-109v375h-95v91h95v58c0 178 114 182 168 182c28 0 51 -5 63 -12v-92zM432 700h109v-700h-109v700z" />
    <glyph glyph-name=".notdef" horiz-adv-x="800" 
d="M400 717c225 0 362 -177 362 -367s-137 -367 -362 -367s-362 177 -362 367s137 367 362 367zM400 695c-51 0 -98 -10 -143 -29c-40 -18 -75 -43 -106 -76c-30 -33 -52 -70 -67 -110c-16 -42 -24 -85 -24 -130s8 -88 24 -129c15 -41 37 -78 67 -110c31 -33 66 -59 106 -76
c45 -19 92 -29 143 -29s98 10 142 29c40 17 75 43 106 76c30 32 52 69 67 110c16 41 24 84 24 129s-8 88 -24 130c-15 40 -37 77 -67 110c-31 33 -66 58 -106 76c-44 19 -91 29 -142 29zM168 228c67 -40 113 -71 188 -71c55 0 158 5 220 37c1 0 2 1 3 2
c-17 -37 -59 -74 -107 -99c-38 -21 -73 -31 -106 -31c-65 0 -129 46 -198 162zM219 259l179 268l-110 -243h178v-25h-247zM230 169c40 -59 108 -77 136 -77c67 0 151 56 161 63c-57 -11 -102 -23 -169 -23c-35 0 -99 8 -128 37zM498 500c0 24 19 43 42 43
c24 0 43 -19 43 -43c0 -23 -19 -43 -43 -43c-23 0 -42 20 -42 43zM201 500c0 24 19 43 42 43c24 0 43 -19 43 -43c0 -23 -19 -43 -43 -43c-23 0 -42 20 -42 43zM600 161c3 7 2 13 2 18c-1 6 -3 10 -4 13l-3 5c-1 0 -2 1 -3 2c-1 0 -3 1 -4 2l-14 5c-11 5 -22 10 -33 19
c-7 5 -13 11 -18 20l-4 11c-1 5 -3 9 -3 14c-3 11 -4 20 -4 31c1 7 0 14 3 19l15 -5c0 -3 -1 -6 -1 -10v-13c1 -9 1 -19 4 -27c3 -5 2 -9 5 -12c4 -8 11 -13 19 -20c8 -5 18 -9 26 -13l15 -6c2 -1 4 -2 7 -5c4 -3 6 -6 7 -9c3 -6 5 -12 6 -19c0 -8 1 -16 -2 -24zM213 331
c0 -7 1 -13 2 -20s2 -13 2 -20s-2 -13 -7 -20c-5 -6 -9 -10 -14 -13c-1 0 -3 -1 -4 -1c-7 -3 -14 -6 -21 -10c-3 -1 -6 -2 -10 -5l-6 -5c-2 -3 -4 -8 -5 -13c-1 -7 -2 -12 -2 -17h-16c0 7 1 13 2 20c3 7 4 13 9 20l9 8l11 7c7 4 16 7 24 10l1 1c3 1 6 3 9 8c3 4 4 7 4 10
c0 7 -1 11 -2 18l-3 20z" />
    <glyph glyph-name="NULL" horiz-adv-x="0" 
 />
    <glyph glyph-name="NULL" horiz-adv-x="0" 
 />
    <glyph glyph-name="CR" unicode="&#xd;" horiz-adv-x="250" 
 />
    <glyph glyph-name="space" unicode=" " horiz-adv-x="250" 
 />
    <glyph glyph-name="exclam" unicode="!" horiz-adv-x="309" 
d="M95 700h119v-477h-119v477zM70 68c0 46 37 84 84 84c48 0 85 -38 85 -84c0 -45 -37 -85 -85 -85c-47 0 -84 40 -84 85z" />
    <glyph glyph-name="quotedbl" unicode="&#x22;" horiz-adv-x="389" 
d="M60 617v100h103v-100l-26 -151h-51zM226 617v100h103v-100l-26 -151h-51z" />
    <glyph glyph-name="numbersign" unicode="#" horiz-adv-x="549" 
d="M309 204h-102l-29 -204h-88l28 204h-89v84h101l17 124h-88v84h100l28 204h89l-28 -204h102l28 204h89l-28 -204h82v-84h-94l-17 -124h81v-84h-93l-29 -204h-88zM219 288h102l17 124h-102z" />
    <glyph glyph-name="dollar" unicode="$" horiz-adv-x="569" 
d="M364 713c105 -16 181 -101 181 -215h-115c0 69 -40 116 -105 116c-57 0 -105 -29 -105 -89c0 -57 50 -85 102 -103c109 -40 240 -85 240 -219c0 -129 -87 -201 -198 -217v-106h-82v106c-109 16 -201 102 -201 243h115c0 -92 56 -143 136 -143c64 0 115 41 115 104
c0 70 -63 95 -111 111c-128 45 -231 84 -231 224c0 103 77 173 177 189v106h82v-107z" />
    <glyph glyph-name="percent" unicode="%" horiz-adv-x="950" 
d="M868 129c0 -75 -57 -137 -147 -137c-91 0 -146 62 -146 137v127c0 74 55 137 146 137c90 0 147 -63 147 -137v-127zM663 129c0 -35 23 -63 58 -63c36 0 59 28 59 63v127c0 35 -23 63 -59 63c-35 0 -58 -28 -58 -63v-127zM81 444v127c0 74 55 137 146 137
c90 0 147 -63 147 -137v-127c0 -75 -57 -137 -147 -137c-91 0 -146 62 -146 137zM286 571c0 35 -23 63 -59 63c-35 0 -58 -28 -58 -63v-127c0 -35 23 -63 58 -63c36 0 59 28 59 63v127zM642 752l87 -50l-437 -753l-87 50z" />
    <glyph glyph-name="ampersand" unicode="&#x26;" horiz-adv-x="599" 
d="M338 335h240v-102h-53c0 -156 -119 -245 -241 -245c-120 0 -240 82 -240 222c0 79 48 121 112 156c-57 32 -95 70 -95 154c0 116 103 192 220 192c127 0 220 -89 220 -219h-115c0 69 -30 116 -110 116c-59 0 -100 -29 -100 -89c0 -57 22 -102 117 -102v-102
c-99 0 -134 -50 -134 -119c0 -53 47 -106 125 -106c63 0 126 51 126 142h-72v102z" />
    <glyph glyph-name="quotesingle" unicode="'" horiz-adv-x="223" 
d="M60 617v100h103v-100l-26 -151h-51z" />
    <glyph glyph-name="parenleft" unicode="(" horiz-adv-x="390" 
d="M350 691c-80 0 -130 -66 -130 -142v-549c0 -76 50 -142 130 -142v-103c-148 0 -245 113 -245 245v549c0 132 97 245 245 245v-103z" />
    <glyph glyph-name="parenright" unicode=")" horiz-adv-x="390" 
d="M40 794c148 0 245 -113 245 -245v-549c0 -132 -97 -245 -245 -245v103c80 0 130 66 130 142v549c0 76 -50 142 -130 142v103z" />
    <glyph glyph-name="asterisk" unicode="*" horiz-adv-x="462" 
d="M89 405l107 124l-141 34l22 66l131 -56l-14 144h74l-14 -144l131 56l22 -66l-141 -34l107 -124l-62 -44l-80 136l-80 -136z" />
    <glyph glyph-name="plus" unicode="+" 
d="M235 83v153h-147v97h147v154h109v-154h148v-97h-148v-153h-109z" />
    <glyph glyph-name="comma" unicode="," horiz-adv-x="291" 
d="M60 74c0 45 36 81 80 81c55 0 91 -42 91 -103c0 -123 -63 -168 -167 -168v51c35 0 57 8 73 20c15 13 21 29 24 45c-3 -3 -12 -6 -21 -6c-49 0 -80 36 -80 80z" />
    <glyph glyph-name="hyphen" unicode="-" horiz-adv-x="294" 
d="M264 236h-234v97h234v-97z" />
    <glyph glyph-name="period" unicode="." horiz-adv-x="281" 
d="M60 74c0 45 36 81 80 81c45 0 81 -36 81 -81c0 -44 -36 -80 -81 -80c-44 0 -80 36 -80 80z" />
    <glyph glyph-name="slash" unicode="/" horiz-adv-x="453" 
d="M363 820l100 -43l-364 -846l-100 43z" />
    <glyph glyph-name="zero" unicode="0" 
d="M44 467c0 132 97 245 245 245c149 0 247 -113 247 -245v-234c0 -132 -98 -245 -247 -245c-148 0 -245 113 -245 245v234zM421 467c0 76 -52 142 -132 142s-130 -66 -130 -142v-234c0 -76 50 -142 130 -142s132 66 132 142v234z" />
    <glyph glyph-name="one" unicode="1" horiz-adv-x="366" 
d="M30 584c128 0 154 32 154 116h109v-700h-119v493h-144v91z" />
    <glyph glyph-name="two" unicode="2" horiz-adv-x="527" 
d="M47 0c0 223 80 283 187 353c61 37 138 76 138 160c0 68 -44 96 -101 96c-60 0 -109 -35 -109 -116h-115c0 141 108 219 225 219c121 0 215 -70 215 -210c0 -128 -143 -201 -188 -233c-101 -72 -120 -99 -120 -166h304v-103h-436z" />
    <glyph glyph-name="three" unicode="3" horiz-adv-x="569" 
d="M148 234c0 -91 59 -143 134 -143c73 0 117 52 117 109c0 66 -31 116 -126 116h-47v102h48c83 0 108 42 108 102s-40 89 -99 89c-83 0 -111 -47 -111 -116h-115c0 130 90 219 218 219c120 0 222 -76 222 -192c0 -80 -39 -130 -95 -154c64 -25 112 -76 112 -165
c0 -127 -108 -213 -237 -213c-127 0 -244 90 -244 246h115z" />
    <glyph glyph-name="four" unicode="4" horiz-adv-x="559" 
d="M320 210h-255v490h115v-387h140v210h115v-210h96v-103h-96v-210h-115v210z" />
    <glyph glyph-name="five" unicode="5" horiz-adv-x="606" 
d="M76 700h425v-103h-322v-194c29 53 102 74 150 74c149 0 227 -112 227 -244s-98 -245 -247 -245c-148 0 -245 113 -245 245h115c0 -76 50 -142 130 -142c81 0 132 66 132 142s-51 142 -132 142c-51 0 -91 -24 -118 -77h-115v402z" />
    <glyph glyph-name="six" unicode="6" horiz-adv-x="569" 
d="M282 -12c-148 0 -245 113 -245 245c0 53 17 102 44 145l201 322h132l-147 -223c3 1 8 1 15 1c149 0 247 -113 247 -245s-98 -245 -247 -245zM282 91c80 0 132 66 132 142s-52 142 -132 142s-130 -66 -130 -142s50 -142 130 -142z" />
    <glyph glyph-name="seven" unicode="7" horiz-adv-x="479" 
d="M484 700l-298 -700h-122l258 597h-284v103h446z" />
    <glyph glyph-name="eight" unicode="8" horiz-adv-x="589" 
d="M295 -12c-149 0 -240 98 -240 214c0 66 31 142 102 166c-63 28 -85 89 -85 145c0 108 83 199 223 199s222 -92 222 -199c0 -56 -22 -117 -85 -145c71 -24 102 -102 102 -166c0 -112 -90 -214 -239 -214zM295 406c67 0 107 49 107 102c0 52 -40 101 -107 101
c-68 0 -108 -47 -108 -101c0 -56 40 -102 108 -102zM295 91c77 0 124 52 124 111c0 57 -44 112 -124 112c-81 0 -125 -52 -125 -112s47 -111 125 -111z" />
    <glyph glyph-name="nine" unicode="9" horiz-adv-x="569" 
d="M287 712c148 0 245 -113 245 -245c0 -55 -18 -102 -45 -145l-200 -322h-132l147 222c-159 0 -262 104 -262 245c0 132 97 245 247 245zM287 609c-80 0 -132 -66 -132 -142s52 -142 132 -142s130 66 130 142s-50 142 -130 142z" />
    <glyph glyph-name="colon" unicode=":" horiz-adv-x="281" 
d="M60 403c0 45 36 81 80 81c45 0 81 -36 81 -81c0 -44 -36 -80 -81 -80c-44 0 -80 36 -80 80zM60 74c0 45 36 81 80 81c45 0 81 -36 81 -81c0 -44 -36 -80 -81 -80c-44 0 -80 36 -80 80z" />
    <glyph glyph-name="semicolon" unicode=";" horiz-adv-x="291" 
d="M60 74c0 45 36 81 80 81c55 0 91 -42 91 -103c0 -123 -63 -168 -167 -168v51c35 0 57 8 73 20c15 13 21 29 24 45c-3 -3 -12 -6 -21 -6c-49 0 -80 36 -80 80zM60 403c0 45 36 81 80 81c45 0 81 -36 81 -81c0 -44 -36 -80 -81 -80c-44 0 -80 36 -80 80z" />
    <glyph glyph-name="less" unicode="&#x3c;" 
d="M37 245v77l507 176v-103l-346 -111l346 -112v-103z" />
    <glyph glyph-name="equal" unicode="=" 
d="M88 313v97h404v-97h-404zM88 157v97h404v-97h-404z" />
    <glyph glyph-name="greater" unicode="&#x3e;" 
d="M36 69v103l346 112l-346 111v103l507 -176v-77z" />
    <glyph glyph-name="question" unicode="?" horiz-adv-x="511" 
d="M174 188c0 86 12 144 78 192c40 29 97 71 97 135s-44 94 -105 94c-56 0 -105 -35 -105 -116h-115c0 141 103 219 220 219c120 0 220 -77 220 -197c0 -94 -68 -144 -106 -177c-66 -53 -74 -69 -74 -150h-110zM145 68c0 46 37 84 84 84c48 0 85 -38 85 -84
c0 -45 -37 -85 -85 -85c-47 0 -84 40 -84 85z" />
    <glyph glyph-name="at" unicode="@" horiz-adv-x="829" 
d="M526 64c-24 -39 -76 -63 -121 -63c-120 0 -201 95 -201 205c0 111 81 206 201 206c45 0 97 -23 121 -63v53h91v-261c0 -60 16 -90 55 -90c35 0 70 40 70 212c0 164 -123 269 -295 269c-181 0 -336 -123 -336 -326c0 -163 115 -322 344 -322c45 0 104 9 168 42l33 -71
c-76 -43 -146 -53 -201 -53c-291 0 -435 200 -435 404c0 252 195 408 427 408c230 0 387 -135 387 -351c0 -209 -65 -294 -179 -294c-71 0 -110 44 -129 95zM409 83c71 0 117 56 117 123c0 68 -46 124 -117 124c-68 0 -113 -56 -113 -124c0 -67 45 -123 113 -123z" />
    <glyph glyph-name="A" unicode="A" horiz-adv-x="571" 
d="M447 0l-30 89h-263l-30 -89h-121l242 700h81l242 -700h-121zM286 509l-97 -317h193z" />
    <glyph glyph-name="B" unicode="B" horiz-adv-x="598" 
d="M73 700h239c192 0 225 -117 225 -189c0 -88 -64 -142 -123 -155c44 0 129 -52 129 -158c0 -73 -38 -198 -230 -198h-240v700zM188 303v-200h130c93 0 110 58 110 99c0 35 -21 101 -109 101h-131zM312 406c93 0 110 60 110 95s-17 96 -110 96h-124v-191h124z" />
    <glyph glyph-name="C" unicode="C" horiz-adv-x="775" 
d="M738 225c-32 -136 -159 -242 -332 -242c-228 0 -368 172 -368 368c0 189 136 366 356 366c208 0 323 -121 344 -272h-121c-16 96 -94 169 -208 169c-161 0 -253 -127 -253 -263c0 -144 94 -265 265 -265c81 0 167 59 191 139h126z" />
    <glyph glyph-name="D" unicode="D" horiz-adv-x="701" 
d="M300 700c232 0 363 -174 363 -350s-131 -350 -363 -350h-227v700h227zM188 597v-494h112c156 0 245 122 245 247s-89 247 -245 247h-112z" />
    <glyph glyph-name="E" unicode="E" horiz-adv-x="545" 
d="M188 597v-198h289v-103h-289v-193h289v-103h-404v700h404v-103h-289z" />
    <glyph glyph-name="F" unicode="F" horiz-adv-x="538" 
d="M188 597v-222h289v-103h-289v-272h-115v700h404v-103h-289z" />
    <glyph glyph-name="G" unicode="G" horiz-adv-x="838" 
d="M483 351h333v-103h-77c-32 -156 -146 -265 -341 -265c-229 0 -360 177 -360 367s139 367 360 367c164 0 287 -103 298 -227h-116c-13 69 -84 124 -182 124c-150 0 -242 -127 -242 -264s85 -264 257 -264c119 0 191 76 204 162h-134v103z" />
    <glyph glyph-name="H" unicode="H" horiz-adv-x="665" 
d="M477 296h-289v-296h-115v700h115v-301h289v301h115v-700h-115v296z" />
    <glyph glyph-name="I" unicode="I" horiz-adv-x="265" 
d="M73 700h119v-700h-119v700z" />
    <glyph glyph-name="J" unicode="J" horiz-adv-x="536" 
d="M468 227c0 -136 -82 -244 -229 -244c-145 0 -227 109 -227 245h115c0 -84 36 -142 112 -142s114 57 114 141v473h115v-473z" />
    <glyph glyph-name="K" unicode="K" horiz-adv-x="607" 
d="M188 307v-307h-115v700h115v-308l260 308h144l-296 -350l296 -350h-144z" />
    <glyph glyph-name="L" unicode="L" horiz-adv-x="429" 
d="M404 103v-103h-331v700h115v-597h216z" />
    <glyph glyph-name="M" unicode="M" horiz-adv-x="813" 
d="M740 0h-115v433l-175 -433h-87l-175 433v-433h-115v700h110l224 -521l223 521h110v-700z" />
    <glyph glyph-name="N" unicode="N" horiz-adv-x="664" 
d="M476 202v498h115v-700h-126l-277 498v-498h-115v700h126z" />
    <glyph glyph-name="O" unicode="O" horiz-adv-x="800" 
d="M400 -17c-225 0 -362 177 -362 367s137 367 362 367s362 -177 362 -367s-137 -367 -362 -367zM400 86c149 0 241 128 241 264s-92 264 -241 264s-241 -128 -241 -264s92 -264 241 -264z" />
    <glyph glyph-name="P" unicode="P" horiz-adv-x="596" 
d="M73 700h251c149 0 247 -113 247 -245s-98 -245 -247 -245h-136v-210h-115v700zM324 313c80 0 132 66 132 142s-52 142 -132 142h-136v-284h136z" />
    <glyph glyph-name="Q" unicode="Q" horiz-adv-x="800" 
d="M762 350c0 -151 -88 -296 -238 -347l60 -84l-101 -51l-84 115c-224 0 -361 179 -361 367c0 190 137 367 362 367s362 -177 362 -367zM400 86c149 0 241 128 241 264s-92 264 -241 264s-241 -128 -241 -264s92 -264 241 -264z" />
    <glyph glyph-name="R" unicode="R" horiz-adv-x="609" 
d="M73 700h251c149 0 247 -113 247 -245c0 -100 -56 -189 -148 -227l139 -228h-131l-128 210h-115v-210h-115v700zM324 313c80 0 132 66 132 142s-52 142 -132 142h-136v-284h136z" />
    <glyph glyph-name="S" unicode="S" horiz-adv-x="569" 
d="M157 229c0 -92 56 -143 136 -143c64 0 115 41 115 104c0 70 -63 95 -111 111c-128 45 -231 84 -231 224c0 116 100 192 217 192c126 0 223 -89 223 -219h-115c0 69 -40 116 -105 116c-57 0 -105 -29 -105 -89c0 -57 50 -85 102 -103c109 -40 240 -85 240 -219
c0 -144 -109 -220 -240 -220c-127 0 -241 90 -241 246h115z" />
    <glyph glyph-name="T" unicode="T" horiz-adv-x="482" 
d="M183 597h-173v103h462v-103h-174v-597h-115v597z" />
    <glyph glyph-name="U" unicode="U" horiz-adv-x="640" 
d="M68 700h115v-466c0 -80 53 -148 136 -148s138 68 138 148v466h115v-466c0 -136 -99 -251 -253 -251c-151 0 -251 115 -251 251v466z" />
    <glyph glyph-name="V" unicode="V" horiz-adv-x="569" 
d="M325 0h-81l-242 700h121l162 -509l161 509h121z" />
    <glyph glyph-name="W" unicode="W" horiz-adv-x="983" 
d="M492 499l-162 -499h-83l-242 700h121l161 -499l162 499h85l162 -499l161 499h121l-242 -700h-83z" />
    <glyph glyph-name="X" unicode="X" horiz-adv-x="562" 
d="M424 700h130l-208 -350l208 -350h-130l-143 250l-143 -250h-130l208 350l-208 350h130l143 -251z" />
    <glyph glyph-name="Y" unicode="Y" horiz-adv-x="612" 
d="M260 0h-126l139 280l-262 420h133l187 -301l150 301h126z" />
    <glyph glyph-name="Z" unicode="Z" horiz-adv-x="577" 
d="M34 700h533l-363 -597h361v-103h-552l363 597h-342v103z" />
    <glyph glyph-name="bracketleft" unicode="[" horiz-adv-x="355" 
d="M73 -234v1029h202v-97h-93v-836h93v-96h-202z" />
    <glyph glyph-name="backslash" unicode="\" horiz-adv-x="453" 
d="M463 -26l-100 -43l-364 846l100 43z" />
    <glyph glyph-name="bracketright" unicode="]" horiz-adv-x="355" 
d="M80 -234v96h93v835h-93v97h202v-1028h-202z" />
    <glyph glyph-name="asciicircum" unicode="^" horiz-adv-x="648" 
d="M465 323l-142 289l-144 -289h-119l224 427h76l228 -427h-123z" />
    <glyph glyph-name="underscore" unicode="_" horiz-adv-x="560" 
d="M30 -125v75h500v-75h-500z" />
    <glyph glyph-name="grave" unicode="`" horiz-adv-x="573" 
d="M119 652l52 85l249 -137l-52 -85z" />
    <glyph glyph-name="a" unicode="a" horiz-adv-x="603" 
d="M530 466v-466h-109v63c-29 -47 -89 -75 -144 -75c-141 0 -239 113 -239 245s98 245 239 245c55 0 115 -28 144 -75v63h109zM283 85c83 0 138 68 138 148s-55 148 -138 148s-136 -68 -136 -148s53 -148 136 -148z" />
    <glyph glyph-name="b" unicode="b" horiz-adv-x="605" 
d="M182 0h-109v700h109v-297c29 47 89 75 144 75c141 0 239 -113 239 -245s-98 -245 -239 -245c-55 0 -115 28 -144 75v-63zM320 85c83 0 136 68 136 148s-53 148 -136 148c-85 0 -138 -68 -138 -148s53 -148 138 -148z" />
    <glyph glyph-name="c" unicode="c" horiz-adv-x="534" 
d="M384 296c-7 51 -35 85 -110 85c-84 0 -125 -69 -125 -148c0 -80 39 -148 132 -148c64 0 89 28 104 75h109c-16 -97 -85 -172 -221 -172c-152 0 -233 118 -233 245c0 126 81 245 232 245c152 0 213 -92 221 -182h-109z" />
    <glyph glyph-name="d" unicode="d" horiz-adv-x="603" 
d="M421 63c-29 -47 -89 -75 -144 -75c-141 0 -239 113 -239 245s98 245 239 245c55 0 115 -28 144 -75v297h109v-700h-109v63zM283 85c83 0 138 68 138 148s-55 148 -138 148s-136 -68 -136 -148s53 -148 136 -148z" />
    <glyph glyph-name="e" unicode="e" horiz-adv-x="531" 
d="M267 396c-68 0 -119 -39 -119 -115h232c0 72 -46 115 -113 115zM148 200c5 -67 34 -121 125 -121c63 0 86 28 99 61h110c-13 -80 -90 -152 -209 -152c-156 0 -233 108 -233 245c0 140 83 245 230 245c121 0 216 -91 216 -210c0 -16 0 -37 -5 -68h-333z" />
    <glyph glyph-name="f" unicode="f" horiz-adv-x="359" 
d="M346 602c-15 4 -31 7 -48 7c-34 0 -74 0 -74 -73v-70h122v-91h-122v-375h-109v375h-95v91h95v58c0 178 114 182 168 182c28 0 51 -5 63 -12v-92z" />
    <glyph glyph-name="g" unicode="g" horiz-adv-x="600" 
d="M283 381c-83 0 -136 -68 -136 -148s53 -148 136 -148s138 68 138 148s-55 148 -138 148zM532 -23c0 -79 -24 -134 -67 -170s-104 -53 -183 -53s-135 24 -174 60s-59 84 -62 133h110c5 -51 46 -95 125 -95c88 0 140 37 140 125v86c-29 -47 -89 -75 -144 -75
c-141 0 -239 113 -239 245s98 245 239 245c55 0 115 -28 144 -75v63h109z" />
    <glyph glyph-name="h" unicode="h" horiz-adv-x="569" 
d="M73 700h109v-299c29 51 83 77 152 77c68 0 113 -24 140 -63c23 -35 30 -74 30 -138v-277h-109v241c0 80 -24 141 -101 141c-76 0 -112 -61 -112 -141v-241h-109v700z" />
    <glyph glyph-name="i" unicode="i" horiz-adv-x="255" 
d="M73 466h109v-466h-109v466zM47 636c0 45 36 81 80 81c45 0 81 -36 81 -81c0 -44 -36 -80 -81 -80c-44 0 -80 36 -80 80z" />
    <glyph glyph-name="j" unicode="j" horiz-adv-x="255" 
d="M182 -109c0 -104 -55 -135 -108 -135c-31 0 -61 4 -74 11v95c21 -3 29 -3 38 -3c23 0 35 16 35 49v558h109v-575zM47 636c0 45 36 81 80 81c45 0 81 -36 81 -81c0 -44 -36 -80 -81 -80c-44 0 -80 36 -80 80z" />
    <glyph glyph-name="k" unicode="k" horiz-adv-x="499" 
d="M295 233l194 -233h-136l-171 205v-205h-109v700h109v-440l171 206h136z" />
    <glyph glyph-name="l" unicode="l" horiz-adv-x="255" 
d="M73 700h109v-700h-109v700z" />
    <glyph glyph-name="m" unicode="m" horiz-adv-x="836" 
d="M661 0v261c0 75 -26 121 -87 121c-55 0 -98 -34 -98 -145v-237h-109v262c0 75 -24 120 -85 120c-55 0 -100 -34 -100 -145v-237h-109v466h109v-65c20 43 69 77 130 77c85 0 127 -36 147 -83c23 47 76 83 143 83c140 0 168 -96 168 -183v-295h-109z" />
    <glyph glyph-name="n" unicode="n" horiz-adv-x="569" 
d="M73 466h109v-65c29 51 83 77 152 77c68 0 113 -24 140 -63c23 -35 30 -74 30 -138v-277h-109v241c0 80 -24 141 -101 141c-76 0 -112 -61 -112 -141v-241h-109v466z" />
    <glyph glyph-name="o" unicode="o" horiz-adv-x="568" 
d="M283 -12c-148 0 -245 113 -245 245s97 245 245 245c149 0 247 -113 247 -245s-98 -245 -247 -245zM283 85c83 0 138 68 138 148s-55 148 -138 148s-136 -68 -136 -148s53 -148 136 -148z" />
    <glyph glyph-name="p" unicode="p" horiz-adv-x="605" 
d="M182 403c29 47 89 75 144 75c141 0 239 -113 239 -245s-98 -245 -239 -245c-55 0 -115 28 -144 75v-297h-109v700h109v-63zM320 381c-85 0 -138 -68 -138 -148s53 -148 138 -148c83 0 136 68 136 148s-53 148 -136 148z" />
    <glyph glyph-name="q" unicode="q" horiz-adv-x="605" 
d="M423 466h109v-700h-109v297c-29 -47 -89 -75 -144 -75c-141 0 -239 113 -239 245s98 245 239 245c55 0 115 -28 144 -75v63zM285 381c-83 0 -136 -68 -136 -148s53 -148 136 -148s138 68 138 148s-55 148 -138 148z" />
    <glyph glyph-name="r" unicode="r" horiz-adv-x="378" 
d="M369 365c-17 4 -26 5 -43 5c-93 0 -144 -52 -144 -169v-201h-109v466h109v-75c21 42 82 81 144 81c17 0 32 -2 43 -7v-100z" />
    <glyph glyph-name="s" unicode="s" horiz-adv-x="454" 
d="M285 263c65 -24 127 -49 127 -133c0 -97 -84 -142 -186 -142c-100 0 -190 60 -190 169h106c0 -61 38 -83 90 -83c43 0 76 14 76 54c0 42 -47 48 -145 85c-65 24 -111 49 -111 130c0 88 80 135 175 135c99 0 178 -67 178 -158h-106c0 44 -22 72 -75 72
c-37 0 -67 -18 -67 -51c0 -39 42 -46 128 -78z" />
    <glyph glyph-name="t" unicode="t" horiz-adv-x="351" 
d="M331 0c-17 -3 -49 -6 -81 -6c-53 0 -151 7 -151 164v217h-79v91h79v141h109v-141h107v-91h-107v-192c0 -80 25 -91 68 -91c17 0 44 1 55 4v-96z" />
    <glyph glyph-name="u" unicode="u" horiz-adv-x="569" 
d="M496 466v-466h-109v65c-29 -51 -83 -77 -152 -77c-68 0 -113 24 -140 63c-23 35 -30 74 -30 138v277h109v-241c0 -80 24 -141 101 -141c76 0 112 61 112 141v241h109z" />
    <glyph glyph-name="v" unicode="v" horiz-adv-x="494" 
d="M118 466l128 -310l130 310h117l-211 -466h-73l-208 466h117z" />
    <glyph glyph-name="w" unicode="w" horiz-adv-x="753" 
d="M377 348l-123 -348h-73l-181 466h117l101 -295l105 295h107l105 -295l101 295h117l-181 -466h-73z" />
    <glyph glyph-name="x" unicode="x" horiz-adv-x="446" 
d="M438 0h-126l-89 150l-89 -150h-126l152 235l-149 231h126l86 -146l86 146h126l-149 -231z" />
    <glyph glyph-name="y" unicode="y" horiz-adv-x="578" 
d="M283 -243c-63 0 -116 16 -155 48s-63 80 -64 144h110c5 -68 53 -100 110 -100c67 0 114 24 114 111v107c-29 -51 -83 -77 -152 -77c-68 0 -113 24 -140 63c-23 35 -30 74 -30 138v277h109v-241c0 -80 24 -141 101 -141c76 0 112 61 112 141v241h109v-508
c0 -68 -19 -119 -58 -154c-38 -34 -93 -51 -166 -51v2z" />
    <glyph glyph-name="z" unicode="z" horiz-adv-x="438" 
d="M424 466l-220 -369h220v-97h-402l221 369h-215v97h396z" />
    <glyph glyph-name="braceleft" unicode="{" horiz-adv-x="460" 
d="M380 794v-82h-44c-48 0 -54 -41 -54 -75v-254c0 -85 -70 -111 -99 -114c29 -5 99 -23 99 -124v-222c0 -33 6 -75 54 -75h44v-82h-71c-64 0 -137 45 -137 139v225c0 68 -60 93 -92 93v89c32 0 92 23 92 86v257c0 93 73 139 137 139h71z" />
    <glyph glyph-name="bar" unicode="|" horiz-adv-x="255" 
d="M82 -234v1028h94v-1028h-94z" />
    <glyph glyph-name="braceright" unicode="}" horiz-adv-x="460" 
d="M151 794c64 0 137 -46 137 -139v-257c0 -63 60 -86 92 -86v-89c-32 0 -92 -25 -92 -93v-225c0 -94 -73 -139 -137 -139h-71v82h44c48 0 54 42 54 75v222c0 102 69 119 99 124c-30 3 -99 29 -99 114v254c0 34 -6 75 -54 75h-44v82h71z" />
    <glyph glyph-name="asciitilde" unicode="~" horiz-adv-x="527" 
d="M40 286c33 44 76 59 111 59c36 0 77 -15 118 -32c39 -16 80 -36 108 -36c45 0 83 28 110 55v-93c-33 -44 -76 -59 -111 -59c-39 0 -73 14 -108 33s-74 35 -122 35c-41 0 -79 -28 -106 -55v93z" />
    <glyph glyph-name="nbspace" unicode="&#xa0;" horiz-adv-x="250" 
 />
    <glyph glyph-name="exclamdown" unicode="&#xa1;" horiz-adv-x="309" 
d="M97 222h119v-472h-119v472zM75 380c0 45 37 82 81 82c45 0 82 -37 82 -82c0 -44 -37 -81 -82 -81c-44 0 -81 37 -81 81z" />
    <glyph glyph-name="cent" unicode="&#xa2;" 
d="M402 412c-7 51 -35 85 -110 85c-84 0 -125 -69 -125 -148c0 -80 39 -148 132 -148c64 0 89 28 104 75h109c-15 -88 -72 -155 -180 -170v-106h-82v107c-125 19 -192 127 -192 242s67 223 192 242v107h82v-107c122 -16 171 -97 179 -179h-109z" />
    <glyph glyph-name="sterling" unicode="&#xa3;" 
d="M225 520c0 -21 1 -77 1 -121h143v-82h-143c-1 -49 -3 -98 -8 -137s-12 -68 -23 -77h298v-103h-428v85c16 15 27 46 34 87s9 92 12 143h-68v82h68c0 42 -1 99 -1 123c0 116 103 192 220 192c127 0 220 -89 220 -219h-115c0 69 -30 116 -110 116c-59 0 -100 -29 -100 -89z
" />
    <glyph glyph-name="currency" unicode="&#xa4;" horiz-adv-x="719" 
d="M498 164c-39 -26 -86 -39 -139 -39c-52 0 -98 13 -137 39l-65 -64l-69 68l65 65c-26 41 -39 87 -39 137c0 51 14 97 39 136l-64 65l68 69l64 -65c39 25 85 40 138 40c55 0 100 -15 139 -40l64 64l69 -68l-65 -65c27 -40 40 -85 40 -136s-13 -97 -40 -137l64 -64l-68 -69z
M359 222c83 0 138 68 138 148s-55 148 -138 148s-136 -68 -136 -148s53 -148 136 -148z" />
    <glyph glyph-name="yen" unicode="&#xa5;" 
d="M103 700l188 -301l186 301h133l-246 -397h130v-82h-152v-63h152v-82h-152v-76h-103v76h-149v82h149v63h-149v82h127l-247 397h133z" />
    <glyph glyph-name="brokenbar" unicode="&#xa6;" horiz-adv-x="255" 
d="M81 334v460h95v-460h-95zM176 225v-459h-95v459h95z" />
    <glyph glyph-name="section" unicode="&#xa7;" 
d="M280 62c-110 35 -242 77 -242 201c0 80 39 136 115 159c-51 32 -73 80 -73 140c0 108 104 178 222 178c123 0 222 -82 222 -203h-116c0 64 -45 108 -106 108c-59 0 -106 -28 -106 -83c0 -53 50 -79 103 -95c109 -37 242 -76 242 -201c0 -80 -59 -148 -115 -159
c51 -33 73 -80 73 -140c0 -108 -104 -178 -222 -178c-123 0 -222 82 -222 203h116c0 -64 45 -108 106 -108c58 0 106 27 106 83c0 53 -50 79 -103 95zM425 254c0 33 -16 53 -45 72c-29 17 -71 31 -124 47c-59 -5 -102 -42 -102 -98c0 -35 23 -59 56 -78s75 -31 112 -42
c60 5 103 43 103 99z" />
    <glyph glyph-name="dieresis" unicode="&#xa8;" horiz-adv-x="595" 
d="M327 635c0 43 33 77 76 77s77 -34 77 -77s-34 -76 -77 -76s-76 33 -76 76zM98 635c0 43 33 77 76 77s77 -34 77 -77s-34 -76 -77 -76s-76 33 -76 76z" />
    <glyph glyph-name="copyright" unicode="&#xa9;" horiz-adv-x="804" 
d="M402 -17c-225 0 -362 177 -362 367s137 367 362 367s362 -177 362 -367s-137 -367 -362 -367zM594 280c-16 -77 -91 -134 -183 -134c-129 0 -205 95 -205 205c0 105 74 203 198 203c116 0 177 -68 190 -152h-74c-12 49 -49 88 -116 88c-78 0 -125 -67 -125 -139
c0 -75 49 -140 132 -140c51 0 92 29 107 69h76zM402 52c170 0 274 144 274 298s-104 298 -274 298s-274 -144 -274 -298s104 -298 274 -298z" />
    <glyph glyph-name="ordfeminine" unicode="&#xaa;" horiz-adv-x="603" 
d="M530 466v-466h-109v63c-29 -47 -89 -75 -144 -75c-141 0 -239 113 -239 245s98 245 239 245c55 0 115 -28 144 -75v63h109zM283 85c83 0 138 68 138 148s-55 148 -138 148s-136 -68 -136 -148s53 -148 136 -148z" />
    <glyph glyph-name="guillemotleft" unicode="&#xab;" horiz-adv-x="472" 
d="M432 95l-196 164v64l196 164v-105l-109 -91l109 -91v-105zM236 95l-196 164v64l196 164v-105l-109 -91l109 -91v-105z" />
    <glyph glyph-name="logicalnot" unicode="&#xac;" 
d="M383 313h-295v97h404v-250h-109v153z" />
    <glyph glyph-name="softhyphen" unicode="&#xad;" horiz-adv-x="294" 
d="M264 236h-234v97h234v-97z" />
    <glyph glyph-name="registered" unicode="&#xae;" horiz-adv-x="804" 
d="M402 -17c-225 0 -362 177 -362 367s137 367 362 367s362 -177 362 -367s-137 -367 -362 -367zM402 52c170 0 274 144 274 298s-104 298 -274 298s-274 -144 -274 -298s104 -298 274 -298zM266 157v407h166c87 0 143 -66 143 -143c0 -59 -31 -108 -86 -131l81 -133h-86
l-74 122h-67v-122h-77zM424 346c43 0 69 34 69 75s-26 76 -69 76h-81v-151h81z" />
    <glyph glyph-name="overscore" unicode="&#xaf;" horiz-adv-x="555" 
d="M456 723h-358v97h358v-97z" />
    <glyph glyph-name="degree" unicode="&#xb0;" horiz-adv-x="326" 
d="M306 574c0 -80 -63 -143 -143 -143s-143 63 -143 143s63 143 143 143s143 -63 143 -143zM229 574c0 36 -30 68 -66 68s-66 -32 -66 -68c0 -37 30 -67 66 -67s66 30 66 67z" />
    <glyph glyph-name="plusminus" unicode="&#xb1;" 
d="M235 216v153h-147v97h147v154h109v-154h148v-97h-148v-153h-109zM88 0v97h404v-97h-404z" />
    <glyph glyph-name="twosuperior" unicode="&#xb2;" horiz-adv-x="377" 
d="M55 315c0 126 42 162 102 199c45 27 80 45 80 84c0 31 -19 43 -44 43c-28 0 -49 -16 -49 -56h-88c0 71 49 123 137 123c70 0 131 -35 131 -116c0 -67 -63 -103 -100 -127c-53 -35 -68 -47 -68 -78h166v-72h-267z" />
    <glyph glyph-name="threesuperior" unicode="&#xb3;" horiz-adv-x="391" 
d="M136 444c0 -43 24 -66 59 -66c33 0 51 24 51 51c0 32 -14 53 -57 53h-34v69h34c40 0 51 19 51 47c0 31 -17 43 -44 43c-39 0 -49 -21 -49 -56h-88c0 66 39 123 135 123c71 0 134 -37 134 -108c0 -43 -26 -74 -57 -85c35 -12 63 -44 63 -92c0 -75 -66 -116 -138 -116
c-96 0 -148 56 -148 137h88z" />
    <glyph glyph-name="acute" unicode="&#xb4;" horiz-adv-x="573" 
d="M132 515l-52 85l249 137l52 -85z" />
    <glyph glyph-name="uni00B5" 
d="M74 466h109v-241c0 -80 24 -141 101 -141c76 0 112 61 112 141v241h109v-466h-109v65c-29 -51 -83 -77 -152 -77c-21 0 -42 3 -61 8v-230h-109v700z" />
    <glyph glyph-name="paragraph" unicode="&#xb6;" horiz-adv-x="668" 
d="M231 329c-123 0 -216 60 -216 191c0 176 162 197 249 197h331v-90h-53v-775h-103v774h-105v-774h-103v477z" />
    <glyph glyph-name="middot" unicode="&#xb7;" horiz-adv-x="281" 
d="M60 312c0 45 36 81 80 81c45 0 81 -36 81 -81c0 -44 -36 -80 -81 -80c-44 0 -80 36 -80 80z" />
    <glyph glyph-name="cedilla" unicode="&#xb8;" horiz-adv-x="555" 
d="M193 0h70v-64c9 9 21 13 37 13c35 0 79 -30 79 -86c0 -46 -33 -97 -102 -97c-15 0 -90 5 -101 86h64c6 -20 18 -30 37 -30c23 0 38 16 38 41c0 23 -17 37 -37 37c-14 0 -24 -6 -31 -18h-54v118z" />
    <glyph glyph-name="onesuperior" unicode="&#xb9;" horiz-adv-x="282" 
d="M46 633c74 0 91 21 91 67h78v-385h-90v255h-79v63z" />
    <glyph glyph-name="ordmasculine" unicode="&#xba;" horiz-adv-x="568" 
d="M283 -12c-148 0 -245 113 -245 245s97 245 245 245c149 0 247 -113 247 -245s-98 -245 -247 -245zM283 85c83 0 138 68 138 148s-55 148 -138 148s-136 -68 -136 -148s53 -148 136 -148z" />
    <glyph glyph-name="guillemotright" unicode="&#xbb;" horiz-adv-x="472" 
d="M40 200l109 91l-109 91v105l196 -164v-64l-196 -164v105zM236 200l109 91l-109 91v105l196 -164v-64l-196 -164v105z" />
    <glyph glyph-name="onequarter" unicode="&#xbc;" horiz-adv-x="950" 
d="M72 633c74 0 91 21 91 67h78v-385h-90v255h-79v63zM718 107h-153v278h88v-204h65v107h88v-107h47v-74h-47v-107h-88v107zM585 752l87 -50l-437 -753l-87 50z" />
    <glyph glyph-name="onehalf" unicode="&#xbd;" horiz-adv-x="950" 
d="M72 633c74 0 91 21 91 67h78v-385h-90v255h-79v63zM563 0c0 126 42 162 102 199c45 27 80 45 80 84c0 31 -19 43 -44 43c-28 0 -49 -16 -49 -56h-88c0 71 49 123 137 123c70 0 131 -35 131 -116c0 -67 -63 -103 -100 -127c-53 -35 -68 -47 -68 -78h166v-72h-267zM585 752
l87 -50l-437 -753l-87 50z" />
    <glyph glyph-name="threequarters" unicode="&#xbe;" horiz-adv-x="950" 
d="M133 444c0 -43 24 -66 59 -66c33 0 51 24 51 51c0 32 -14 53 -57 53h-34v69h34c40 0 51 19 51 47c0 31 -17 43 -44 43c-39 0 -49 -21 -49 -56h-88c0 66 39 123 135 123c71 0 134 -37 134 -108c0 -43 -26 -74 -57 -85c35 -12 63 -44 63 -92c0 -75 -66 -116 -138 -116
c-96 0 -148 56 -148 137h88zM718 107h-153v278h88v-204h65v107h88v-107h47v-74h-47v-107h-88v107zM585 752l87 -50l-437 -753l-87 50z" />
    <glyph glyph-name="questiondown" unicode="&#xbf;" horiz-adv-x="511" 
d="M337 252c0 -86 -12 -145 -78 -192c-40 -29 -97 -71 -97 -135s44 -94 105 -94c56 0 105 35 105 116h115c0 -142 -103 -219 -220 -219c-120 0 -220 77 -220 197c0 94 68 144 106 177c66 53 74 69 74 150h110zM366 372c0 -46 -37 -84 -84 -84c-48 0 -85 38 -85 84
c0 45 37 85 85 85c47 0 84 -40 84 -85z" />
    <glyph glyph-name="Agrave" unicode="&#xc0;" horiz-adv-x="571" 
d="M568 0h-121l-30 89h-263l-30 -89h-121l242 700h81zM189 192h193l-96 317zM158 886l52 85l249 -137l-52 -85z" />
    <glyph glyph-name="Aacute" unicode="&#xc1;" horiz-adv-x="571" 
d="M568 0h-121l-30 89h-263l-30 -89h-121l242 700h81zM189 192h193l-96 317zM188 730l-52 85l249 137l52 -85z" />
    <glyph glyph-name="Acircumflex" unicode="&#xc2;" horiz-adv-x="571" 
d="M568 0h-121l-30 89h-263l-30 -89h-121l242 700h81zM189 192h193l-96 317zM285 972l181 -156l-63 -70l-117 108l-116 -107l-64 69z" />
    <glyph glyph-name="Atilde" unicode="&#xc3;" horiz-adv-x="571" 
d="M568 0h-121l-30 89h-263l-30 -89h-121l242 700h81zM189 192h193l-96 317zM351 879c28 0 42 21 57 44l78 -41c-36 -64 -88 -88 -133 -88c-69 0 -102 44 -136 44c-28 0 -40 -19 -55 -44l-74 51c36 57 82 78 129 78c71 0 98 -44 134 -44z" />
    <glyph glyph-name="Adieresis" unicode="&#xc4;" horiz-adv-x="571" 
d="M568 0h-121l-30 89h-263l-30 -89h-121l242 700h81zM189 192h193l-96 317zM321 855c0 45 36 81 80 81c45 0 81 -36 81 -81c0 -44 -36 -80 -81 -80c-44 0 -80 36 -80 80zM92 855c0 45 36 81 80 81c45 0 81 -36 81 -81c0 -44 -36 -80 -81 -80c-44 0 -80 36 -80 80z" />
    <glyph glyph-name="Aring" unicode="&#xc5;" horiz-adv-x="571" 
d="M568 0h-121l-30 89h-263l-30 -89h-121l242 700h81zM189 192h193l-96 317zM286 976c68 0 123 -56 123 -123s-55 -123 -123 -123s-123 56 -123 123c0 68 55 123 123 123zM286 908c-31 0 -54 -24 -54 -55c0 -29 23 -53 54 -53s54 23 54 54s-23 54 -54 54z" />
    <glyph glyph-name="AE" unicode="&#xc6;" horiz-adv-x="883" 
d="M521 597v-198h289v-103h-289v-193h289v-103h-404v90h-237l-42 -90h-125l340 700h468v-103h-289zM406 193v399l-188 -399h188z" />
    <glyph glyph-name="Ccedilla" unicode="&#xc7;" horiz-adv-x="775" 
d="M617 445c-16 96 -94 169 -208 169c-161 0 -253 -127 -253 -263c0 -144 94 -265 265 -265c81 0 167 59 191 139h126c-30 -132 -151 -233 -313 -241v-43c10 9 24 13 42 13c36 0 74 -28 74 -81c0 -44 -33 -92 -102 -92c-15 0 -90 5 -101 81h64c6 -17 18 -25 37 -25
c23 0 38 15 38 36c0 23 -16 37 -36 37c-15 0 -25 -6 -32 -18h-54v94c-199 24 -317 183 -317 365c0 189 136 366 356 366c208 0 323 -121 344 -272h-121z" />
    <glyph glyph-name="Egrave" unicode="&#xc8;" horiz-adv-x="545" 
d="M188 597v-198h289v-103h-289v-193h289v-103h-404v700h404v-103h-289zM143 868l52 85l249 -137l-52 -85z" />
    <glyph glyph-name="Eacute" unicode="&#xc9;" horiz-adv-x="545" 
d="M188 597v-198h289v-103h-289v-193h289v-103h-404v700h404v-103h-289zM175 749l-52 85l249 137l52 -85z" />
    <glyph glyph-name="Ecircumflex" unicode="&#xca;" horiz-adv-x="545" 
d="M188 597v-198h289v-103h-289v-193h289v-103h-404v700h404v-103h-289zM279 972l181 -156l-63 -70l-117 108l-116 -107l-64 69z" />
    <glyph glyph-name="Edieresis" unicode="&#xcb;" horiz-adv-x="545" 
d="M188 597v-198h289v-103h-289v-193h289v-103h-404v700h404v-103h-289zM325 855c0 45 36 81 80 81c45 0 81 -36 81 -81c0 -44 -36 -80 -81 -80c-44 0 -80 36 -80 80zM96 855c0 45 36 81 80 81c45 0 81 -36 81 -81c0 -44 -36 -80 -81 -80c-44 0 -80 36 -80 80z" />
    <glyph glyph-name="Igrave" unicode="&#xcc;" horiz-adv-x="265" 
d="M73 700h119v-700h-119v700zM-18 867l52 85l249 -137l-52 -85z" />
    <glyph glyph-name="Iacute" unicode="&#xcd;" horiz-adv-x="265" 
d="M73 700h119v-700h-119v700zM34 730l-52 85l249 137l52 -85z" />
    <glyph glyph-name="Icircumflex" unicode="&#xce;" horiz-adv-x="265" 
d="M73 700h119v-700h-119v700zM132 972l181 -156l-63 -70l-117 108l-116 -107l-64 69z" />
    <glyph glyph-name="Idieresis" unicode="&#xcf;" horiz-adv-x="265" 
d="M73 700h119v-700h-119v700zM171 855c0 45 36 81 80 81c45 0 81 -36 81 -81c0 -44 -36 -80 -81 -80c-44 0 -80 36 -80 80zM-58 855c0 45 36 81 80 81c45 0 81 -36 81 -81c0 -44 -36 -80 -81 -80c-44 0 -80 36 -80 80z" />
    <glyph glyph-name="Eth" unicode="&#xd0;" horiz-adv-x="701" 
d="M300 700c229 0 363 -174 363 -350s-134 -350 -363 -350h-227v310h-120v82h120v308h227zM311 310h-123v-207h112c156 0 245 122 245 247s-89 247 -245 247h-112v-205h123v-82z" />
    <glyph glyph-name="Ntilde" unicode="&#xd1;" horiz-adv-x="664" 
d="M476 202v498h115v-700h-126l-277 498v-498h-115v700h126zM387 879c28 0 42 21 57 44l78 -41c-36 -64 -88 -88 -133 -88c-69 0 -102 44 -136 44c-28 0 -40 -19 -55 -44l-74 51c36 57 82 78 129 78c71 0 98 -44 134 -44z" />
    <glyph glyph-name="Ograve" unicode="&#xd2;" horiz-adv-x="800" 
d="M400 -17c-225 0 -362 177 -362 367s137 367 362 367s362 -177 362 -367s-137 -367 -362 -367zM400 86c149 0 241 128 241 264s-92 264 -241 264s-241 -128 -241 -264s92 -264 241 -264zM231 886l52 85l249 -137l-52 -85z" />
    <glyph glyph-name="Oacute" unicode="&#xd3;" horiz-adv-x="800" 
d="M400 -17c-225 0 -362 177 -362 367s137 367 362 367s362 -177 362 -367s-137 -367 -362 -367zM400 86c149 0 241 128 241 264s-92 264 -241 264s-241 -128 -241 -264s92 -264 241 -264zM316 749l-52 85l249 137l52 -85z" />
    <glyph glyph-name="Ocircumflex" unicode="&#xd4;" horiz-adv-x="800" 
d="M400 -17c-225 0 -362 177 -362 367s137 367 362 367s362 -177 362 -367s-137 -367 -362 -367zM400 86c149 0 241 128 241 264s-92 264 -241 264s-241 -128 -241 -264s92 -264 241 -264zM400 972l181 -156l-63 -70l-117 108l-116 -107l-64 69z" />
    <glyph glyph-name="Otilde" unicode="&#xd5;" horiz-adv-x="800" 
d="M400 -17c-225 0 -362 177 -362 367s137 367 362 367s362 -177 362 -367s-137 -367 -362 -367zM400 86c149 0 241 128 241 264s-92 264 -241 264s-241 -128 -241 -264s92 -264 241 -264zM471 879c28 0 42 21 57 44l78 -41c-36 -64 -88 -88 -133 -88c-69 0 -102 44 -136 44
c-28 0 -40 -19 -55 -44l-74 51c36 57 82 78 129 78c71 0 98 -44 134 -44z" />
    <glyph glyph-name="Odieresis" unicode="&#xd6;" horiz-adv-x="800" 
d="M400 -17c-225 0 -362 177 -362 367s137 367 362 367s362 -177 362 -367s-137 -367 -362 -367zM205 855c0 45 36 81 80 81c45 0 81 -36 81 -81c0 -44 -36 -80 -81 -80c-44 0 -80 36 -80 80zM434 855c0 45 36 81 80 81c45 0 81 -36 81 -81c0 -44 -36 -80 -81 -80
c-44 0 -80 36 -80 80zM159 350c0 -136 92 -264 241 -264s241 128 241 264s-92 264 -241 264s-241 -128 -241 -264z" />
    <glyph glyph-name="multiply" unicode="&#xd7;" 
d="M394 467l77 -77l-109 -109l105 -105l-69 -68l-104 104l-109 -108l-77 77l108 108l-103 104l68 69l104 -104z" />
    <glyph glyph-name="Oslash" unicode="&#xd8;" horiz-adv-x="800" 
d="M400 -17c-40 0 -76 5 -109 15l-39 -91l-76 34l38 90c-113 65 -176 190 -176 319c0 190 137 367 362 367c36 0 70 -5 102 -14l37 85l75 -34l-35 -82c116 -65 183 -191 183 -322c0 -190 -137 -367 -362 -367zM641 350c0 88 -38 172 -106 221l-203 -476c21 -6 43 -9 68 -9
c149 0 241 128 241 264zM159 350c0 -85 35 -166 99 -217l203 473c-20 5 -40 8 -61 8c-149 0 -241 -128 -241 -264z" />
    <glyph glyph-name="Ugrave" unicode="&#xd9;" horiz-adv-x="640" 
d="M68 700h115v-466c0 -80 53 -148 136 -148s138 68 138 148v466h115v-466c0 -136 -99 -251 -253 -251c-151 0 -251 115 -251 251v466zM184 886l52 85l249 -137l-52 -85z" />
    <glyph glyph-name="Uacute" unicode="&#xda;" horiz-adv-x="640" 
d="M68 700h115v-466c0 -80 53 -148 136 -148s138 68 138 148v466h115v-466c0 -136 -99 -251 -253 -251c-151 0 -251 115 -251 251v466zM197 749l-52 85l249 137l52 -85z" />
    <glyph glyph-name="Ucircumflex" unicode="&#xdb;" horiz-adv-x="640" 
d="M68 700h115v-466c0 -80 53 -148 136 -148s138 68 138 148v466h115v-466c0 -136 -99 -251 -253 -251c-151 0 -251 115 -251 251v466zM314 972l181 -156l-63 -70l-117 108l-116 -107l-64 69z" />
    <glyph glyph-name="Udieresis" unicode="&#xdc;" horiz-adv-x="640" 
d="M68 700h115v-466c0 -80 53 -148 136 -148s138 68 138 148v466h115v-466c0 -136 -99 -251 -253 -251c-151 0 -251 115 -251 251v466zM353 855c0 45 36 81 80 81c45 0 81 -36 81 -81c0 -44 -36 -80 -81 -80c-44 0 -80 36 -80 80zM124 855c0 45 36 81 80 81
c45 0 81 -36 81 -81c0 -44 -36 -80 -81 -80c-44 0 -80 36 -80 80z" />
    <glyph glyph-name="Yacute" unicode="&#xdd;" horiz-adv-x="602" 
d="M260 0h-126l139 280l-262 420h133l187 -301l150 301h126zM243 749l-52 85l249 137l52 -85z" />
    <glyph glyph-name="Thorn" unicode="&#xde;" horiz-adv-x="501" 
d="M73 700h103v-131h60c151 0 235 -111 235 -224s-84 -224 -235 -224h-60v-121h-103v700zM176 478v-266h60c85 0 132 66 132 133s-47 133 -132 133h-60z" />
    <glyph glyph-name="germandbls" unicode="&#xdf;" horiz-adv-x="565" 
d="M216 94c25 -5 60 -9 77 -9c59 0 123 36 123 118c0 43 -33 115 -127 115h-39v97h36c84 0 113 49 113 105s-53 95 -113 95c-64 0 -109 -50 -109 -122v-493h-109v493c0 130 90 219 218 219c117 0 222 -76 222 -192c0 -84 -42 -127 -103 -154c63 -24 120 -84 120 -163
c0 -150 -123 -215 -232 -215c-33 0 -64 7 -77 12v94z" />
    <glyph glyph-name="agrave" unicode="&#xe0;" horiz-adv-x="603" 
d="M530 466v-466h-109v63c-29 -47 -89 -75 -144 -75c-141 0 -239 113 -239 245s98 245 239 245c55 0 115 -28 144 -75v63h109zM283 85c83 0 138 68 138 148s-55 148 -138 148s-136 -68 -136 -148s53 -148 136 -148zM130 632l52 85l249 -137l-52 -85z" />
    <glyph glyph-name="aacute" unicode="&#xe1;" horiz-adv-x="603" 
d="M530 466v-466h-109v63c-29 -47 -89 -75 -144 -75c-141 0 -239 113 -239 245s98 245 239 245c55 0 115 -28 144 -75v63h109zM283 85c83 0 138 68 138 148s-55 148 -138 148s-136 -68 -136 -148s53 -148 136 -148zM189 495l-52 85l249 137l52 -85z" />
    <glyph glyph-name="acircumflex" unicode="&#xe2;" horiz-adv-x="603" 
d="M530 466v-466h-109v63c-29 -47 -89 -75 -144 -75c-141 0 -239 113 -239 245s98 245 239 245c55 0 115 -28 144 -75v63h109zM283 85c83 0 138 68 138 148s-55 148 -138 148s-136 -68 -136 -148s53 -148 136 -148zM283 749l181 -156l-63 -70l-117 108l-116 -107l-64 69z
" />
    <glyph glyph-name="atilde" unicode="&#xe3;" horiz-adv-x="603" 
d="M530 466v-466h-109v63c-29 -47 -89 -75 -144 -75c-141 0 -239 113 -239 245s98 245 239 245c55 0 115 -28 144 -75v63h109zM283 85c83 0 138 68 138 148s-55 148 -138 148s-136 -68 -136 -148s53 -148 136 -148zM371 658c28 0 42 21 57 44l78 -41
c-36 -64 -88 -88 -133 -88c-69 0 -102 44 -136 44c-28 0 -40 -19 -55 -44l-74 51c36 57 82 78 129 78c71 0 98 -44 134 -44z" />
    <glyph glyph-name="adieresis" unicode="&#xe4;" horiz-adv-x="603" 
d="M421 0v63c-29 -47 -89 -75 -144 -75c-141 0 -239 113 -239 245s98 245 239 245c55 0 115 -28 144 -75v63h109v-466h-109zM283 85c83 0 138 68 138 148s-55 148 -138 148s-136 -68 -136 -148s53 -148 136 -148zM396 534c-44 0 -80 36 -80 80c0 45 36 81 80 81
c45 0 81 -36 81 -81c0 -44 -36 -80 -81 -80zM87 614c0 45 36 81 80 81c45 0 81 -36 81 -81c0 -44 -36 -80 -81 -80c-44 0 -80 36 -80 80z" />
    <glyph glyph-name="aring" unicode="&#xe5;" horiz-adv-x="603" 
d="M530 466v-466h-109v63c-29 -47 -89 -75 -144 -75c-141 0 -239 113 -239 245s98 245 239 245c55 0 115 -28 144 -75v63h109zM283 85c83 0 138 68 138 148s-55 148 -138 148s-136 -68 -136 -148s53 -148 136 -148zM280 509c-71 0 -128 60 -128 128c0 72 57 129 128 129
c72 0 129 -60 129 -129c0 -68 -57 -128 -129 -128zM280 701c-35 0 -61 -29 -61 -64c0 -33 26 -61 61 -61s62 28 62 63s-26 62 -62 62z" />
    <glyph glyph-name="ae" unicode="&#xe6;" horiz-adv-x="912" 
d="M530 466v-18c33 19 74 30 121 30c121 0 216 -91 216 -210c0 -16 0 -37 -5 -68h-330c0 -67 35 -121 122 -121c62 0 85 28 99 61h110c-16 -80 -89 -152 -209 -152c-51 0 -91 12 -124 31v-19h-109v63c-29 -47 -89 -75 -144 -75c-141 0 -239 113 -239 245s98 245 239 245
c55 0 115 -28 144 -75v63h109zM648 387c-64 0 -115 -37 -115 -106h228c0 64 -46 106 -113 106zM283 85c83 0 138 68 138 148c0 83 -55 148 -138 148s-136 -68 -136 -148s53 -148 136 -148z" />
    <glyph glyph-name="ccedilla" unicode="&#xe7;" horiz-adv-x="534" 
d="M223 -7c-120 24 -183 127 -183 240c0 126 81 245 232 245c152 0 213 -92 221 -182h-109c-7 51 -35 85 -110 85c-84 0 -125 -69 -125 -148c0 -80 39 -148 132 -148c64 0 89 28 104 75h109c-16 -93 -78 -163 -201 -171v-48c10 9 24 13 42 13c36 0 74 -28 74 -81
c0 -44 -33 -92 -102 -92c-15 0 -90 5 -101 81h64c6 -17 18 -25 37 -25c23 0 38 15 38 36c0 23 -16 37 -36 37c-15 0 -25 -6 -32 -18h-54v101z" />
    <glyph glyph-name="egrave" unicode="&#xe8;" horiz-adv-x="531" 
d="M148 200c5 -67 34 -121 125 -121c63 0 86 28 99 61h110c-13 -80 -90 -152 -209 -152c-156 0 -233 108 -233 245c0 140 83 245 230 245c121 0 216 -91 216 -210c0 -16 0 -37 -5 -68h-333zM267 396c-68 0 -119 -39 -119 -115h232c0 72 -46 115 -113 115zM145 632l52 85
l249 -137l-52 -85z" />
    <glyph glyph-name="eacute" unicode="&#xe9;" horiz-adv-x="531" 
d="M148 200c5 -67 34 -121 125 -121c63 0 86 28 99 61h110c-13 -80 -90 -152 -209 -152c-156 0 -233 108 -233 245c0 140 83 245 230 245c121 0 216 -91 216 -210c0 -16 0 -37 -5 -68h-333zM267 396c-68 0 -119 -39 -119 -115h232c0 72 -46 115 -113 115zM164 495l-52 85
l249 137l52 -85z" />
    <glyph glyph-name="ecircumflex" unicode="&#xea;" horiz-adv-x="531" 
d="M148 200c5 -67 34 -121 125 -121c63 0 86 28 99 61h110c-13 -80 -90 -152 -209 -152c-156 0 -233 108 -233 245c0 140 83 245 230 245c121 0 216 -91 216 -210c0 -16 0 -37 -5 -68h-333zM267 396c-68 0 -119 -39 -119 -115h232c0 72 -46 115 -113 115zM269 749l181 -156
l-63 -70l-117 108l-116 -107l-64 69z" />
    <glyph glyph-name="edieresis" unicode="&#xeb;" horiz-adv-x="531" 
d="M148 200c5 -67 34 -121 125 -121c63 0 86 28 99 61h110c-13 -80 -90 -152 -209 -152c-156 0 -233 108 -233 245c0 140 83 245 230 245c121 0 216 -91 216 -210c0 -16 0 -37 -5 -68h-333zM267 396c-68 0 -119 -39 -119 -115h232c0 72 -46 115 -113 115zM302 614
c0 45 36 81 80 81c45 0 81 -36 81 -81c0 -44 -36 -80 -81 -80c-44 0 -80 36 -80 80zM73 614c0 45 36 81 80 81c45 0 81 -36 81 -81c0 -44 -36 -80 -81 -80c-44 0 -80 36 -80 80z" />
    <glyph glyph-name="igrave" unicode="&#xec;" horiz-adv-x="255" 
d="M73 466h109v-466h-109v466zM-23 652l52 85l249 -137l-52 -85z" />
    <glyph glyph-name="iacute" unicode="&#xed;" horiz-adv-x="255" 
d="M73 466h109v-466h-109v466zM29 515l-52 85l249 137l52 -85z" />
    <glyph glyph-name="icircumflex" unicode="&#xee;" horiz-adv-x="255" 
d="M73 466h109v-466h-109v466zM127 749l181 -156l-63 -70l-117 108l-116 -107l-64 69z" />
    <glyph glyph-name="idieresis" unicode="&#xef;" horiz-adv-x="255" 
d="M73 466h109v-466h-109v466zM153 614c0 45 36 81 80 81c45 0 81 -36 81 -81c0 -44 -36 -80 -81 -80c-44 0 -80 36 -80 80zM-36 614c0 45 36 81 80 81c45 0 81 -36 81 -81c0 -44 -36 -80 -81 -80c-44 0 -80 36 -80 80z" />
    <glyph glyph-name="eth" unicode="&#xf0;" horiz-adv-x="566" 
d="M283 -12c-148 0 -245 113 -245 245s97 245 245 245h9l-37 61l-98 -55l-37 65l94 51l-61 100h132l27 -46l83 46l36 -63l-80 -45l134 -214c27 -43 45 -92 45 -145c0 -132 -98 -245 -247 -245zM283 85c83 0 138 68 138 148s-55 148 -138 148s-136 -68 -136 -148
s53 -148 136 -148z" />
    <glyph glyph-name="ntilde" unicode="&#xf1;" horiz-adv-x="569" 
d="M73 466h109v-65c29 51 83 77 152 77c68 0 113 -24 140 -63c23 -35 30 -74 30 -138v-277h-109v241c0 80 -24 141 -101 141c-76 0 -112 -61 -112 -141v-241h-109v466zM359 658c28 0 42 21 57 44l78 -41c-36 -64 -88 -88 -133 -88c-69 0 -102 44 -136 44
c-28 0 -40 -19 -55 -44l-74 51c36 57 82 78 129 78c71 0 98 -44 134 -44z" />
    <glyph glyph-name="ograve" unicode="&#xf2;" horiz-adv-x="568" 
d="M283 -12c-148 0 -245 113 -245 245s97 245 245 245c149 0 247 -113 247 -245s-98 -245 -247 -245zM283 85c83 0 138 68 138 148s-55 148 -138 148s-136 -68 -136 -148s53 -148 136 -148zM143 632l52 85l249 -137l-52 -85z" />
    <glyph glyph-name="oacute" unicode="&#xf3;" horiz-adv-x="568" 
d="M283 -12c-148 0 -245 113 -245 245s97 245 245 245c149 0 247 -113 247 -245s-98 -245 -247 -245zM283 85c83 0 138 68 138 148s-55 148 -138 148s-136 -68 -136 -148s53 -148 136 -148zM156 495l-52 85l249 137l52 -85z" />
    <glyph glyph-name="ocircumflex" unicode="&#xf4;" horiz-adv-x="568" 
d="M283 -12c-148 0 -245 113 -245 245s97 245 245 245c149 0 247 -113 247 -245s-98 -245 -247 -245zM283 85c83 0 138 68 138 148s-55 148 -138 148s-136 -68 -136 -148s53 -148 136 -148zM282 749l181 -156l-63 -70l-117 108l-116 -107l-64 69z" />
    <glyph glyph-name="otilde" unicode="&#xf5;" horiz-adv-x="568" 
d="M283 -12c-148 0 -245 113 -245 245s97 245 245 245c149 0 247 -113 247 -245s-98 -245 -247 -245zM283 85c83 0 138 68 138 148s-55 148 -138 148s-136 -68 -136 -148s53 -148 136 -148zM347 658c28 0 42 21 57 44l78 -41c-36 -64 -88 -88 -133 -88
c-69 0 -102 44 -136 44c-28 0 -40 -19 -55 -44l-74 51c36 57 82 78 129 78c71 0 98 -44 134 -44z" />
    <glyph glyph-name="odieresis" unicode="&#xf6;" horiz-adv-x="568" 
d="M169 534c-44 0 -80 36 -80 80c0 45 36 81 80 81c45 0 81 -36 81 -81c0 -44 -36 -80 -81 -80zM318 614c0 45 36 81 80 81c45 0 81 -36 81 -81c0 -44 -36 -80 -81 -80c-44 0 -80 36 -80 80zM283 -12c-148 0 -245 113 -245 245s97 245 245 245c149 0 247 -113 247 -245
s-98 -245 -247 -245zM283 85c83 0 138 68 138 148s-55 148 -138 148s-136 -68 -136 -148s53 -148 136 -148z" />
    <glyph glyph-name="divide" unicode="&#xf7;" 
d="M88 186v97h404v-97h-404zM210 403c0 45 36 81 80 81c45 0 81 -36 81 -81c0 -44 -36 -80 -81 -80c-44 0 -80 36 -80 80zM210 74c0 45 36 81 80 81c45 0 81 -36 81 -81c0 -44 -36 -80 -81 -80c-44 0 -80 36 -80 80z" />
    <glyph glyph-name="oslash" unicode="&#xf8;" horiz-adv-x="568" 
d="M410 446c76 -43 120 -124 120 -213c0 -132 -98 -245 -247 -245c-25 0 -47 3 -68 9l-34 -80l-66 28l34 80c-71 44 -111 121 -111 208c0 132 97 245 245 245c21 0 41 -3 60 -7l34 79l66 -28zM283 85c83 0 138 68 138 148c0 47 -19 90 -52 118l-114 -264c9 -3 17 -2 28 -2z
M147 233c0 -45 15 -83 44 -112l112 258c-7 1 -13 2 -20 2c-83 0 -136 -68 -136 -148z" />
    <glyph glyph-name="ugrave" unicode="&#xf9;" horiz-adv-x="569" 
d="M496 0h-109v65c-29 -51 -83 -77 -152 -77c-68 0 -113 24 -140 63c-23 35 -30 74 -30 138v277h109v-241c0 -80 24 -141 101 -141c76 0 112 61 112 141v241h109v-466zM134 632l52 85l249 -137l-52 -85z" />
    <glyph glyph-name="uacute" unicode="&#xfa;" horiz-adv-x="569" 
d="M496 0h-109v65c-29 -51 -83 -77 -152 -77c-68 0 -113 24 -140 63c-23 35 -30 74 -30 138v277h109v-241c0 -80 24 -141 101 -141c76 0 112 61 112 141v241h109v-466zM180 495l-52 85l249 137l52 -85z" />
    <glyph glyph-name="ucircumflex" unicode="&#xfb;" horiz-adv-x="569" 
d="M496 0h-109v65c-29 -51 -83 -77 -152 -77c-68 0 -113 24 -140 63c-23 35 -30 74 -30 138v277h109v-241c0 -80 24 -141 101 -141c76 0 112 61 112 141v241h109v-466zM285 749l181 -156l-63 -70l-117 108l-116 -107l-64 69z" />
    <glyph glyph-name="udieresis" unicode="&#xfc;" horiz-adv-x="569" 
d="M496 0h-109v65c-29 -51 -83 -77 -152 -77c-68 0 -113 24 -140 63c-23 35 -30 74 -30 138v277h109v-241c0 -80 24 -141 101 -141c76 0 112 61 112 141v241h109v-466zM316 614c0 45 36 81 80 81c45 0 81 -36 81 -81c0 -44 -36 -80 -81 -80c-44 0 -80 36 -80 80zM87 614
c0 45 36 81 80 81c45 0 81 -36 81 -81c0 -44 -36 -80 -81 -80c-44 0 -80 36 -80 80z" />
    <glyph glyph-name="yacute" unicode="&#xfd;" horiz-adv-x="578" 
d="M283 -245c-63 0 -116 16 -155 48s-62 80 -63 144h110c5 -68 53 -100 110 -100c67 0 114 24 114 111v107c-29 -51 -83 -77 -152 -77c-68 0 -113 24 -140 63c-23 35 -30 74 -30 138v277h109v-241c0 -80 24 -141 101 -141c76 0 112 61 112 141v241h109v-508
c0 -67 -19 -118 -58 -153c-38 -33 -94 -50 -167 -50zM192 495l-52 85l249 137l52 -85z" />
    <glyph glyph-name="thorn" unicode="&#xfe;" horiz-adv-x="599" 
d="M73 -234v934h109v-297c29 47 89 75 144 75c141 0 239 -113 239 -245s-98 -245 -239 -245c-55 0 -115 28 -144 75v-297h-109zM320 85c83 0 136 68 136 148s-53 148 -136 148c-85 0 -138 -68 -138 -148s53 -148 138 -148z" />
    <glyph glyph-name="ydieresis" unicode="&#xff;" horiz-adv-x="578" 
d="M283 -245c-63 0 -116 16 -155 48s-62 80 -63 144h110c5 -68 53 -100 110 -100c67 0 114 24 114 111v107c-29 -51 -83 -77 -152 -77c-68 0 -113 24 -140 63c-23 35 -30 74 -30 138v277h109v-241c0 -80 24 -141 101 -141c76 0 112 61 112 141v241h109v-508
c0 -67 -19 -118 -58 -153c-38 -33 -94 -50 -167 -50zM337 614c0 43 33 77 76 77s77 -34 77 -77s-34 -76 -77 -76s-76 33 -76 76zM108 614c0 43 33 77 76 77s77 -34 77 -77s-34 -76 -77 -76s-76 33 -76 76z" />
    <glyph glyph-name="Amacron" unicode="&#x100;" horiz-adv-x="571" 
d="M568 0h-121l-30 89h-263l-30 -89h-121l242 700h81zM189 192h193l-96 317zM464 803h-358v97h358v-97z" />
    <glyph glyph-name="amacron" unicode="&#x101;" horiz-adv-x="603" 
d="M530 466v-466h-109v63c-29 -47 -89 -75 -144 -75c-141 0 -239 113 -239 245s98 245 239 245c55 0 115 -28 144 -75v63h109zM283 85c83 0 138 68 138 148s-55 148 -138 148s-136 -68 -136 -148s53 -148 136 -148zM455 566h-358v97h358v-97z" />
    <glyph glyph-name="Abreve" unicode="&#x102;" horiz-adv-x="571" 
d="M568 0h-121l-30 89h-263l-30 -89h-121l242 700h81zM189 192h193l-96 317zM286 862c51 0 84 28 97 72h102c-16 -88 -98 -156 -199 -156c-105 0 -183 68 -199 156h102c13 -44 46 -72 97 -72z" />
    <glyph glyph-name="abreve" unicode="&#x103;" horiz-adv-x="603" 
d="M530 466v-466h-109v63c-29 -47 -89 -75 -144 -75c-141 0 -239 113 -239 245s98 245 239 245c55 0 115 -28 144 -75v63h109zM283 85c83 0 138 68 138 148s-55 148 -138 148s-136 -68 -136 -148s53 -148 136 -148zM281 628c51 0 84 28 97 72h102
c-16 -88 -98 -156 -199 -156c-105 0 -183 68 -199 156h102c13 -44 46 -72 97 -72z" />
    <glyph glyph-name="Aogonek" unicode="&#x104;" horiz-adv-x="571" 
d="M189 192h193l-96 317zM569 -197c-21 -7 -56 -15 -91 -15c-76 0 -115 44 -115 97c0 43 31 80 84 115l-30 89h-263l-30 -89h-121l242 700h81l242 -700h-45c-27 -19 -56 -38 -56 -78c0 -28 17 -53 46 -53c16 0 37 4 56 12v-78z" />
    <glyph glyph-name="aogonek" unicode="&#x105;" horiz-adv-x="603" 
d="M530 0h-28c-31 -21 -66 -45 -66 -88c0 -23 14 -43 41 -43c16 0 37 4 56 12v-78c-21 -7 -56 -15 -91 -15c-80 0 -120 44 -120 97c0 45 34 80 99 120v58c-29 -47 -89 -75 -144 -75c-141 0 -239 113 -239 245s98 245 239 245c55 0 115 -28 144 -75v63h109v-466zM283 85
c83 0 138 68 138 148s-55 148 -138 148s-136 -68 -136 -148s53 -148 136 -148z" />
    <glyph glyph-name="Cacute" unicode="&#x106;" horiz-adv-x="775" 
d="M738 225c-32 -136 -159 -242 -332 -242c-228 0 -368 172 -368 368c0 189 136 366 356 366c208 0 323 -121 344 -272h-121c-16 96 -94 169 -208 169c-161 0 -253 -127 -253 -263c0 -144 94 -265 265 -265c81 0 167 59 191 139h126zM289 749l-52 85l249 137l52 -85z" />
    <glyph glyph-name="cacute" unicode="&#x107;" horiz-adv-x="534" 
d="M384 296c-7 51 -35 85 -110 85c-84 0 -125 -69 -125 -148c0 -80 39 -148 132 -148c64 0 89 28 104 75h109c-16 -97 -85 -172 -221 -172c-152 0 -233 118 -233 245c0 126 81 245 232 245c152 0 213 -92 221 -182h-109zM168 495l-52 85l249 137l52 -85z" />
    <glyph glyph-name="Ccircumflex" unicode="&#x108;" horiz-adv-x="775" 
d="M738 225c-32 -136 -159 -242 -332 -242c-228 0 -368 172 -368 368c0 189 136 366 356 366c208 0 323 -121 344 -272h-121c-16 96 -94 169 -208 169c-161 0 -253 -127 -253 -263c0 -144 94 -265 265 -265c81 0 167 59 191 139h126zM396 972l181 -156l-63 -70l-117 108
l-116 -107l-64 69z" />
    <glyph glyph-name="ccircumflex" unicode="&#x109;" horiz-adv-x="534" 
d="M384 296c-7 51 -35 85 -110 85c-84 0 -125 -69 -125 -148c0 -80 39 -148 132 -148c64 0 89 28 104 75h109c-16 -97 -85 -172 -221 -172c-152 0 -233 118 -233 245c0 126 81 245 232 245c152 0 213 -92 221 -182h-109zM278 749l181 -156l-63 -70l-117 108l-116 -107
l-64 69z" />
    <glyph glyph-name="Cdotaccent" unicode="&#x10a;" horiz-adv-x="775" 
d="M738 225c-32 -136 -159 -242 -332 -242c-228 0 -368 172 -368 368c0 189 136 366 356 366c208 0 323 -121 344 -272h-121c-16 96 -94 169 -208 169c-161 0 -253 -127 -253 -263c0 -144 94 -265 265 -265c81 0 167 59 191 139h126zM314 865c0 45 36 81 80 81
c45 0 81 -36 81 -81c0 -44 -36 -80 -81 -80c-44 0 -80 36 -80 80z" />
    <glyph glyph-name="cdotaccent" unicode="&#x10b;" horiz-adv-x="534" 
d="M384 296c-7 51 -35 85 -110 85c-84 0 -125 -69 -125 -148c0 -80 39 -148 132 -148c64 0 89 28 104 75h109c-16 -97 -85 -172 -221 -172c-152 0 -233 118 -233 245c0 126 81 245 232 245c152 0 213 -92 221 -182h-109zM193 613c0 45 36 81 80 81c45 0 81 -36 81 -81
c0 -44 -36 -80 -81 -80c-44 0 -80 36 -80 80z" />
    <glyph glyph-name="Ccaron" unicode="&#x10c;" horiz-adv-x="775" 
d="M738 225c-32 -136 -159 -242 -332 -242c-228 0 -368 172 -368 368c0 189 136 366 356 366c208 0 323 -121 344 -272h-121c-16 96 -94 169 -208 169c-161 0 -253 -127 -253 -263c0 -144 94 -265 265 -265c81 0 167 59 191 139h126zM206 902l64 69l116 -107l117 108l63 -70
l-181 -156z" />
    <glyph glyph-name="ccaron" unicode="&#x10d;" horiz-adv-x="534" 
d="M384 296c-7 51 -35 85 -110 85c-84 0 -125 -69 -125 -148c0 -80 39 -148 132 -148c64 0 89 28 104 75h109c-16 -97 -85 -172 -221 -172c-152 0 -233 118 -233 245c0 126 81 245 232 245c152 0 213 -92 221 -182h-109zM95 674l64 69l116 -107l117 108l63 -70l-181 -156z
" />
    <glyph glyph-name="Dcaron" unicode="&#x10e;" horiz-adv-x="701" 
d="M300 700c232 0 363 -174 363 -350s-131 -350 -363 -350h-227v700h227zM188 597v-494h112c156 0 245 122 245 247s-89 247 -245 247h-112zM146 902l64 69l116 -107l117 108l63 -70l-181 -156z" />
    <glyph glyph-name="dcaron" unicode="&#x10f;" horiz-adv-x="751" 
d="M283 85c83 0 138 68 138 148s-55 148 -138 148s-136 -68 -136 -148s53 -148 136 -148zM421 700h109v-700h-109v63c-29 -47 -89 -75 -144 -75c-141 0 -239 113 -239 245s98 245 239 245c55 0 115 -28 144 -75v297zM588 659c0 43 34 78 77 78c52 0 86 -39 86 -99
c0 -117 -58 -159 -159 -160v49c33 0 54 8 69 20s21 27 24 42c-3 -3 -12 -5 -20 -5c-47 0 -77 32 -77 75z" />
    <glyph glyph-name="Dcroat" unicode="&#x110;" horiz-adv-x="701" 
d="M300 700c232 0 363 -174 363 -350s-131 -350 -363 -350h-227v302h-119v97h119v301h227zM312 302h-124v-199h112c156 0 245 122 245 247s-89 247 -245 247h-112v-198h124v-97z" />
    <glyph glyph-name="dslash" unicode="&#x111;" horiz-adv-x="603" 
d="M571 530h-41v-530h-109v63c-29 -47 -89 -75 -144 -75c-141 0 -239 113 -239 245s98 245 239 245c55 0 115 -28 144 -75v127h-108v72h108v98h109v-98h41v-72zM283 85c83 0 138 68 138 148s-55 148 -138 148s-136 -68 -136 -148s53 -148 136 -148z" />
    <glyph glyph-name="Emacron" unicode="&#x112;" horiz-adv-x="545" 
d="M188 597v-198h289v-103h-289v-193h289v-103h-404v700h404v-103h-289zM452 803h-358v97h358v-97z" />
    <glyph glyph-name="emacron" unicode="&#x113;" horiz-adv-x="531" 
d="M148 200c5 -67 34 -121 125 -121c63 0 86 28 99 61h110c-13 -80 -90 -152 -209 -152c-156 0 -233 108 -233 245c0 140 83 245 230 245c121 0 216 -91 216 -210c0 -16 0 -37 -5 -68h-333zM267 396c-68 0 -119 -39 -119 -115h232c0 72 -46 115 -113 115zM455 566h-358v97
h358v-97z" />
    <glyph glyph-name="Ebreve" unicode="&#x114;" horiz-adv-x="545" 
d="M188 597v-198h289v-103h-289v-193h289v-103h-404v700h404v-103h-289zM277 862c51 0 84 28 97 72h102c-16 -88 -98 -156 -199 -156c-105 0 -183 68 -199 156h102c13 -44 46 -72 97 -72z" />
    <glyph glyph-name="ebreve" unicode="&#x115;" horiz-adv-x="531" 
d="M148 200c5 -67 34 -121 125 -121c63 0 86 28 99 61h110c-13 -80 -90 -152 -209 -152c-156 0 -233 108 -233 245c0 140 83 245 230 245c121 0 216 -91 216 -210c0 -16 0 -37 -5 -68h-333zM267 396c-68 0 -119 -39 -119 -115h232c0 72 -46 115 -113 115zM268 628
c51 0 84 28 97 72h102c-16 -88 -98 -156 -199 -156c-105 0 -183 68 -199 156h102c13 -44 46 -72 97 -72z" />
    <glyph glyph-name="Edotaccent" unicode="&#x116;" horiz-adv-x="545" 
d="M188 597v-198h289v-103h-289v-193h289v-103h-404v700h404v-103h-289zM192 865c0 45 36 81 80 81c45 0 81 -36 81 -81c0 -44 -36 -80 -81 -80c-44 0 -80 36 -80 80z" />
    <glyph glyph-name="edotaccent" unicode="&#x117;" horiz-adv-x="531" 
d="M148 200c5 -67 34 -121 125 -121c63 0 86 28 99 61h110c-13 -80 -90 -152 -209 -152c-156 0 -233 108 -233 245c0 140 83 245 230 245c121 0 216 -91 216 -210c0 -16 0 -37 -5 -68h-333zM267 396c-68 0 -119 -39 -119 -115h232c0 72 -46 115 -113 115zM185 613
c0 45 36 81 80 81c45 0 81 -36 81 -81c0 -44 -36 -80 -81 -80c-44 0 -80 36 -80 80z" />
    <glyph glyph-name="Eogonek" unicode="&#x118;" horiz-adv-x="545" 
d="M73 0v700h404v-103h-289v-198h289v-103h-289v-193h289v-103h-46c-27 -19 -56 -38 -56 -78c0 -28 17 -53 46 -53c16 0 37 4 56 12v-78c-21 -7 -56 -15 -91 -15c-76 0 -115 44 -115 97c0 43 26 76 79 115h-277z" />
    <glyph glyph-name="eogonek" unicode="&#x119;" horiz-adv-x="531" 
d="M367 -197c-21 -7 -56 -15 -91 -15c-76 0 -115 44 -115 97c0 40 22 72 67 107c-127 19 -188 126 -188 241c0 140 83 245 230 245c121 0 216 -91 216 -210c0 -16 0 -37 -5 -68h-330c0 -67 35 -121 122 -121c62 0 85 28 99 61h110c-13 -71 -77 -139 -175 -150
c-23 -16 -42 -36 -42 -68c0 -28 17 -53 46 -53c16 0 37 4 56 12v-78zM267 396c-68 0 -119 -39 -119 -115h232c0 72 -46 115 -113 115z" />
    <glyph glyph-name="Ecaron" unicode="&#x11a;" horiz-adv-x="545" 
d="M188 597v-198h289v-103h-289v-193h289v-103h-404v700h404v-103h-289zM91 902l64 69l116 -107l117 108l63 -70l-181 -156z" />
    <glyph glyph-name="ecaron" unicode="&#x11b;" horiz-adv-x="531" 
d="M148 200c5 -67 34 -121 125 -121c63 0 86 28 99 61h110c-13 -80 -90 -152 -209 -152c-156 0 -233 108 -233 245c0 140 83 245 230 245c121 0 216 -91 216 -210c0 -16 0 -37 -5 -68h-333zM267 396c-68 0 -119 -39 -119 -115h232c0 72 -46 115 -113 115zM86 674l64 69
l116 -107l117 108l63 -70l-181 -156z" />
    <glyph glyph-name="Gcircumflex" unicode="&#x11c;" horiz-adv-x="838" 
d="M483 351h333v-103h-77c-32 -156 -146 -265 -341 -265c-229 0 -360 177 -360 367s139 367 360 367c164 0 287 -103 298 -227h-116c-13 69 -84 124 -182 124c-150 0 -242 -127 -242 -264s85 -264 257 -264c119 0 191 76 204 162h-134v103zM399 972l181 -156l-63 -70
l-117 108l-116 -107l-64 69z" />
    <glyph glyph-name="gcircumflex" unicode="&#x11d;" horiz-adv-x="600" 
d="M530 -23c0 -77 -22 -133 -66 -170c-43 -36 -104 -52 -183 -52c-77 0 -134 24 -173 60c-39 35 -59 83 -62 132h110c5 -51 46 -95 125 -95c88 0 140 37 140 125v86c-29 -47 -89 -75 -144 -75c-141 0 -239 113 -239 245s98 245 239 245c55 0 115 -28 144 -75v63h109v-489z
M283 381c-83 0 -136 -68 -136 -148s53 -148 136 -148s138 68 138 148s-55 148 -138 148zM277 749l181 -156l-63 -70l-117 108l-116 -107l-64 69z" />
    <glyph glyph-name="Gbreve" unicode="&#x11e;" horiz-adv-x="838" 
d="M483 351h333v-103h-77c-32 -156 -146 -265 -341 -265c-229 0 -360 177 -360 367s139 367 360 367c164 0 287 -103 298 -227h-116c-13 69 -84 124 -182 124c-150 0 -242 -127 -242 -264s85 -264 257 -264c119 0 191 76 204 162h-134v103zM398 862c51 0 84 28 97 72h102
c-16 -88 -98 -156 -199 -156c-105 0 -183 68 -199 156h102c13 -44 46 -72 97 -72z" />
    <glyph glyph-name="gbreve" unicode="&#x11f;" horiz-adv-x="600" 
d="M530 -23c0 -77 -22 -133 -66 -170c-43 -36 -104 -52 -183 -52c-77 0 -134 24 -173 60c-39 35 -59 83 -62 132h110c5 -51 46 -95 125 -95c88 0 140 37 140 125v86c-29 -47 -89 -75 -144 -75c-141 0 -239 113 -239 245s98 245 239 245c55 0 115 -28 144 -75v63h109v-489z
M283 381c-83 0 -136 -68 -136 -148s53 -148 136 -148s138 68 138 148s-55 148 -138 148zM281 628c51 0 84 28 97 72h102c-16 -88 -98 -156 -199 -156c-105 0 -183 68 -199 156h102c13 -44 46 -72 97 -72z" />
    <glyph glyph-name="Gdotaccent" unicode="&#x120;" horiz-adv-x="838" 
d="M483 351h333v-103h-77c-32 -156 -146 -265 -341 -265c-229 0 -360 177 -360 367s139 367 360 367c164 0 287 -103 298 -227h-116c-13 69 -84 124 -182 124c-150 0 -242 -127 -242 -264s85 -264 257 -264c119 0 191 76 204 162h-134v103zM318 865c0 45 36 81 80 81
c45 0 81 -36 81 -81c0 -44 -36 -80 -81 -80c-44 0 -80 36 -80 80z" />
    <glyph glyph-name="gdotaccent" unicode="&#x121;" horiz-adv-x="600" 
d="M530 -23c0 -77 -22 -133 -66 -170c-43 -36 -104 -52 -183 -52c-77 0 -134 24 -173 60c-39 35 -59 83 -62 132h110c5 -51 46 -95 125 -95c88 0 140 37 140 125v86c-29 -47 -89 -75 -144 -75c-141 0 -239 113 -239 245s98 245 239 245c55 0 115 -28 144 -75v63h109v-489z
M283 381c-83 0 -136 -68 -136 -148s53 -148 136 -148s138 68 138 148s-55 148 -138 148zM189 613c0 45 36 81 80 81c45 0 81 -36 81 -81c0 -44 -36 -80 -81 -80c-44 0 -80 36 -80 80z" />
    <glyph glyph-name="Gcommaaccent" unicode="&#x122;" horiz-adv-x="838" 
d="M483 351h333v-103h-77c-32 -156 -146 -265 -341 -265c-229 0 -360 177 -360 367s139 367 360 367c164 0 287 -103 298 -227h-116c-13 69 -84 124 -182 124c-150 0 -242 -127 -242 -264s85 -264 257 -264c119 0 191 76 204 162h-134v103zM334 -93c0 36 29 65 64 65
c43 0 73 -34 73 -83c0 -99 -50 -133 -134 -134v41c28 0 46 5 59 16c11 9 18 21 19 36c-3 -3 -10 -5 -17 -5c-39 0 -64 29 -64 64z" />
    <glyph glyph-name="gcommaaccent" unicode="&#x123;" horiz-adv-x="600" 
d="M283 381c-83 0 -136 -68 -136 -148s53 -148 136 -148s138 68 138 148s-55 148 -138 148zM530 -23c0 -77 -22 -133 -66 -170c-43 -36 -104 -52 -183 -52c-77 0 -134 24 -173 60c-39 35 -59 83 -62 132h110c5 -51 46 -95 125 -95c88 0 140 37 140 125v86
c-29 -47 -89 -75 -144 -75c-141 0 -239 113 -239 245s98 245 239 245c55 0 115 -28 144 -75v63h109v-489zM352 613c0 -43 -34 -78 -77 -78c-52 0 -86 39 -86 99c0 117 58 159 159 160v-49c-31 0 -54 -7 -69 -20c-15 -11 -21 -27 -24 -42c3 3 12 5 20 5c47 0 77 -32 77 -75z
" />
    <glyph glyph-name="Hcircumflex" unicode="&#x124;" horiz-adv-x="665" 
d="M477 296h-289v-296h-115v700h115v-301h289v301h115v-700h-115v296zM332 972l181 -156l-63 -70l-117 108l-116 -107l-64 69z" />
    <glyph glyph-name="hcircumflex" unicode="&#x125;" horiz-adv-x="569" 
d="M73 700h109v-299c29 51 83 77 152 77c68 0 113 -24 140 -63c23 -35 30 -74 30 -138v-277h-109v241c0 80 -24 141 -101 141c-76 0 -112 -61 -112 -141v-241h-109v700zM285 972l181 -156l-63 -70l-117 108l-116 -107l-64 69z" />
    <glyph glyph-name="Hbar" unicode="&#x126;" horiz-adv-x="665" 
d="M477 496h-289v-97h289v97zM188 700v-122h289v122h115v-700h-115v296h-289v-296h-115v700h115z" />
    <glyph glyph-name="hbar" unicode="&#x127;" horiz-adv-x="569" 
d="M322 530h-140v-129c29 51 83 77 152 77c68 0 113 -24 140 -63c23 -35 30 -74 30 -138v-277h-109v241c0 80 -24 141 -101 141c-76 0 -112 -61 -112 -141v-241h-109v530h-73v72h73v98h109v-98h140v-72z" />
    <glyph glyph-name="Itilde" unicode="&#x128;" horiz-adv-x="265" 
d="M73 700h119v-700h-119v700zM195 879c28 0 42 21 57 44l78 -41c-36 -64 -88 -88 -133 -88c-69 0 -102 44 -136 44c-28 0 -40 -19 -55 -44l-74 51c36 57 82 78 129 78c71 0 98 -44 134 -44z" />
    <glyph glyph-name="itilde" unicode="&#x129;" horiz-adv-x="255" 
d="M73 466h109v-466h-109v466zM195 658c28 0 42 21 57 44l78 -41c-36 -64 -88 -88 -133 -88c-69 0 -102 44 -136 44c-28 0 -40 -19 -55 -44l-74 51c36 57 82 78 129 78c71 0 98 -44 134 -44z" />
    <glyph glyph-name="Imacron" unicode="&#x12a;" horiz-adv-x="265" 
d="M73 700h119v-700h-119v700zM312 803h-358v97h358v-97z" />
    <glyph glyph-name="imacron" unicode="&#x12b;" horiz-adv-x="255" 
d="M73 466h109v-466h-109v466zM306 565h-358v97h358v-97z" />
    <glyph glyph-name="Ibreve" unicode="&#x12c;" horiz-adv-x="265" 
d="M73 700h119v-700h-119v700zM133 862c51 0 84 28 97 72h102c-16 -88 -98 -156 -199 -156c-105 0 -183 68 -199 156h102c13 -44 46 -72 97 -72z" />
    <glyph glyph-name="ibreve" unicode="&#x12d;" horiz-adv-x="255" 
d="M73 466h109v-466h-109v466zM129 628c51 0 84 28 97 72h102c-16 -88 -98 -156 -199 -156c-105 0 -183 68 -199 156h102c13 -44 46 -72 97 -72z" />
    <glyph glyph-name="Iogonek" unicode="&#x12e;" horiz-adv-x="265" 
d="M192 0h-16c-27 -19 -56 -38 -56 -78c0 -28 17 -53 46 -53c16 0 37 4 56 12v-78c-21 -7 -56 -15 -91 -15c-76 0 -115 44 -115 97c0 43 26 76 79 115h-22v700h119v-700z" />
    <glyph glyph-name="iogonek" unicode="&#x12f;" horiz-adv-x="255" 
d="M215 -197c-21 -7 -56 -15 -91 -15c-76 0 -115 44 -115 97c0 43 26 76 79 115h-15v466h109v-466h-13c-27 -19 -56 -38 -56 -78c0 -28 17 -53 46 -53c16 0 37 4 56 12v-78zM47 636c0 45 36 81 80 81c45 0 81 -36 81 -81c0 -44 -36 -80 -81 -80c-44 0 -80 36 -80 80z" />
    <glyph glyph-name="Idot" unicode="&#x130;" horiz-adv-x="265" 
d="M73 700h119v-700h-119v700zM52 865c0 45 36 81 80 81c45 0 81 -36 81 -81c0 -44 -36 -80 -81 -80c-44 0 -80 36 -80 80z" />
    <glyph glyph-name="dotlessi" unicode="&#x131;" horiz-adv-x="238" 
d="M65 466h109v-466h-109v466z" />
    <glyph glyph-name="IJ" unicode="&#x132;" horiz-adv-x="801" 
d="M733 227c0 -136 -82 -244 -229 -244c-145 0 -227 109 -227 245h115c0 -84 36 -142 112 -142s114 57 114 141v473h115v-473zM73 700h119v-700h-119v700z" />
    <glyph glyph-name="ij" unicode="&#x133;" horiz-adv-x="502" 
d="M47 636c0 45 36 81 80 81c45 0 81 -36 81 -81c0 -44 -36 -80 -81 -80c-44 0 -80 36 -80 80zM182 466v-466h-109v466h109zM429 -109c0 -104 -50 -135 -98 -135c-35 0 -69 4 -84 11v90c21 -5 29 -6 38 -6c23 0 35 12 35 47v568h109v-575zM294 636c0 45 36 81 80 81
c45 0 81 -36 81 -81c0 -44 -36 -80 -81 -80c-44 0 -80 36 -80 80z" />
    <glyph glyph-name="Jcircumflex" unicode="&#x134;" horiz-adv-x="536" 
d="M468 227c0 -136 -82 -244 -229 -244c-145 0 -227 109 -227 245h115c0 -84 36 -142 112 -142s114 57 114 141v473h115v-473zM410 972l181 -156l-63 -70l-117 108l-116 -107l-64 69z" />
    <glyph glyph-name="jcircumflex" unicode="&#x135;" horiz-adv-x="255" 
d="M182 -109c0 -104 -50 -135 -98 -135c-35 0 -69 4 -84 11v90c21 -5 29 -6 38 -6c23 0 35 12 35 47v568h109v-575zM131 749l181 -156l-63 -70l-117 108l-116 -107l-64 69z" />
    <glyph glyph-name="Kcommaaccent" unicode="&#x136;" horiz-adv-x="607" 
d="M448 0l-260 307v-307h-115v700h115v-308l260 308h144l-296 -350l296 -350h-144zM242 -82c0 36 29 65 64 65c43 0 73 -34 73 -83c0 -99 -50 -133 -134 -134v41c28 0 46 5 59 16c11 9 18 21 19 36c-3 -3 -10 -5 -17 -5c-39 0 -64 29 -64 64z" />
    <glyph glyph-name="kcommaaccent" unicode="&#x137;" horiz-adv-x="499" 
d="M489 466l-194 -233l194 -233h-136l-171 205v-205h-109v700h109v-440l171 206h136zM182 -82c0 36 29 65 64 65c43 0 73 -34 73 -83c0 -99 -50 -133 -134 -134v41c28 0 46 5 59 16c11 9 18 21 19 36c-3 -3 -10 -5 -17 -5c-39 0 -64 29 -64 64z" />
    <glyph glyph-name="kgreenlandic" unicode="&#x138;" horiz-adv-x="499" 
d="M295 233l194 -233h-136l-171 205v-205h-109v466h109v-206l171 206h136z" />
    <glyph glyph-name="Lacute" unicode="&#x139;" horiz-adv-x="429" 
d="M404 103v-103h-331v700h115v-597h216zM35 749l-52 85l249 137l52 -85z" />
    <glyph glyph-name="lacute" unicode="&#x13a;" horiz-adv-x="255" 
d="M73 700h109v-700h-109v700zM29 751l-52 85l249 137l52 -85z" />
    <glyph glyph-name="Lcommaaccent" unicode="&#x13b;" horiz-adv-x="429" 
d="M73 700h115v-597h216v-103h-331v700zM146 -82c0 36 29 65 64 65c43 0 73 -34 73 -83c0 -99 -50 -133 -134 -134v41c28 0 46 5 59 16c11 9 18 21 19 36c-3 -3 -9 -5 -17 -5c-39 0 -64 29 -64 64z" />
    <glyph glyph-name="lcommaaccent" unicode="&#x13c;" horiz-adv-x="255" 
d="M73 700h109v-700h-109v700zM59 -82c0 36 29 65 64 65c43 0 73 -34 73 -83c0 -99 -50 -133 -134 -134v41c28 0 46 5 59 16c11 9 18 21 19 36c-3 -3 -9 -5 -17 -5c-39 0 -64 29 -64 64z" />
    <glyph glyph-name="Lcaron" unicode="&#x13d;" horiz-adv-x="429" 
d="M404 103v-103h-331v700h115v-597h216zM288 662c0 43 34 78 77 78c52 0 86 -39 86 -99c0 -117 -58 -159 -159 -160v49c33 0 54 8 69 20s21 27 24 42c-3 -3 -12 -5 -20 -5c-47 0 -77 32 -77 75z" />
    <glyph glyph-name="lcaron" unicode="&#x13e;" horiz-adv-x="403" 
d="M73 700h109v-700h-109v700zM240 662c0 43 34 78 77 78c52 0 86 -39 86 -99c0 -117 -58 -159 -159 -160v49c33 0 54 8 69 20s21 27 24 42c-3 -3 -12 -5 -20 -5c-47 0 -77 32 -77 75z" />
    <glyph glyph-name="Ldot" unicode="&#x13f;" horiz-adv-x="429" 
d="M404 103v-103h-331v700h115v-597h216zM268 396c0 45 36 81 80 81c45 0 81 -36 81 -81c0 -44 -36 -80 -81 -80c-44 0 -80 36 -80 80z" />
    <glyph glyph-name="ldot" unicode="&#x140;" horiz-adv-x="362" 
d="M73 700h109v-700h-109v700zM237 348c0 45 36 81 80 81c45 0 81 -36 81 -81c0 -44 -36 -80 -81 -80c-44 0 -80 36 -80 80z" />
    <glyph glyph-name="Lslash" unicode="&#x141;" horiz-adv-x="429" 
d="M404 103v-103h-331v255l-45 -19v90l45 19v355h115v-308l167 70v-90l-167 -70v-199h216z" />
    <glyph glyph-name="lslash" unicode="&#x142;" horiz-adv-x="255" 
d="M73 294l-67 -36v82l67 36v324h119v-261l69 37v-85l-69 -37v-354h-119v294z" />
    <glyph glyph-name="Nacute" unicode="&#x143;" horiz-adv-x="664" 
d="M476 202v498h115v-700h-126l-277 498v-498h-115v700h126zM233 749l-52 85l249 137l52 -85z" />
    <glyph glyph-name="nacute" unicode="&#x144;" horiz-adv-x="569" 
d="M73 466h109v-65c29 51 83 77 152 77c68 0 113 -24 140 -63c23 -35 30 -74 30 -138v-277h-109v241c0 80 -24 141 -101 141c-76 0 -112 -61 -112 -141v-241h-109v466zM186 495l-52 85l249 137l52 -85z" />
    <glyph glyph-name="Ncommaaccent" unicode="&#x145;" horiz-adv-x="664" 
d="M465 0l-277 498v-498h-115v700h126l277 -498v498h115v-700h-126zM263 -82c0 36 29 65 64 65c43 0 73 -34 73 -83c0 -99 -50 -133 -134 -134v41c28 0 46 5 59 16c11 9 18 21 19 36c-3 -3 -10 -5 -17 -5c-39 0 -64 29 -64 64z" />
    <glyph glyph-name="ncommaaccent" unicode="&#x146;" horiz-adv-x="569" 
d="M73 0v466h109v-65c29 51 83 77 152 77c68 0 113 -24 140 -63c23 -35 30 -74 30 -138v-277h-109v241c0 80 -24 141 -101 141c-76 0 -112 -61 -112 -141v-241h-109zM231 -82c0 36 29 65 64 65c43 0 73 -34 73 -83c0 -99 -50 -133 -134 -134v41c28 0 46 5 59 16
c11 9 18 21 19 36c-3 -3 -10 -5 -17 -5c-39 0 -64 29 -64 64z" />
    <glyph glyph-name="Ncaron" unicode="&#x147;" horiz-adv-x="664" 
d="M476 202v498h115v-700h-126l-277 498v-498h-115v700h126zM151 902l64 69l116 -107l117 108l63 -70l-181 -156z" />
    <glyph glyph-name="ncaron" unicode="&#x148;" horiz-adv-x="569" 
d="M73 0v466h109v-65c29 51 83 77 152 77c68 0 113 -24 140 -63c23 -35 30 -74 30 -138v-277h-109v241c0 80 -24 141 -101 141c-76 0 -112 -61 -112 -141v-241h-109zM119 674l64 69l116 -107l117 108l63 -70l-181 -156z" />
    <glyph glyph-name="napostrophe" unicode="&#x149;" horiz-adv-x="569" 
d="M73 0v466h109v-65c29 51 83 77 152 77c68 0 113 -24 140 -63c23 -35 30 -74 30 -138v-277h-109v241c0 80 -24 141 -101 141c-76 0 -112 -61 -112 -141v-241h-109zM-50 672c0 36 29 65 64 65c43 0 73 -34 73 -83c0 -99 -50 -133 -134 -134v41c28 0 46 7 59 16
c11 9 18 21 19 36c-3 -3 -10 -5 -17 -5c-39 0 -64 29 -64 64z" />
    <glyph glyph-name="Eng" unicode="&#x14a;" horiz-adv-x="664" 
d="M476 202v498h115v-701c0 -136 -82 -244 -229 -244c-75 0 -127 33 -166 80l75 72c28 -28 48 -49 91 -49c76 0 114 57 114 141l-288 499v-498h-115v700h115z" />
    <glyph glyph-name="eng" unicode="&#x14b;" horiz-adv-x="569" 
d="M202 -101c27 -27 45 -46 86 -46c72 0 107 53 107 132v256c0 80 -24 141 -101 141c-76 0 -112 -61 -112 -141v-241h-109v466h109v-65c29 51 83 77 152 77c68 0 113 -24 140 -63c23 -35 30 -74 30 -138v-292c0 -128 -76 -230 -216 -230c-71 0 -120 32 -157 76z" />
    <glyph glyph-name="Omacron" unicode="&#x14c;" horiz-adv-x="800" 
d="M400 -17c-225 0 -362 177 -362 367s137 367 362 367s362 -177 362 -367s-137 -367 -362 -367zM400 86c149 0 241 128 241 264s-92 264 -241 264s-241 -128 -241 -264s92 -264 241 -264zM579 803h-358v97h358v-97z" />
    <glyph glyph-name="omacron" unicode="&#x14d;" horiz-adv-x="568" 
d="M283 -12c-148 0 -245 113 -245 245s97 245 245 245c149 0 247 -113 247 -245s-98 -245 -247 -245zM283 85c83 0 138 68 138 148s-55 148 -138 148s-136 -68 -136 -148s53 -148 136 -148zM463 565h-358v97h358v-97z" />
    <glyph glyph-name="Obreve" unicode="&#x14e;" horiz-adv-x="800" 
d="M400 -17c-225 0 -362 177 -362 367s137 367 362 367s362 -177 362 -367s-137 -367 -362 -367zM400 86c149 0 241 128 241 264s-92 264 -241 264s-241 -128 -241 -264s92 -264 241 -264zM400 862c51 0 84 28 97 72h102c-16 -88 -98 -156 -199 -156
c-105 0 -183 68 -199 156h102c13 -44 46 -72 97 -72z" />
    <glyph glyph-name="obreve" unicode="&#x14f;" horiz-adv-x="568" 
d="M283 -12c-148 0 -245 113 -245 245s97 245 245 245c149 0 247 -113 247 -245s-98 -245 -247 -245zM283 85c83 0 138 68 138 148s-55 148 -138 148s-136 -68 -136 -148s53 -148 136 -148zM283 628c51 0 84 28 97 72h102c-16 -88 -98 -156 -199 -156
c-105 0 -183 68 -199 156h102c13 -44 46 -72 97 -72z" />
    <glyph glyph-name="Ohungarumlaut" unicode="&#x150;" horiz-adv-x="800" 
d="M400 -17c-225 0 -362 177 -362 367s137 367 362 367s362 -177 362 -367s-137 -367 -362 -367zM400 86c149 0 241 128 241 264s-92 264 -241 264s-241 -128 -241 -264s92 -264 241 -264zM539 968l96 -48l-169 -146l-52 28zM219 802l125 166l96 -48l-169 -146z" />
    <glyph glyph-name="ohungarumlaut" unicode="&#x151;" horiz-adv-x="568" 
d="M283 -12c-148 0 -245 113 -245 245s97 245 245 245c149 0 247 -113 247 -245s-98 -245 -247 -245zM283 85c83 0 138 68 138 148s-55 148 -138 148s-136 -68 -136 -148s53 -148 136 -148zM241 734l96 -48l-169 -146l-52 28zM363 540l-52 28l125 166l96 -48z" />
    <glyph glyph-name="OE" unicode="&#x152;" horiz-adv-x="1114" 
d="M757 597v-198h289v-103h-289v-193h289v-103h-404v71c-60 -56 -142 -90 -242 -90c-225 0 -362 177 -362 367s137 367 362 367c100 0 182 -34 242 -90v75h404v-103h-289zM400 84c149 0 241 128 241 264s-92 264 -241 264s-241 -128 -241 -264s92 -264 241 -264z" />
    <glyph glyph-name="oe" unicode="&#x153;" horiz-adv-x="912" 
d="M532 200c0 -67 35 -121 122 -121c62 0 85 28 99 61h110c-16 -80 -89 -152 -209 -152c-84 0 -143 32 -182 83c-43 -51 -109 -83 -189 -83c-148 0 -245 113 -245 245s97 245 245 245c80 0 144 -31 187 -82c39 51 101 82 181 82c121 0 216 -91 216 -210c0 -16 0 -37 -5 -68
h-330zM648 387c-64 0 -115 -37 -115 -106h228c0 65 -46 106 -113 106zM283 85c83 0 138 64 138 148c0 83 -55 148 -138 148s-136 -68 -136 -148s53 -148 136 -148z" />
    <glyph glyph-name="Racute" unicode="&#x154;" horiz-adv-x="609" 
d="M73 700h251c149 0 247 -113 247 -245c0 -100 -56 -189 -148 -227l139 -228h-131l-128 210h-115v-210h-115v700zM324 313c80 0 132 66 132 142s-52 142 -132 142h-136v-284h136zM206 749l-52 85l249 137l52 -85z" />
    <glyph glyph-name="racute" unicode="&#x155;" horiz-adv-x="378" 
d="M369 365c-17 4 -26 5 -43 5c-93 0 -144 -52 -144 -169v-201h-109v466h109v-75c21 42 82 81 144 81c17 0 32 -2 43 -7v-100zM91 515l-52 85l249 137l52 -85z" />
    <glyph glyph-name="Rcommaaccent" unicode="&#x156;" horiz-adv-x="609" 
d="M73 700h251c149 0 247 -113 247 -245c0 -100 -56 -189 -148 -227l139 -228h-131l-128 210h-115v-210h-115v700zM236 -82c0 36 29 65 64 65c43 0 73 -34 73 -83c0 -99 -50 -133 -134 -134v41c55 0 75 25 78 52l-6 -3c-4 -1 -8 -2 -11 -2c-39 0 -64 29 -64 64zM188 597
v-284h136c80 0 132 66 132 142s-52 142 -132 142h-136z" />
    <glyph glyph-name="rcommaaccent" unicode="&#x157;" horiz-adv-x="378" 
d="M369 365c-17 4 -26 5 -43 5c-93 0 -144 -52 -144 -169v-201h-109v466h109v-75c21 42 82 81 144 81c17 0 32 -2 43 -7v-100zM59 -82c0 36 29 65 64 65c43 0 73 -34 73 -83c0 -99 -50 -133 -134 -134v41c28 0 46 5 59 16c11 9 18 21 19 36c-3 -3 -9 -5 -17 -5
c-39 0 -64 29 -64 64z" />
    <glyph glyph-name="Rcaron" unicode="&#x158;" horiz-adv-x="609" 
d="M73 700h251c149 0 247 -113 247 -245c0 -100 -56 -189 -148 -227l139 -228h-131l-128 210h-115v-210h-115v700zM324 313c80 0 132 66 132 142s-52 142 -132 142h-136v-284h136zM103 902l64 69l116 -107l117 108l63 -70l-181 -156z" />
    <glyph glyph-name="rcaron" unicode="&#x159;" horiz-adv-x="378" 
d="M369 365c-17 4 -26 5 -43 5c-93 0 -144 -52 -144 -169v-201h-109v466h109v-75c21 42 82 81 144 81c17 0 32 -2 43 -7v-100zM35 674l64 69l116 -107l117 108l63 -70l-181 -156z" />
    <glyph glyph-name="Sacute" unicode="&#x15a;" horiz-adv-x="569" 
d="M157 229c0 -92 56 -143 136 -143c64 0 115 41 115 104c0 70 -63 95 -111 111c-128 45 -231 84 -231 224c0 116 100 192 217 192c126 0 223 -89 223 -219h-115c0 69 -40 116 -105 116c-57 0 -105 -29 -105 -89c0 -57 50 -85 102 -103c109 -40 240 -85 240 -219
c0 -144 -109 -220 -240 -220c-127 0 -241 90 -241 246h115zM186 749l-52 85l249 137l52 -85z" />
    <glyph glyph-name="sacute" unicode="&#x15b;" horiz-adv-x="454" 
d="M285 263c65 -24 127 -49 127 -133c0 -97 -84 -142 -186 -142c-100 0 -190 60 -190 169h106c0 -61 38 -83 90 -83c43 0 76 14 76 54c0 42 -47 48 -145 85c-65 24 -111 49 -111 130c0 88 80 135 175 135c99 0 178 -67 178 -158h-106c0 44 -22 72 -75 72
c-37 0 -67 -18 -67 -51c0 -39 42 -46 128 -78zM129 495l-52 85l249 137l52 -85z" />
    <glyph glyph-name="Scircumflex" unicode="&#x15c;" horiz-adv-x="569" 
d="M157 229c0 -92 56 -143 136 -143c64 0 115 41 115 104c0 70 -63 95 -111 111c-128 45 -231 84 -231 224c0 116 100 192 217 192c126 0 223 -89 223 -219h-115c0 69 -40 116 -105 116c-57 0 -105 -29 -105 -89c0 -57 50 -85 102 -103c109 -40 240 -85 240 -219
c0 -144 -109 -220 -240 -220c-127 0 -241 90 -241 246h115zM283 972l181 -156l-63 -70l-117 108l-116 -107l-64 69z" />
    <glyph glyph-name="scircumflex" unicode="&#x15d;" horiz-adv-x="454" 
d="M285 263c65 -24 127 -49 127 -133c0 -97 -84 -142 -186 -142c-100 0 -190 60 -190 169h106c0 -61 38 -83 90 -83c43 0 76 14 76 54c0 42 -47 48 -145 85c-65 24 -111 49 -111 130c0 88 80 135 175 135c99 0 178 -67 178 -158h-106c0 44 -22 72 -75 72
c-37 0 -67 -18 -67 -51c0 -39 42 -46 128 -78zM227 749l181 -156l-63 -70l-117 108l-116 -107l-64 69z" />
    <glyph glyph-name="Scedilla" unicode="&#x15e;" horiz-adv-x="569" 
d="M249 -15c-113 16 -207 100 -207 244h115c0 -92 56 -143 136 -143c64 0 115 41 115 104c0 70 -63 95 -111 111c-128 45 -231 84 -231 224c0 116 100 192 217 192c126 0 223 -89 223 -219h-115c0 69 -40 116 -105 116c-57 0 -105 -29 -105 -89c0 -57 50 -85 102 -103
c109 -40 240 -85 240 -219c0 -131 -90 -205 -204 -218v-49c9 9 21 13 37 13c35 0 79 -30 79 -86c0 -46 -33 -97 -102 -97c-15 0 -90 5 -101 86h64c6 -20 18 -30 37 -30c23 0 38 16 38 41c0 23 -17 37 -37 37c-14 0 -24 -6 -31 -18h-54v103z" />
    <glyph glyph-name="scedilla" unicode="&#x15f;" horiz-adv-x="454" 
d="M184 -8c-83 13 -148 70 -148 165h106c0 -61 38 -83 90 -83c43 0 76 14 76 54c0 42 -47 48 -145 85c-65 24 -111 49 -111 130c0 88 80 135 175 135c99 0 178 -67 178 -158h-106c0 44 -22 72 -75 72c-37 0 -67 -18 -67 -51c0 -39 42 -46 128 -78c65 -24 127 -49 127 -133
c0 -89 -69 -132 -158 -140v-54c9 9 21 13 37 13c35 0 79 -30 79 -86c0 -46 -33 -97 -102 -97c-15 0 -90 5 -101 86h64c6 -20 18 -30 37 -30c23 0 38 16 38 41c0 23 -17 37 -37 37c-14 0 -24 -6 -31 -18h-54v110z" />
    <glyph glyph-name="Scaron" unicode="&#x160;" horiz-adv-x="569" 
d="M157 229c0 -92 56 -143 136 -143c64 0 115 41 115 104c0 70 -63 95 -111 111c-128 45 -231 84 -231 224c0 116 103 192 220 192c126 0 220 -89 220 -219h-115c0 69 -40 116 -105 116c-57 0 -105 -29 -105 -89c0 -57 50 -85 102 -103c109 -40 240 -85 240 -219
c0 -144 -109 -220 -240 -220c-127 0 -241 90 -241 246h115zM108 902l64 69l116 -107l117 108l63 -70l-181 -156z" />
    <glyph glyph-name="scaron" unicode="&#x161;" horiz-adv-x="454" 
d="M285 263c65 -24 127 -49 127 -133c0 -97 -84 -142 -186 -142c-100 0 -190 60 -190 169h106c0 -61 38 -83 90 -83c43 0 76 14 76 54c0 42 -47 48 -145 85c-65 24 -111 49 -111 130c0 88 80 135 175 135c99 0 178 -67 178 -158h-106c0 44 -22 72 -75 72
c-37 0 -67 -18 -67 -51c0 -39 42 -46 128 -78zM47 674l64 69l116 -107l117 108l63 -70l-181 -156z" />
    <glyph glyph-name="Tcommaaccent" unicode="&#x162;" horiz-adv-x="482" 
d="M183 597h-173v103h462v-103h-174v-597h-115v597zM176 -82c0 36 29 65 64 65c43 0 73 -34 73 -83c0 -99 -50 -133 -134 -134v41c55 0 75 25 78 52l-6 -3c-4 -1 -8 -2 -11 -2c-39 0 -64 29 -64 64z" />
    <glyph glyph-name="tcommaaccent" unicode="&#x163;" horiz-adv-x="351" 
d="M20 466h79v141h109v-141h107v-91h-107v-192c0 -80 25 -91 68 -91c17 0 44 1 55 4v-96c-17 -3 -49 -6 -81 -6c-53 0 -151 7 -151 164v217h-79v91zM143 -82c0 36 29 65 64 65c43 0 73 -34 73 -83c0 -99 -50 -133 -134 -134v41c28 0 46 5 59 16c11 9 18 21 19 36
c-3 -3 -9 -5 -17 -5c-39 0 -64 29 -64 64z" />
    <glyph glyph-name="Tcaron" unicode="&#x164;" horiz-adv-x="482" 
d="M183 597h-173v103h462v-103h-174v-597h-115v597zM62 902l64 69l116 -107l117 108l63 -70l-181 -156z" />
    <glyph glyph-name="tcaron" unicode="&#x165;" horiz-adv-x="564" 
d="M20 466h79v141h109v-141h107v-91h-107v-192c0 -80 25 -91 68 -91c17 0 44 1 55 4v-96c-17 -3 -49 -6 -81 -6c-53 0 -151 7 -151 164v217h-79v91zM336 639c0 43 34 78 77 78c52 0 86 -39 86 -99c0 -117 -58 -159 -159 -160v49c33 0 54 8 69 20s21 27 24 42
c-3 -3 -12 -5 -20 -5c-47 0 -77 32 -77 75z" />
    <glyph glyph-name="Tbar" unicode="&#x166;" horiz-adv-x="482" 
d="M420 403h-122v-403h-115v403h-121v82h121v112h-173v103h462v-103h-174v-112h122v-82z" />
    <glyph glyph-name="tbar" unicode="&#x167;" horiz-adv-x="351" 
d="M331 0c-17 -3 -49 -6 -81 -6c-53 0 -151 7 -151 164v54h-79v72h79v91h-79v91h79v141h109v-141h107v-91h-107v-91h79v-72h-79v-29c0 -80 25 -91 68 -91c17 0 44 1 55 4v-96z" />
    <glyph glyph-name="Utilde" unicode="&#x168;" horiz-adv-x="640" 
d="M68 700h115v-466c0 -80 53 -148 136 -148s138 68 138 148v466h115v-466c0 -136 -99 -251 -253 -251c-151 0 -251 115 -251 251v466zM387 879c28 0 42 21 57 44l78 -41c-36 -64 -88 -88 -133 -88c-69 0 -102 44 -136 44c-28 0 -40 -19 -55 -44l-74 51c36 57 82 78 129 78
c71 0 98 -44 134 -44z" />
    <glyph glyph-name="utilde" unicode="&#x169;" horiz-adv-x="569" 
d="M496 0h-109v65c-29 -51 -83 -77 -152 -77c-68 0 -113 24 -140 63c-23 35 -30 74 -30 138v277h109v-241c0 -80 24 -141 101 -141c76 0 112 61 112 141v241h109v-466zM347 658c28 0 42 21 57 44l78 -41c-36 -64 -88 -88 -133 -88c-69 0 -102 44 -136 44
c-28 0 -40 -19 -55 -44l-74 51c36 57 82 78 129 78c71 0 98 -44 134 -44z" />
    <glyph glyph-name="Umacron" unicode="&#x16a;" horiz-adv-x="640" 
d="M68 700h115v-466c0 -80 53 -148 136 -148s138 68 138 148v466h115v-466c0 -136 -99 -251 -253 -251c-151 0 -251 115 -251 251v466zM499 803h-358v97h358v-97z" />
    <glyph glyph-name="umacron" unicode="&#x16b;" horiz-adv-x="569" 
d="M496 0h-109v65c-29 -51 -83 -77 -152 -77c-68 0 -113 24 -140 63c-23 35 -30 74 -30 138v277h109v-241c0 -80 24 -141 101 -141c76 0 112 61 112 141v241h109v-466zM463 565h-358v97h358v-97z" />
    <glyph glyph-name="Ubreve" unicode="&#x16c;" horiz-adv-x="640" 
d="M68 700h115v-466c0 -80 53 -148 136 -148s138 68 138 148v466h115v-466c0 -136 -99 -251 -253 -251c-151 0 -251 115 -251 251v466zM317 862c51 0 84 28 97 72h102c-16 -88 -98 -156 -199 -156c-105 0 -183 68 -199 156h102c13 -44 46 -72 97 -72z" />
    <glyph glyph-name="ubreve" unicode="&#x16d;" horiz-adv-x="569" 
d="M496 0h-109v65c-29 -51 -83 -77 -152 -77c-68 0 -113 24 -140 63c-23 35 -30 74 -30 138v277h109v-241c0 -80 24 -141 101 -141c76 0 112 61 112 141v241h109v-466zM281 628c51 0 84 28 97 72h102c-16 -88 -98 -156 -199 -156c-105 0 -183 68 -199 156h102
c13 -44 46 -72 97 -72z" />
    <glyph glyph-name="Uring" unicode="&#x16e;" horiz-adv-x="640" 
d="M68 700h115v-466c0 -80 53 -148 136 -148s138 68 138 148v466h115v-466c0 -136 -99 -251 -253 -251c-151 0 -251 115 -251 251v466zM320 976c68 0 123 -56 123 -123s-55 -123 -123 -123s-123 56 -123 123c0 68 55 123 123 123zM320 908c-31 0 -54 -24 -54 -55
c0 -29 23 -53 54 -53s54 23 54 54s-23 54 -54 54z" />
    <glyph glyph-name="uring" unicode="&#x16f;" horiz-adv-x="569" 
d="M496 0h-109v65c-29 -51 -83 -77 -152 -77c-68 0 -113 24 -140 63c-23 35 -30 74 -30 138v277h109v-241c0 -80 24 -141 101 -141c76 0 112 61 112 141v241h109v-466zM280 766c72 0 129 -60 129 -129c0 -68 -57 -128 -129 -128c-71 0 -128 60 -128 128c0 72 57 129 128 129
zM280 701c-35 0 -61 -29 -61 -64c0 -33 26 -61 61 -61s62 28 62 63s-26 62 -62 62z" />
    <glyph glyph-name="Uhungarumlaut" unicode="&#x170;" horiz-adv-x="640" 
d="M68 700h115v-466c0 -80 53 -148 136 -148s138 68 138 148v466h115v-466c0 -136 -99 -251 -253 -251c-151 0 -251 115 -251 251v466zM474 968l96 -48l-169 -146l-52 28zM279 968l96 -48l-169 -146l-52 28z" />
    <glyph glyph-name="uhungarumlaut" unicode="&#x171;" horiz-adv-x="569" 
d="M496 466v-466h-109v65c-29 -51 -83 -77 -152 -77c-68 0 -113 24 -140 63c-23 35 -30 74 -30 138v277h109v-241c0 -80 24 -141 101 -141c76 0 112 61 112 141v241h109zM159 517l-52 28l125 166l96 -48zM354 517l-52 28l125 166l96 -48z" />
    <glyph glyph-name="Uogonek" unicode="&#x172;" horiz-adv-x="640" 
d="M415 -197c-21 -7 -56 -15 -91 -15c-76 0 -115 44 -115 97c0 39 19 69 62 102c-124 21 -203 126 -203 247v466h115v-466c0 -80 53 -148 136 -148s138 68 138 148v466h115v-466c0 -128 -87 -236 -224 -249c-19 -15 -35 -34 -35 -63c0 -28 17 -53 46 -53c16 0 37 4 56 12
v-78z" />
    <glyph glyph-name="uogonek" unicode="&#x173;" horiz-adv-x="569" 
d="M235 -12c-68 0 -113 24 -140 63c-23 35 -30 74 -30 138v277h109v-241c0 -80 24 -141 101 -141c76 0 112 61 112 141v241h109v-466h-28c-31 -21 -66 -45 -66 -88c0 -23 14 -43 41 -43c16 0 37 4 56 12v-78c-21 -7 -56 -15 -91 -15c-80 0 -120 44 -120 97
c0 45 34 80 99 120v60c-29 -51 -83 -77 -152 -77z" />
    <glyph glyph-name="Wcircumflex" unicode="&#x174;" horiz-adv-x="983" 
d="M492 499l-162 -499h-83l-242 700h121l161 -499l162 499h85l162 -499l161 499h121l-242 -700h-83zM492 972l181 -156l-63 -70l-117 108l-116 -107l-64 69z" />
    <glyph glyph-name="wcircumflex" unicode="&#x175;" horiz-adv-x="753" 
d="M377 348l-123 -348h-73l-181 466h117l101 -295l105 295h107l105 -295l101 295h117l-181 -466h-73zM379 749l181 -156l-63 -70l-117 108l-116 -107l-64 69z" />
    <glyph glyph-name="Ycircumflex" unicode="&#x176;" horiz-adv-x="602" 
d="M260 0h-126l139 280l-262 420h133l187 -301l150 301h126zM319 972l181 -156l-63 -70l-117 108l-116 -107l-64 69z" />
    <glyph glyph-name="ycircumflex" unicode="&#x177;" horiz-adv-x="578" 
d="M283 -245c-63 0 -116 16 -155 48s-62 80 -63 144h110c5 -68 53 -100 110 -100c67 0 114 24 114 111v107c-29 -51 -83 -77 -152 -77c-68 0 -113 24 -140 63c-23 35 -30 74 -30 138v277h109v-241c0 -80 24 -141 101 -141c76 0 112 61 112 141v241h109v-508
c0 -67 -19 -118 -58 -153c-38 -33 -94 -50 -167 -50zM291 749l181 -156l-63 -70l-117 108l-116 -107l-64 69z" />
    <glyph glyph-name="Ydieresis" unicode="&#x178;" horiz-adv-x="602" 
d="M260 0h-126l139 280l-262 420h133l187 -301l150 301h126zM369 855c0 43 33 77 76 77s77 -34 77 -77s-34 -76 -77 -76s-76 33 -76 76zM140 855c0 43 33 77 76 77s77 -34 77 -77s-34 -76 -77 -76s-76 33 -76 76z" />
    <glyph glyph-name="Zacute" unicode="&#x179;" horiz-adv-x="577" 
d="M34 700h533l-363 -597h361v-103h-552l363 597h-342v103zM190 749l-52 85l249 137l52 -85z" />
    <glyph glyph-name="zacute" unicode="&#x17a;" horiz-adv-x="438" 
d="M424 466l-220 -369h220v-97h-402l221 369h-215v97h396zM121 494l-52 85l249 137l52 -85z" />
    <glyph glyph-name="Zdotaccent" unicode="&#x17b;" horiz-adv-x="577" 
d="M34 700h533l-363 -597h361v-103h-552l363 597h-342v103zM208 865c0 45 36 81 80 81c45 0 81 -36 81 -81c0 -44 -36 -80 -81 -80c-44 0 -80 36 -80 80z" />
    <glyph glyph-name="zdotaccent" unicode="&#x17c;" horiz-adv-x="438" 
d="M424 466l-220 -369h220v-97h-402l221 369h-215v97h396zM139 613c0 45 36 81 80 81c45 0 81 -36 81 -81c0 -44 -36 -80 -81 -80c-44 0 -80 36 -80 80z" />
    <glyph glyph-name="Zcaron" unicode="&#x17d;" horiz-adv-x="577" 
d="M110 902l64 69l116 -107l117 108l63 -70l-181 -156zM34 700h533l-363 -597h361v-103h-552l363 597h-342v103z" />
    <glyph glyph-name="zcaron" unicode="&#x17e;" horiz-adv-x="438" 
d="M48 674l64 69l116 -107l117 108l63 -70l-181 -156zM424 466l-220 -369h220v-97h-402l221 369h-215v97h396z" />
    <glyph glyph-name="longs" unicode="&#x17f;" horiz-adv-x="359" 
d="M346 602c-15 4 -31 7 -48 7c-34 0 -74 0 -74 -73v-536h-109v375h-95v91h95v58c0 178 114 182 168 182c28 0 51 -5 63 -12v-92z" />
    <glyph glyph-name="florin" unicode="&#x192;" horiz-adv-x="441" 
d="M-44 -78c15 -4 30 -7 47 -7c34 0 66 2 87 73l68 387h-95l16 91h95l10 58c32 178 146 182 200 182c28 0 50 -5 61 -12l-16 -92c-15 4 -30 7 -47 7c-34 0 -73 0 -87 -73l-12 -70h122l-16 -91h-122l-66 -375c-32 -178 -146 -182 -200 -182c-28 0 -50 5 -61 12z" />
    <glyph glyph-name="Aringacute" unicode="&#x1fa;" horiz-adv-x="571" 
d="M352 754c0 -23 -11 -42 -26 -54l242 -700h-121l-30 89h-263l-30 -89h-121l241 698c-19 13 -29 31 -29 56c0 37 30 68 69 68c37 0 68 -31 68 -68zM189 192h193l-96 317zM162 783l-33 52l249 137l33 -52zM284 779c-15 0 -25 -12 -25 -25s10 -24 25 -24c13 0 24 11 24 24
s-9 25 -24 25z" />
    <glyph glyph-name="aringacute" unicode="&#x1fb;" horiz-adv-x="603" 
d="M421 466h109v-466h-109v63c-29 -47 -89 -75 -144 -75c-141 0 -239 113 -239 245s98 245 239 245c55 0 115 -28 144 -75v63zM283 381c-83 0 -136 -68 -136 -148s53 -148 136 -148s138 68 138 148s-55 148 -138 148zM318 608c0 23 -17 41 -41 41s-41 -19 -41 -42
s18 -41 41 -41s41 19 41 42zM181 607c0 53 43 96 96 96s96 -44 96 -96s-43 -96 -96 -96s-96 44 -96 96zM117 785l249 137l52 -85l-249 -137z" />
    <glyph glyph-name="AEacute" unicode="&#x1fc;" horiz-adv-x="883" 
d="M521 597v-198h289v-103h-289v-193h289v-103h-404v90h-237l-42 -90h-125l340 700h468v-103h-289zM406 193v399l-188 -399h188zM395 749l-52 85l249 137l52 -85z" />
    <glyph glyph-name="aeacute" unicode="&#x1fd;" horiz-adv-x="912" 
d="M530 466v-18c33 19 74 30 121 30c121 0 216 -91 216 -210c0 -16 0 -37 -5 -68h-330c0 -67 35 -121 122 -121c62 0 85 28 99 61h110c-16 -80 -89 -152 -209 -152c-51 0 -91 12 -124 31v-19h-109v63c-29 -47 -89 -75 -144 -75c-141 0 -239 113 -239 245s98 245 239 245
c55 0 115 -28 144 -75v63h109zM648 387c-64 0 -115 -37 -115 -106h228c0 64 -46 106 -113 106zM283 85c83 0 138 68 138 148c0 83 -55 148 -138 148s-136 -68 -136 -148s53 -148 136 -148zM357 478l-52 85l249 137l52 -85z" />
    <glyph glyph-name="Oslashacute" unicode="&#x1fe;" horiz-adv-x="800" 
d="M400 -17c-40 0 -76 5 -109 15l-39 -91l-76 34l38 90c-113 65 -176 190 -176 319c0 190 137 367 362 367c36 0 70 -5 102 -14l37 85l75 -34l-35 -82c116 -65 183 -191 183 -322c0 -190 -137 -367 -362 -367zM461 606c-20 5 -40 8 -61 8c-149 0 -241 -128 -241 -264
c0 -85 35 -166 99 -217zM641 350c0 88 -38 172 -106 221l-203 -476c21 -6 43 -9 68 -9c149 0 241 128 241 264zM301 749l-52 85l249 137l52 -85z" />
    <glyph glyph-name="oslashacute" unicode="&#x1ff;" horiz-adv-x="568" 
d="M410 446c76 -43 120 -124 120 -213c0 -132 -98 -245 -247 -245c-25 0 -47 3 -68 9l-34 -80l-66 28l34 80c-71 44 -111 121 -111 208c0 132 97 245 245 245c21 0 41 -3 60 -7l34 79l66 -28zM283 85c83 0 138 68 138 148c0 47 -19 90 -52 118l-114 -264c9 -3 17 -2 28 -2z
M147 233c0 -45 15 -83 44 -112l112 258c-7 1 -13 2 -20 2c-83 0 -136 -68 -136 -148zM185 495l-52 85l249 137l52 -85z" />
    <glyph glyph-name="Scommaaccent" unicode="&#x218;" horiz-adv-x="569" 
d="M157 229c0 -92 56 -143 136 -143c64 0 115 41 115 104c0 70 -63 95 -111 111c-128 45 -231 84 -231 224c0 116 100 192 217 192c126 0 223 -89 223 -219h-115c0 69 -40 116 -105 116c-57 0 -105 -29 -105 -89c0 -57 50 -85 102 -103c109 -40 240 -85 240 -219
c0 -144 -109 -220 -240 -220c-127 0 -241 90 -241 246h115zM216 -93c0 36 29 65 64 65c43 0 73 -34 73 -83c0 -99 -50 -133 -134 -134v41c55 0 75 25 78 52l-6 -3c-4 -1 -8 -2 -11 -2c-39 0 -64 29 -64 64z" />
    <glyph glyph-name="scommaaccent" unicode="&#x219;" horiz-adv-x="454" 
d="M162 -82c0 36 29 65 64 65c43 0 73 -34 73 -83c0 -99 -50 -133 -134 -134v41c28 0 46 5 59 16c11 9 18 21 19 36c-3 -3 -9 -5 -17 -5c-39 0 -64 29 -64 64zM142 157c0 -61 38 -83 90 -83c43 0 76 14 76 54c0 42 -47 48 -145 85c-65 24 -111 49 -111 130
c0 88 80 135 175 135c99 0 178 -67 178 -158h-106c0 44 -22 72 -75 72c-37 0 -67 -18 -67 -51c0 -39 42 -46 128 -78c65 -24 127 -49 127 -133c0 -97 -84 -142 -186 -142c-100 0 -190 60 -190 169h106z" />
    <glyph glyph-name="uni021A" unicode="&#x21a;" horiz-adv-x="482" 
d="M183 597h-173v103h462v-103h-174v-597h-115v597zM176 -82c0 36 29 65 64 65c43 0 73 -34 73 -83c0 -99 -50 -133 -134 -134v41c55 0 75 25 78 52l-6 -3c-4 -1 -8 -2 -11 -2c-39 0 -64 29 -64 64z" />
    <glyph glyph-name="uni021B" unicode="&#x21b;" horiz-adv-x="351" 
d="M20 466h79v141h109v-141h107v-91h-107v-192c0 -80 25 -91 68 -91c17 0 44 1 55 4v-96c-17 -3 -49 -6 -81 -6c-53 0 -151 7 -151 164v217h-79v91zM143 -82c0 36 29 65 64 65c43 0 73 -34 73 -83c0 -99 -50 -133 -134 -134v41c28 0 46 5 59 16c11 9 18 21 19 36
c-3 -3 -9 -5 -17 -5c-39 0 -64 29 -64 64z" />
    <glyph glyph-name="hsuperior" unicode="&#x2b0;" horiz-adv-x="388" 
d="M66 700h81v-158c15 27 45 44 85 44c33 0 57 -10 73 -30c16 -21 21 -46 21 -85v-156h-81v136c0 39 -11 64 -47 64c-35 0 -51 -26 -51 -67v-133h-81v385z" />
    <glyph glyph-name="jsuperior" unicode="&#x2b2;" horiz-adv-x="236" 
d="M161 273c0 -69 -32 -85 -71 -85c-21 0 -45 3 -56 7v62c11 -3 15 -3 22 -3c15 0 22 9 22 26v300h83v-307zM66 668c0 29 22 53 53 53s54 -24 54 -53s-23 -53 -54 -53s-53 24 -53 53z" />
    <glyph glyph-name="wsuperior" unicode="&#x2b7;" horiz-adv-x="500" 
d="M250 485l-55 -170h-67l-99 265h86l50 -158l46 158h77l47 -158l50 158h86l-99 -265h-67z" />
    <glyph glyph-name="ysuperior" unicode="&#x2b8;" horiz-adv-x="398" 
d="M190 188c-84 0 -128 42 -128 106h82c1 -25 16 -44 51 -44c37 0 54 17 54 62v45c-15 -28 -46 -45 -87 -45c-35 0 -59 12 -74 31c-16 21 -20 45 -20 84v153h83v-136c0 -39 11 -65 47 -65c35 0 51 27 51 68v133h84v-264c0 -93 -42 -128 -143 -128z" />
    <glyph glyph-name="apostrophemod" unicode="&#x2bc;" horiz-adv-x="283" 
d="M60 662c0 43 34 78 77 78c52 0 86 -39 86 -99c0 -117 -58 -159 -159 -160v49c33 0 54 8 69 20s21 27 24 42c-3 -3 -12 -5 -20 -5c-47 0 -77 32 -77 75z" />
    <glyph glyph-name="circumflex" unicode="&#x2c6;" horiz-adv-x="492" 
d="M243 842l180 -145l-68 -76l-112 90l-111 -89l-69 75z" />
    <glyph glyph-name="caron" unicode="&#x2c7;" horiz-adv-x="452" 
d="M66 749l58 76l101 -96l102 96l59 -76l-161 -145z" />
    <glyph glyph-name="breve" unicode="&#x2d8;" horiz-adv-x="555" 
d="M177 856c16 -51 49 -79 100 -79s84 28 100 79h92c-16 -88 -95 -156 -192 -156s-176 68 -192 156h92z" />
    <glyph glyph-name="dotaccent" unicode="&#x2d9;" horiz-adv-x="589" 
d="M214 631c0 45 36 81 80 81c45 0 81 -36 81 -81c0 -44 -36 -80 -81 -80c-44 0 -80 36 -80 80z" />
    <glyph glyph-name="ring" unicode="&#x2da;" horiz-adv-x="567" 
d="M283 835c68 0 123 -56 123 -123s-55 -123 -123 -123s-123 56 -123 123c0 68 55 123 123 123zM283 757c-25 0 -44 -21 -44 -45c0 -23 20 -43 44 -43s44 20 44 44s-19 44 -44 44z" />
    <glyph glyph-name="ogonek" unicode="&#x2db;" horiz-adv-x="568" 
d="M387 -197c-21 -7 -56 -15 -91 -15c-76 0 -115 44 -115 97c0 43 26 76 79 115h81c-27 -19 -56 -38 -56 -78c0 -28 17 -53 46 -53c16 0 37 4 56 12v-78z" />
    <glyph glyph-name="tilde" unicode="&#x2dc;" horiz-adv-x="527" 
d="M80 662c60 38 84 38 103 38c28 0 116 -27 141 -27c21 0 33 4 80 27l43 -69c-52 -43 -92 -45 -109 -45c-29 0 -115 26 -141 26c-27 0 -46 -10 -70 -21z" />
    <glyph glyph-name="hungarumlaut" unicode="&#x2dd;" horiz-adv-x="525" 
d="M408 734l96 -48l-169 -146l-52 28zM213 734l96 -48l-169 -146l-52 28z" />
    <glyph glyph-name="xsuperior" unicode="&#x2e3;" horiz-adv-x="342" 
d="M311 315h-96l-44 77l-44 -77h-96l91 134l-89 131h96l42 -75l42 75h97l-90 -131z" />
    <glyph glyph-name="increment" unicode="&#x2206;" horiz-adv-x="571" 
d="M162 103h247l-123 406zM568 0h-565l242 700h81z" />
    <glyph glyph-name="Omega" unicode="&#x2126;" horiz-adv-x="716" 
d="M358 609c-132 0 -198 -98 -198 -205c0 -103 46 -199 158 -223v-181h-255v103h165v18c-117 45 -183 153 -183 278c0 165 118 313 313 313s313 -148 313 -313c0 -125 -67 -233 -183 -279v-17h165v-103h-255v181c112 24 158 120 158 223c0 107 -66 205 -198 205z" />
    <glyph glyph-name="mu" unicode="&#xb5;" 
d="M74 466h109v-241c0 -80 24 -141 101 -141c76 0 112 61 112 141v241h109v-466h-109v65c-29 -51 -83 -77 -152 -77c-21 0 -42 3 -61 8v-230h-109v700z" />
    <glyph glyph-name="pi" unicode="&#x3c0;" 
d="M548 369h-70v-369h-109v369h-158v-369h-109v369h-70v97h516v-97z" />
    <glyph glyph-name="uni0401" unicode="&#x401;" horiz-adv-x="545" 
d="M188 597v-198h289v-103h-289v-193h289v-103h-404v700h404v-103h-289zM310 855c0 45 36 81 80 81c45 0 81 -36 81 -81c0 -44 -36 -80 -81 -80c-44 0 -80 36 -80 80zM81 855c0 45 36 81 80 81c45 0 81 -36 81 -81c0 -44 -36 -80 -81 -80c-44 0 -80 36 -80 80z" />
    <glyph glyph-name="uni0402" unicode="&#x402;" horiz-adv-x="693" 
d="M626 -109c0 -80 -54 -134 -134 -134h-74v103h48c28 0 45 17 45 44v337c0 80 -24 141 -101 141c-76 0 -112 -61 -112 -141v-241h-115v597h-173v103h462v-103h-174v-196c29 51 85 77 154 77c68 0 115 -24 142 -63c23 -35 32 -74 32 -138v-386z" />
    <glyph glyph-name="uni0403" unicode="&#x403;" horiz-adv-x="477" 
d="M188 730l-52 85l249 137l52 -85zM73 700h404v-103h-289v-597h-115v700z" />
    <glyph glyph-name="uni0404" unicode="&#x404;" horiz-adv-x="737" 
d="M699 225c-21 -136 -136 -242 -309 -242c-243 0 -352 177 -352 367s109 367 352 367c171 0 288 -105 309 -240h-126c-13 79 -87 137 -183 137c-145 0 -212 -97 -228 -212h314v-104h-314c16 -115 83 -212 228 -212c97 0 171 59 184 139h125z" />
    <glyph glyph-name="uni0405" unicode="&#x405;" horiz-adv-x="569" 
d="M157 229c0 -92 56 -143 136 -143c64 0 115 41 115 104c0 70 -63 95 -111 111c-128 45 -231 84 -231 224c0 116 100 192 217 192c126 0 223 -89 223 -219h-115c0 69 -40 116 -105 116c-57 0 -105 -29 -105 -89c0 -57 50 -85 102 -103c109 -40 240 -85 240 -219
c0 -144 -109 -220 -240 -220c-127 0 -241 90 -241 246h115z" />
    <glyph glyph-name="uni0406" unicode="&#x406;" horiz-adv-x="265" 
d="M73 700h119v-700h-119v700z" />
    <glyph glyph-name="uni0407" unicode="&#x407;" horiz-adv-x="265" 
d="M147 855c0 45 36 81 80 81c45 0 81 -36 81 -81c0 -44 -36 -80 -81 -80c-44 0 -80 36 -80 80zM-42 855c0 45 36 81 80 81c45 0 81 -36 81 -81c0 -44 -36 -80 -81 -80c-44 0 -80 36 -80 80zM73 700h119v-700h-119v700z" />
    <glyph glyph-name="uni0408" unicode="&#x408;" horiz-adv-x="536" 
d="M468 227c0 -136 -82 -244 -229 -244c-145 0 -227 109 -227 245h115c0 -84 36 -142 112 -142s114 57 114 141v473h115v-473z" />
    <glyph glyph-name="uni0409" unicode="&#x409;" horiz-adv-x="927" 
d="M692 102c55 0 90 45 90 101s-35 101 -90 101h-102v-202h102zM475 597h-252v-475c0 -80 -54 -134 -134 -134h-79v103h48c31 0 50 17 50 44v565h482v-294h102c124 0 205 -94 205 -203c0 -110 -81 -203 -205 -203h-217v597z" />
    <glyph glyph-name="uni040A" unicode="&#x40a;" horiz-adv-x="929" 
d="M592 406h102c124 0 205 -94 205 -203c0 -110 -81 -203 -205 -203h-217v303h-289v-303h-115v700h115v-294h289v294h115v-294zM592 304v-202h102c55 0 90 45 90 101s-35 101 -90 101h-102z" />
    <glyph glyph-name="uni040B" unicode="&#x40b;" horiz-adv-x="691" 
d="M298 597v-196c29 51 85 77 154 77c68 0 115 -24 142 -63c23 -35 32 -74 32 -138v-277h-115v241c0 80 -24 141 -101 141c-76 0 -112 -61 -112 -141v-241h-115v597h-173v103h462v-103h-174z" />
    <glyph glyph-name="uni040C" unicode="&#x40c;" horiz-adv-x="605" 
d="M188 425h11c41 0 78 24 110 77l55 91c39 65 90 112 163 112h41v-103h-20c-29 0 -63 -10 -88 -54l-44 -77c-28 -51 -71 -90 -128 -103l302 -368h-147l-255 330v-330h-115v700h115v-275zM212 730l-52 85l249 137l52 -85z" />
    <glyph glyph-name="uni040E" unicode="&#x40e;" horiz-adv-x="612" 
d="M304 862c51 0 84 28 97 72h102c-16 -88 -98 -156 -199 -156c-105 0 -183 68 -199 156h102c13 -44 46 -72 97 -72zM260 0h-126l139 280l-262 420h133l187 -301l150 301h126z" />
    <glyph glyph-name="uni040F" unicode="&#x40f;" horiz-adv-x="650" 
d="M274 -91v91h-201v700h115v-597h274v597h115v-700h-200v-91h-103z" />
    <glyph glyph-name="uni0410" unicode="&#x410;" horiz-adv-x="571" 
d="M447 0l-30 89h-263l-30 -89h-121l242 700h81l242 -700h-121zM286 509l-97 -317h193z" />
    <glyph glyph-name="uni0411" unicode="&#x411;" horiz-adv-x="583" 
d="M492 597h-304v-191h150c124 0 205 -94 205 -203c0 -110 -81 -203 -205 -203h-265v700h419v-103zM188 304v-202h150c55 0 90 45 90 101s-35 101 -90 101h-150z" />
    <glyph glyph-name="uni0412" unicode="&#x412;" horiz-adv-x="598" 
d="M73 700h239c192 0 225 -117 225 -189c0 -88 -64 -142 -123 -155c44 0 129 -52 129 -158c0 -73 -38 -198 -230 -198h-240v700zM188 303v-200h130c93 0 110 58 110 99c0 35 -21 101 -109 101h-131zM312 406c93 0 110 60 110 95s-17 96 -110 96h-124v-191h124z" />
    <glyph glyph-name="uni0413" unicode="&#x413;" horiz-adv-x="477" 
d="M73 700h404v-103h-289v-597h-115v700z" />
    <glyph glyph-name="uni0414" unicode="&#x414;" horiz-adv-x="706" 
d="M14 -91v194h10c55 0 100 19 132 56s51 92 51 168v373h412v-597h47v-194h-103v91h-445v-91h-104zM503 103v494h-183v-176c0 -155 -20 -283 -109 -318h292z" />
    <glyph glyph-name="uni0415" unicode="&#x415;" horiz-adv-x="545" 
d="M188 597v-198h289v-103h-289v-193h289v-103h-404v700h404v-103h-289z" />
    <glyph glyph-name="uni0416" unicode="&#x416;" horiz-adv-x="874" 
d="M152 0h-147l275 367c-48 13 -88 61 -115 109l-41 72c-25 44 -56 54 -85 54h-19v103h35c73 0 124 -45 163 -112l55 -96c31 -55 61 -87 98 -87h11v290h110v-290h11c37 0 67 32 98 87l55 96c39 67 90 112 163 112h35v-103h-19c-29 0 -60 -10 -85 -54l-41 -72
c-27 -48 -67 -96 -115 -109l275 -367h-147l-230 330v-330h-110v330z" />
    <glyph glyph-name="uni0417" unicode="&#x417;" horiz-adv-x="585" 
d="M159 234c0 -91 65 -143 139 -143c76 0 117 52 117 109c0 66 -33 107 -136 107h-42v102h43c95 0 123 50 123 101c0 55 -42 99 -113 99c-70 0 -127 -41 -127 -116h-115c0 130 104 219 248 219c120 0 222 -64 222 -192c0 -80 -48 -137 -111 -154c66 -13 123 -71 123 -165
c0 -127 -102 -213 -234 -213c-145 0 -252 90 -252 246h115z" />
    <glyph glyph-name="uni0418" unicode="&#x418;" horiz-adv-x="664" 
d="M476 484l-288 -436v-48h-115v700h115v-484l288 436v48h115v-700h-115v484z" />
    <glyph glyph-name="uni0419" unicode="&#x419;" horiz-adv-x="664" 
d="M476 484l-288 -436v-48h-115v700h115v-484l288 436v48h115v-700h-115v484zM337 862c51 0 84 28 97 72h102c-16 -88 -98 -156 -199 -156c-105 0 -183 68 -199 156h102c13 -44 46 -72 97 -72z" />
    <glyph glyph-name="uni041A" unicode="&#x41a;" horiz-adv-x="605" 
d="M188 425h11c41 0 78 24 110 77l55 91c39 65 90 112 163 112h41v-103h-20c-29 0 -63 -10 -88 -54l-44 -77c-28 -51 -71 -90 -128 -103l302 -368h-147l-255 330v-330h-115v700h115v-275z" />
    <glyph glyph-name="uni041B" unicode="&#x41b;" horiz-adv-x="663" 
d="M10 91h48c31 0 50 17 50 44v565h482v-700h-115v597h-252v-475c0 -80 -54 -134 -134 -134h-79v103z" />
    <glyph glyph-name="uni041C" unicode="&#x41c;" horiz-adv-x="813" 
d="M740 0h-115v433l-175 -433h-87l-175 433v-433h-115v700h110l224 -521l223 521h110v-700z" />
    <glyph glyph-name="uni041D" unicode="&#x41d;" horiz-adv-x="665" 
d="M477 296h-289v-296h-115v700h115v-301h289v301h115v-700h-115v296z" />
    <glyph glyph-name="uni041E" unicode="&#x41e;" horiz-adv-x="800" 
d="M400 -17c-225 0 -362 177 -362 367s137 367 362 367s362 -177 362 -367s-137 -367 -362 -367zM400 86c149 0 241 128 241 264s-92 264 -241 264s-241 -128 -241 -264s92 -264 241 -264z" />
    <glyph glyph-name="uni041F" unicode="&#x41f;" horiz-adv-x="664" 
d="M188 597v-597h-115v700h518v-700h-115v597h-288z" />
    <glyph glyph-name="uni0420" unicode="&#x420;" horiz-adv-x="596" 
d="M73 700h251c149 0 247 -113 247 -245s-98 -245 -247 -245h-136v-210h-115v700zM324 313c80 0 132 66 132 142s-52 142 -132 142h-136v-284h136z" />
    <glyph glyph-name="uni0421" unicode="&#x421;" horiz-adv-x="775" 
d="M738 225c-32 -136 -159 -242 -332 -242c-228 0 -368 172 -368 368c0 189 136 366 356 366c208 0 323 -121 344 -272h-121c-16 96 -94 169 -208 169c-161 0 -253 -127 -253 -263c0 -144 94 -265 265 -265c81 0 167 59 191 139h126z" />
    <glyph glyph-name="uni0422" unicode="&#x422;" horiz-adv-x="482" 
d="M183 597h-173v103h462v-103h-174v-597h-115v597z" />
    <glyph glyph-name="uni0423" unicode="&#x423;" horiz-adv-x="612" 
d="M260 0h-126l139 280l-262 420h133l187 -301l150 301h126z" />
    <glyph glyph-name="uni0424" unicode="&#x424;" horiz-adv-x="775" 
d="M445 91v-91h-115v91h-58c-150 0 -247 118 -247 259s97 259 247 259h58v91h115v-91h58c149 0 247 -118 247 -259s-98 -259 -247 -259h-58zM330 194v312h-58c-80 0 -132 -71 -132 -156s52 -156 132 -156h58zM445 506v-312h58c80 0 132 71 132 156s-52 156 -132 156h-58z
" />
    <glyph glyph-name="uni0425" unicode="&#x425;" horiz-adv-x="562" 
d="M424 700h130l-208 -350l208 -350h-130l-143 250l-143 -250h-130l208 350l-208 350h130l143 -251z" />
    <glyph glyph-name="uni0426" unicode="&#x426;" horiz-adv-x="678" 
d="M565 -91v91h-492v700h115v-597h274v597h115v-597h91v-194h-103z" />
    <glyph glyph-name="uni0427" unicode="&#x427;" horiz-adv-x="586" 
d="M398 0v210h-133c-144 0 -230 102 -230 225v265h115v-235c0 -96 53 -152 137 -152h111v387h115v-700h-115z" />
    <glyph glyph-name="uni0428" unicode="&#x428;" horiz-adv-x="905" 
d="M73 0v700h115v-597h207v597h115v-597h207v597h115v-700h-759z" />
    <glyph glyph-name="uni0429" unicode="&#x429;" horiz-adv-x="933" 
d="M808 -91v91h-735v700h115v-597h207v597h115v-597h207v597h115v-597h91v-194h-115z" />
    <glyph glyph-name="uni042A" unicode="&#x42a;" horiz-adv-x="645" 
d="M260 304v-202h150c55 0 90 45 90 101s-35 101 -90 101h-150zM10 700h250v-294h150c124 0 205 -94 205 -203c0 -110 -81 -203 -205 -203h-265v597h-135v103z" />
    <glyph glyph-name="uni042B" unicode="&#x42b;" horiz-adv-x="757" 
d="M188 700v-294h126c124 0 205 -94 205 -203c0 -110 -81 -203 -205 -203h-241v700h115zM188 304v-202h126c55 0 90 45 90 101s-35 101 -90 101h-126zM569 700h115v-700h-115v700z" />
    <glyph glyph-name="uni042C" unicode="&#x42c;" horiz-adv-x="573" 
d="M188 700v-294h150c124 0 205 -94 205 -203c0 -110 -81 -203 -205 -203h-265v700h115zM188 304v-202h150c55 0 90 45 90 101s-35 101 -90 101h-150z" />
    <glyph glyph-name="uni042D" unicode="&#x42d;" horiz-adv-x="746" 
d="M270 401h317c-16 126 -92 213 -215 213c-121 0 -193 -73 -212 -169h-121c24 151 129 272 338 272c211 0 331 -162 331 -366c0 -212 -124 -368 -343 -368c-170 0 -295 106 -327 242h126c24 -80 116 -139 201 -139c129 0 205 82 222 211h-317v104z" />
    <glyph glyph-name="uni042E" unicode="&#x42e;" horiz-adv-x="1065" 
d="M665 -17c-204 0 -335 144 -359 313h-118v-296h-115v700h115v-301h118c21 170 153 318 359 318c225 0 362 -177 362 -367s-137 -367 -362 -367zM665 86c149 0 241 128 241 264s-92 264 -241 264s-241 -128 -241 -264s92 -264 241 -264z" />
    <glyph glyph-name="uni042F" unicode="&#x42f;" horiz-adv-x="609" 
d="M536 0h-115v210h-115l-128 -210h-131l139 228c-92 37 -148 128 -148 227c0 132 97 245 247 245h251v-700zM285 313h136v284h-136c-80 0 -132 -66 -132 -142s52 -142 132 -142z" />
    <glyph glyph-name="uni0430" unicode="&#x430;" horiz-adv-x="603" 
d="M530 466v-466h-109v63c-29 -47 -89 -75 -144 -75c-141 0 -239 113 -239 245s98 245 239 245c55 0 115 -28 144 -75v63h109zM283 85c83 0 138 68 138 148s-55 148 -138 148s-136 -68 -136 -148s53 -148 136 -148z" />
    <glyph glyph-name="uni0431" unicode="&#x431;" horiz-adv-x="582" 
d="M542 232c0 -132 -98 -245 -239 -245c-79 0 -141 27 -185 82c-44 56 -68 137 -68 249c0 174 49 259 102 307c65 59 146 75 247 75h95v-105h-124c-60 0 -115 -10 -154 -49c-39 -40 -61 -102 -68 -181c27 74 103 113 170 113c145 0 224 -113 224 -245v-1zM297 84
c83 0 136 68 136 148s-53 148 -136 148c-85 0 -138 -63 -138 -148s53 -148 138 -148z" />
    <glyph glyph-name="uni0432" unicode="&#x432;" horiz-adv-x="490" 
d="M73 466h214c132 0 154 -76 154 -123c0 -55 -49 -99 -108 -102c60 -3 117 -40 117 -112c0 -46 -29 -129 -170 -129h-207v466zM179 199v-123h103c35 0 59 28 59 61s-24 62 -59 62h-103zM278 275c33 0 54 26 54 57c0 32 -21 58 -54 58h-99v-115h99z" />
    <glyph glyph-name="uni0433" unicode="&#x433;" horiz-adv-x="359" 
d="M359 466v-91h-177v-375h-109v466h286z" />
    <glyph glyph-name="uni0434" unicode="&#x434;" horiz-adv-x="556" 
d="M10 -104v189h10c76 0 109 61 109 139v242h361v-381h36v-189h-97v104h-322v-104h-97zM388 85v296h-157v-142c0 -75 -15 -131 -66 -154h223z" />
    <glyph glyph-name="uni0435" unicode="&#x435;" horiz-adv-x="530" 
d="M147 200c5 -67 34 -121 125 -121c63 0 86 28 99 61h110c-13 -80 -90 -152 -209 -152c-156 0 -233 108 -233 245c0 140 83 245 230 245c121 0 216 -91 216 -210c0 -16 0 -37 -5 -68h-333zM266 396c-68 0 -119 -39 -119 -115h232c0 72 -46 115 -113 115z" />
    <glyph glyph-name="uni0436" unicode="&#x436;" horiz-adv-x="674" 
d="M128 0h-123l199 242c-29 3 -70 24 -90 59l-25 43c-15 26 -34 39 -58 39h-21v88h38c45 0 83 -11 118 -68l48 -81c20 -33 37 -50 62 -50h10v194h102v-194h10c25 0 42 17 62 50l48 81c35 57 73 68 118 68h38v-88h-21c-24 0 -43 -13 -58 -39l-25 -43c-20 -35 -61 -56 -90 -59
l199 -242h-123l-158 212v-212h-102v212z" />
    <glyph glyph-name="uni0437" unicode="&#x437;" horiz-adv-x="442" 
d="M136 144c0 -40 29 -67 89 -67c41 0 73 17 73 54s-25 64 -82 64h-53v76h47c59 0 78 24 78 63c0 33 -28 58 -72 58c-56 0 -74 -30 -74 -67h-106c0 92 70 153 181 153c108 0 175 -53 175 -129c0 -67 -39 -101 -95 -109c59 -7 105 -45 105 -113c0 -88 -86 -139 -185 -139
c-120 0 -187 61 -187 156h106z" />
    <glyph glyph-name="uni0438" unicode="&#x438;" horiz-adv-x="571" 
d="M389 300l-207 -261v-39h-109v466h109v-305l207 263v42h109v-466h-109v300z" />
    <glyph glyph-name="uni0439" unicode="&#x439;" horiz-adv-x="571" 
d="M389 300l-207 -261v-39h-109v466h109v-305l207 263v42h109v-466h-109v300zM293 628c51 0 84 28 97 72h102c-16 -88 -98 -156 -199 -156c-105 0 -183 68 -199 156h102c13 -44 46 -72 97 -72z" />
    <glyph glyph-name="uni043A" unicode="&#x43a;" horiz-adv-x="509" 
d="M182 272h10c24 0 43 18 66 50l60 86c31 45 63 63 112 63h49v-88h-26c-21 0 -43 -6 -60 -31l-31 -46c-29 -44 -62 -53 -90 -60l217 -246h-129l-178 212v-212h-109v466h109v-194z" />
    <glyph glyph-name="uni043B" unicode="&#x43b;" horiz-adv-x="570" 
d="M20 89h26c28 0 45 10 45 38v339h406v-466h-109v375h-188v-259c0 -76 -49 -124 -129 -124h-51v97z" />
    <glyph glyph-name="uni043C" unicode="&#x43c;" horiz-adv-x="718" 
d="M645 0h-99v372l-150 -372h-74l-150 372v-372h-99v466h158l128 -319l128 319h158v-466z" />
    <glyph glyph-name="uni043D" unicode="&#x43d;" horiz-adv-x="577" 
d="M395 191h-213v-191h-109v466h109v-184h213v184h109v-466h-109v191z" />
    <glyph glyph-name="uni043E" unicode="&#x43e;" horiz-adv-x="568" 
d="M283 -12c-148 0 -245 113 -245 245s97 245 245 245c149 0 247 -113 247 -245s-98 -245 -247 -245zM283 85c83 0 138 68 138 148s-55 148 -138 148s-136 -68 -136 -148s53 -148 136 -148z" />
    <glyph glyph-name="uni043F" unicode="&#x43f;" horiz-adv-x="567" 
d="M494 0h-109v375h-203v-375h-109v466h421v-466z" />
    <glyph glyph-name="uni0440" unicode="&#x440;" horiz-adv-x="605" 
d="M182 403c29 47 89 75 144 75c141 0 239 -113 239 -245s-98 -245 -239 -245c-55 0 -115 28 -144 75v-297h-109v700h109v-63zM320 381c-85 0 -138 -68 -138 -148s53 -148 138 -148c83 0 136 68 136 148s-53 148 -136 148z" />
    <glyph glyph-name="uni0441" unicode="&#x441;" horiz-adv-x="534" 
d="M384 296c-7 51 -35 85 -110 85c-84 0 -125 -69 -125 -148c0 -80 39 -148 132 -148c64 0 89 28 104 75h109c-16 -97 -85 -172 -221 -172c-152 0 -233 118 -233 245c0 126 81 245 232 245c152 0 213 -92 221 -182h-109z" />
    <glyph glyph-name="uni0442" unicode="&#x442;" horiz-adv-x="397" 
d="M387 466v-91h-135v-375h-109v375h-133v91h377z" />
    <glyph glyph-name="uni0443" unicode="&#x443;" horiz-adv-x="578" 
d="M283 -245c-63 0 -116 16 -155 48s-62 80 -63 144h110c5 -68 53 -100 110 -100c67 0 114 24 114 111v107c-29 -51 -83 -77 -152 -77c-68 0 -113 24 -140 63c-23 35 -30 74 -30 138v277h109v-241c0 -80 24 -141 101 -141c76 0 112 61 112 141v241h109v-508
c0 -67 -19 -118 -58 -153c-38 -33 -94 -50 -167 -50z" />
    <glyph glyph-name="uni0444" unicode="&#x444;" horiz-adv-x="638" 
d="M272 -11c-136 11 -234 117 -234 244c0 125 98 233 234 244v223h94v-223c136 -11 234 -119 234 -244s-98 -233 -234 -244v-222h-94v222zM494 233c0 79 -44 148 -128 153v-306c84 0 128 74 128 153zM144 233c0 -77 44 -153 128 -153v306c-84 -5 -128 -75 -128 -153z" />
    <glyph glyph-name="uni0445" unicode="&#x445;" horiz-adv-x="446" 
d="M438 0h-126l-89 150l-89 -150h-126l152 235l-149 231h126l86 -146l86 146h126l-149 -231z" />
    <glyph glyph-name="uni0446" unicode="&#x446;" horiz-adv-x="594" 
d="M456 -75v75h-383v466h109v-375h198v375h109v-375h75v-166h-108z" />
    <glyph glyph-name="uni0447" unicode="&#x447;" horiz-adv-x="492" 
d="M310 0v134h-108c-104 0 -162 52 -162 157v175h109v-173c0 -45 23 -68 70 -68h91v241h109v-466h-109z" />
    <glyph glyph-name="uni0448" unicode="&#x448;" horiz-adv-x="783" 
d="M446 91h155v375h109v-466h-637v466h109v-375h155v375h109v-375z" />
    <glyph glyph-name="uni0449" unicode="&#x449;" horiz-adv-x="815" 
d="M677 -75v75h-604v466h109v-375h155v375h109v-375h155v375h109v-375h75v-166h-108z" />
    <glyph glyph-name="uni044A" unicode="&#x44a;" horiz-adv-x="510" 
d="M100 375h-85v91h187v-150h114c103 0 154 -71 154 -158c0 -85 -51 -158 -154 -158h-216v375zM202 230v-144h94c51 0 74 29 74 72s-23 72 -74 72h-94z" />
    <glyph glyph-name="uni044B" unicode="&#x44b;" horiz-adv-x="674" 
d="M493 466h108v-466h-108v466zM73 466h102v-150h114c103 0 154 -71 154 -158c0 -85 -51 -158 -154 -158h-216v466zM175 230v-144h94c51 0 74 29 74 72s-23 72 -74 72h-94z" />
    <glyph glyph-name="uni044C" unicode="&#x44c;" horiz-adv-x="483" 
d="M73 466h102v-150h114c103 0 154 -71 154 -158c0 -85 -51 -158 -154 -158h-216v466zM175 230v-144h94c51 0 74 29 74 72s-23 72 -74 72h-94z" />
    <glyph glyph-name="uni044D" unicode="&#x44d;" horiz-adv-x="542" 
d="M41 296c3 101 89 182 223 182c164 0 240 -119 240 -245c0 -127 -76 -245 -240 -245c-136 0 -221 76 -224 172h109c8 -44 44 -75 120 -75c81 0 117 42 124 107h-181v81h181c-7 64 -43 108 -124 108c-76 0 -111 -36 -119 -85h-109z" />
    <glyph glyph-name="uni044E" unicode="&#x44e;" horiz-adv-x="769" 
d="M484 85c83 0 138 68 138 148s-55 148 -138 148s-136 -68 -136 -148s53 -148 136 -148zM182 188v-188h-109v466h109v-187h61c19 110 110 199 241 199c149 0 247 -113 247 -245s-98 -245 -247 -245c-131 0 -222 88 -241 200h-61z" />
    <glyph glyph-name="uni044F" unicode="&#x44f;" horiz-adv-x="519" 
d="M134 155c-64 23 -104 83 -104 150c0 88 65 161 165 161h251v-466h-107v143h-94l-86 -143h-126zM339 233v145h-120c-48 0 -78 -34 -78 -73s30 -72 78 -72h120z" />
    <glyph glyph-name="uni0451" unicode="&#x451;" horiz-adv-x="530" 
d="M147 200c5 -67 34 -121 125 -121c63 0 86 28 99 61h110c-13 -80 -90 -152 -209 -152c-156 0 -233 108 -233 245c0 140 83 245 230 245c121 0 216 -91 216 -210c0 -16 0 -37 -5 -68h-333zM266 396c-68 0 -119 -39 -119 -115h232c0 72 -46 115 -113 115zM307 614
c0 45 36 81 80 81c45 0 81 -36 81 -81c0 -44 -36 -80 -81 -80c-44 0 -80 36 -80 80zM78 614c0 45 36 81 80 81c45 0 81 -36 81 -81c0 -44 -36 -80 -81 -80c-44 0 -80 36 -80 80z" />
    <glyph glyph-name="uni0452" unicode="&#x452;" horiz-adv-x="595" 
d="M208 530v-129c29 51 83 77 152 77c68 0 113 -24 140 -63c23 -35 30 -74 30 -138v-386c0 -80 -54 -134 -134 -134h-68v90h48c28 0 45 17 45 44v350c0 80 -24 141 -101 141c-76 0 -112 -61 -112 -141v-241h-109v530h-79v72h79v98h109v-98h107v-72h-107z" />
    <glyph glyph-name="uni0453" unicode="&#x453;" horiz-adv-x="359" 
d="M116 495l-52 85l249 137l52 -85zM359 466v-91h-177v-375h-109v466h286z" />
    <glyph glyph-name="uni0454" unicode="&#x454;" horiz-adv-x="547" 
d="M392 296c-8 49 -43 85 -119 85c-81 0 -119 -44 -124 -108h181v-81h-181c5 -65 43 -107 124 -107c76 0 112 31 120 75h109c-3 -96 -88 -172 -224 -172c-164 0 -240 118 -240 245c0 126 76 245 240 245c134 0 220 -81 223 -182h-109z" />
    <glyph glyph-name="uni0455" unicode="&#x455;" horiz-adv-x="454" 
d="M285 263c65 -24 127 -49 127 -133c0 -97 -84 -142 -186 -142c-100 0 -190 60 -190 169h106c0 -61 38 -83 90 -83c43 0 76 14 76 54c0 42 -47 48 -145 85c-65 24 -111 49 -111 130c0 88 80 135 175 135c99 0 178 -67 178 -158h-106c0 44 -22 72 -75 72
c-37 0 -67 -18 -67 -51c0 -39 42 -46 128 -78z" />
    <glyph glyph-name="uni0456" unicode="&#x456;" horiz-adv-x="255" 
d="M73 466h109v-466h-109v466zM47 636c0 45 36 81 80 81c45 0 81 -36 81 -81c0 -44 -36 -80 -81 -80c-44 0 -80 36 -80 80z" />
    <glyph glyph-name="uni0457" unicode="&#x457;" horiz-adv-x="255" 
d="M73 466h109v-466h-109v466zM142 636c0 45 36 81 80 81c45 0 81 -36 81 -81c0 -44 -36 -80 -81 -80c-44 0 -80 36 -80 80zM-47 636c0 45 36 81 80 81c45 0 81 -36 81 -81c0 -44 -36 -80 -81 -80c-44 0 -80 36 -80 80z" />
    <glyph glyph-name="uni0458" unicode="&#x458;" horiz-adv-x="255" 
d="M182 -109c0 -104 -55 -135 -108 -135c-31 0 -61 4 -74 11v95c21 -3 29 -3 38 -3c23 0 35 16 35 49v558h109v-575zM47 636c0 45 36 81 80 81c45 0 81 -36 81 -81c0 -44 -36 -80 -81 -80c-44 0 -80 36 -80 80z" />
    <glyph glyph-name="uni0459" unicode="&#x459;" horiz-adv-x="805" 
d="M20 89h26c28 0 45 15 45 38v339h406v-150h114c91 0 154 -71 154 -158c0 -85 -63 -158 -154 -158h-223v375h-188v-259c0 -76 -49 -124 -129 -124h-51v97zM591 86c44 0 74 33 74 72c0 40 -30 72 -74 72h-94v-144h94z" />
    <glyph glyph-name="uni045A" unicode="&#x45a;" horiz-adv-x="799" 
d="M605 316c91 0 154 -71 154 -158c0 -85 -63 -158 -154 -158h-223v230h-200v-230h-109v466h109v-150h200v150h109v-150h114zM491 230v-144h94c44 0 74 33 74 72c0 40 -30 72 -74 72h-94z" />
    <glyph glyph-name="uni045B" unicode="&#x45b;" horiz-adv-x="595" 
d="M99 530h-79v72h79v98h109v-98h107v-72h-107v-129c29 51 83 77 152 77c68 0 113 -24 140 -63c23 -35 30 -74 30 -138v-277h-109v241c0 80 -24 141 -101 141c-76 0 -112 -61 -112 -141v-241h-109v530z" />
    <glyph glyph-name="uni045C" unicode="&#x45c;" horiz-adv-x="509" 
d="M182 272h10c24 0 43 18 66 50l60 86c31 45 63 63 112 63h49v-88h-26c-21 0 -43 -6 -60 -31l-31 -46c-29 -44 -62 -53 -90 -60l217 -246h-129l-178 212v-212h-109v466h109v-194zM189 495l-52 85l249 137l52 -85z" />
    <glyph glyph-name="uni045E" unicode="&#x45e;" horiz-adv-x="578" 
d="M283 -245c-63 0 -116 16 -155 48s-62 80 -63 144h110c5 -68 53 -100 110 -100c67 0 114 24 114 111v107c-29 -51 -83 -77 -152 -77c-68 0 -113 24 -140 63c-23 35 -30 74 -30 138v277h109v-241c0 -80 24 -141 101 -141c76 0 112 61 112 141v241h109v-508
c0 -67 -19 -118 -58 -153c-38 -33 -94 -50 -167 -50zM293 628c51 0 84 28 97 72h102c-16 -88 -98 -156 -199 -156c-105 0 -183 68 -199 156h102c13 -44 46 -72 97 -72z" />
    <glyph glyph-name="uni045F" unicode="&#x45f;" horiz-adv-x="577" 
d="M240 -75v75h-167v466h109v-375h213v375h109v-466h-167v-75h-97z" />
    <glyph glyph-name="uni0462" unicode="&#x462;" horiz-adv-x="571" 
d="M186 304v-202h150c55 0 90 45 90 101s-35 101 -90 101h-150zM348 700v-97h-162v-197h150c124 0 205 -94 205 -203c0 -110 -81 -203 -205 -203h-265v603h-61v97h338z" />
    <glyph glyph-name="uni0463" unicode="&#x463;" horiz-adv-x="486" 
d="M76 467h-56v72h56v162h102v-162h100v-72h-100v-151h114c103 0 154 -71 154 -158c0 -85 -51 -158 -154 -158h-216v467zM178 230v-144h94c51 0 74 29 74 72s-23 72 -74 72h-94z" />
    <glyph glyph-name="uni0472" unicode="&#x472;" horiz-adv-x="800" 
d="M400 -17c-225 0 -362 177 -362 367s137 367 362 367s362 -177 362 -367s-137 -367 -362 -367zM400 614c-137 0 -223 -106 -239 -227h478c-16 121 -103 227 -239 227zM400 86c137 0 223 106 239 229h-478c13 -123 103 -229 239 -229z" />
    <glyph glyph-name="uni0473" unicode="&#x473;" horiz-adv-x="568" 
d="M283 -12c-148 0 -245 113 -245 245s97 245 245 245c149 0 247 -113 247 -245s-98 -245 -247 -245zM283 381c-71 0 -119 -48 -132 -112h266c-15 64 -62 112 -134 112zM283 85c72 0 119 48 134 112h-266c13 -64 61 -112 132 -112z" />
    <glyph glyph-name="uni0474" unicode="&#x474;" horiz-adv-x="599" 
d="M325 0h-81l-242 700h121l162 -509l129 402c25 81 65 112 138 112h45v-103h-24c-29 0 -51 -6 -67 -54z" />
    <glyph glyph-name="uni0475" unicode="&#x475;" horiz-adv-x="511" 
d="M282 0h-73l-208 466h117l128 -310l88 207c31 73 60 108 131 108h45v-103h-24c-29 0 -41 -9 -62 -54z" />
    <glyph glyph-name="uni048A" unicode="&#x48a;" horiz-adv-x="673" 
d="M337 862c51 0 84 28 97 72h102c-16 -88 -98 -156 -199 -156c-105 0 -183 68 -199 156h102c13 -44 46 -72 97 -72zM476 0v484l-288 -436v-48h-115v700h115v-484l288 436v48h115v-597h62v-194h-115v91h-62z" />
    <glyph glyph-name="uni048B" unicode="&#x48b;" horiz-adv-x="583" 
d="M293 628c51 0 84 28 97 72h102c-16 -88 -98 -156 -199 -156c-105 0 -183 68 -199 156h102c13 -44 46 -72 97 -72zM389 0v300l-207 -261v-39h-109v466h109v-305l207 263v42h109v-375h75v-166h-108v75h-76z" />
    <glyph glyph-name="uni048C" unicode="&#x48c;" horiz-adv-x="576" 
d="M191 700v-84h167v-87h-167v-123h150c124 0 205 -94 205 -203c0 -110 -81 -203 -205 -203h-265v529h-56v87h56v84h115zM191 304v-202h150c55 0 90 45 90 101s-35 101 -90 101h-150z" />
    <glyph glyph-name="uni048D" unicode="&#x48d;" horiz-adv-x="483" 
d="M73 354h-50v72h50v40h102v-40h106v-72h-106v-38h114c103 0 154 -71 154 -158c0 -85 -51 -158 -154 -158h-216v354zM175 230v-144h94c51 0 74 29 74 72s-23 72 -74 72h-94z" />
    <glyph glyph-name="uni048E" unicode="&#x48e;" horiz-adv-x="596" 
d="M73 700h251c149 0 247 -113 247 -245c0 -80 -36 -153 -97 -198l58 -57l-51 -51l-74 74c-27 -8 -52 -13 -83 -13h-136v-210h-115v700zM319 412l77 -78c39 27 60 70 60 121c0 76 -52 142 -132 142h-136v-284h128l-48 48z" />
    <glyph glyph-name="uni048F" unicode="&#x48f;" horiz-adv-x="605" 
d="M182 403c29 47 89 75 144 75c141 0 239 -113 239 -245c0 -69 -26 -132 -71 -177l64 -63l-51 -51l-72 71c-33 -17 -70 -25 -109 -25c-55 0 -115 28 -144 75v-297h-109v700h109v-63zM345 205l75 -75c24 28 36 62 36 103c0 80 -53 148 -136 148c-85 0 -138 -68 -138 -148
s53 -148 138 -148c12 0 25 2 38 5l-64 64z" />
    <glyph glyph-name="uni0490" unicode="&#x490;" horiz-adv-x="477" 
d="M73 700h301v91h103v-194h-289v-597h-115v700z" />
    <glyph glyph-name="uni0491" unicode="&#x491;" horiz-adv-x="384" 
d="M288 466v75h96v-166h-202v-375h-109v466h215z" />
    <glyph glyph-name="uni0492" unicode="&#x492;" horiz-adv-x="533" 
d="M244 441h87v-87h-87v-354h-115v354h-56v87h56v259h404v-103h-289v-156z" />
    <glyph glyph-name="uni0493" unicode="&#x493;" horiz-adv-x="357" 
d="M180 281h93v-72h-93v-209h-109v209h-56v72h56v185h286v-91h-177v-94z" />
    <glyph glyph-name="uni0494" unicode="&#x494;" horiz-adv-x="583" 
d="M188 597v-196c29 51 85 77 154 77c68 0 115 -24 142 -63c23 -35 32 -74 32 -138v-386c0 -80 -54 -134 -134 -134h-74v103h48c28 0 45 17 45 44v337c0 80 -24 141 -101 141c-76 0 -112 -61 -112 -141v-241h-115v700h289v-103h-174z" />
    <glyph glyph-name="uni0495" unicode="&#x495;" horiz-adv-x="521" 
d="M182 466v-225c23 51 64 77 117 77c60 0 102 -24 125 -63c23 -35 30 -74 30 -138v-226c0 -80 -54 -134 -134 -134h-68v90h48c28 0 45 17 45 44v220c0 63 -17 111 -76 111c-60 0 -87 -47 -87 -111v-111h-109v466h109z" />
    <glyph glyph-name="uni0496" unicode="&#x496;" horiz-adv-x="874" 
d="M766 -91v91h-44l-230 330v-330h-110v330l-230 -330h-147l275 367c-48 13 -88 61 -115 109l-41 72c-25 44 -56 54 -85 54h-19v103h35c73 0 124 -45 163 -112l55 -96c31 -55 61 -87 98 -87h11v290h110v-290h11c37 0 67 32 98 87l55 96c39 67 90 112 163 112h35v-103h-19
c-29 0 -60 -10 -85 -54l-41 -72c-27 -48 -67 -96 -115 -109l275 -367v-91h-103z" />
    <glyph glyph-name="uni0497" unicode="&#x497;" horiz-adv-x="674" 
d="M128 0h-123l199 242c-29 3 -70 24 -90 59l-25 43c-15 26 -34 39 -58 39h-21v88h38c45 0 83 -11 118 -68l48 -81c20 -33 37 -50 62 -50h10v194h102v-194h10c25 0 42 17 62 50l48 81c35 57 73 68 118 68h38v-88h-21c-24 0 -43 -13 -58 -39l-25 -43c-20 -35 -61 -56 -90 -59
l199 -242v-75h-78v75h-45l-158 212v-212h-102v212z" />
    <glyph glyph-name="uni0498" unicode="&#x498;" horiz-adv-x="585" 
d="M159 234c0 -91 65 -143 139 -143c76 0 117 52 117 109c0 66 -33 107 -136 107h-42v102h43c95 0 123 50 123 101c0 55 -42 99 -113 99c-70 0 -127 -41 -127 -116h-115c0 130 104 219 248 219c120 0 222 -64 222 -192c0 -80 -48 -137 -111 -154c66 -13 123 -71 123 -165
c0 -114 -83 -197 -195 -210v-50c10 9 24 13 42 13c36 0 74 -28 74 -81c0 -44 -33 -92 -102 -92c-15 0 -90 5 -101 81h64c6 -17 18 -25 37 -25c23 0 38 15 38 36c0 23 -16 37 -36 37c-15 0 -25 -6 -32 -18h-54v98c-129 11 -221 97 -221 244h115z" />
    <glyph glyph-name="uni0499" unicode="&#x499;" horiz-adv-x="442" 
d="M136 144c0 -40 29 -67 89 -67c41 0 73 17 73 54s-25 64 -82 64h-53v76h47c59 0 78 24 78 63c0 33 -28 58 -72 58c-56 0 -74 -30 -74 -67h-106c0 92 70 153 181 153c108 0 175 -53 175 -129c0 -67 -39 -101 -95 -109c59 -7 105 -45 105 -113c0 -77 -67 -125 -149 -136v-50
c10 9 24 13 42 13c36 0 74 -28 74 -81c0 -44 -33 -92 -102 -92c-15 0 -90 5 -101 81h64c6 -17 18 -25 37 -25c23 0 38 15 38 36c0 23 -16 37 -36 37c-15 0 -25 -6 -32 -18h-54v98c-99 11 -153 69 -153 154h106z" />
    <glyph glyph-name="uni049A" unicode="&#x49a;" horiz-adv-x="605" 
d="M487 -91v91h-44l-255 330v-330h-115v700h115v-275h11c41 0 78 24 110 77l55 91c39 65 90 112 163 112h41v-103h-20c-29 0 -63 -10 -88 -54l-44 -77c-28 -51 -71 -90 -128 -103l302 -368v-91h-103z" />
    <glyph glyph-name="uni049B" unicode="&#x49b;" horiz-adv-x="509" 
d="M411 -75v75h-51l-178 212v-212h-109v466h109v-194h10c24 0 43 18 66 50l60 86c31 45 63 63 112 63h49v-88h-26c-21 0 -43 -6 -60 -31l-31 -46c-29 -44 -62 -53 -90 -60l217 -246v-75h-78z" />
    <glyph glyph-name="uni049C" unicode="&#x49c;" horiz-adv-x="605" 
d="M231 414h2c41 0 66 31 91 88l40 91c31 71 90 112 163 112h41v-103h-20c-29 0 -70 -7 -88 -54l-31 -77c-21 -53 -54 -90 -111 -103l272 -368h-147l-212 311v-117h-20v117h-23v-311h-115v700h115v-286h23v139h20v-139z" />
    <glyph glyph-name="uni049D" unicode="&#x49d;" horiz-adv-x="509" 
d="M215 272h5c19 0 26 19 46 50l57 86c31 47 58 63 107 63h49v-88h-26c-21 0 -43 -6 -60 -31l-31 -46c-29 -42 -40 -54 -65 -60l192 -246h-129l-145 212v-103h-18v103h-15v-212h-109v466h109v-194h15v91h18v-91z" />
    <glyph glyph-name="uni049E" unicode="&#x49e;" horiz-adv-x="608" 
d="M76 700h115v-84h67v-77h-67v-114h11c41 0 78 24 110 77l55 91c39 65 90 112 163 112h41v-103h-20c-29 0 -63 -10 -88 -54l-44 -77c-28 -51 -71 -90 -128 -103l302 -368h-147l-255 330v-330h-115v539h-56v77h56v84z" />
    <glyph glyph-name="uni049F" unicode="&#x49f;" horiz-adv-x="507" 
d="M71 466h109v-50h63v-62h-63v-82h10c24 0 43 18 66 50l60 86c31 45 63 63 112 63h49v-88h-26c-21 0 -43 -6 -60 -31l-31 -46c-29 -44 -62 -53 -90 -60l217 -246h-129l-178 212v-212h-109v354h-56v62h56v50z" />
    <glyph glyph-name="uni04A0" unicode="&#x4a0;" horiz-adv-x="677" 
d="M10 597v103h250v-275h11c41 0 78 24 110 77l55 91c39 65 90 112 163 112h41v-103h-20c-29 0 -63 -10 -88 -54l-44 -77c-28 -51 -71 -90 -128 -103l302 -368h-147l-255 330v-330h-115v597h-135z" />
    <glyph glyph-name="uni04A1" unicode="&#x4a1;" horiz-adv-x="536" 
d="M15 375v91h194v-194h10c24 0 43 18 66 50l60 86c31 45 63 63 112 63h49v-88h-26c-21 0 -43 -6 -60 -31l-31 -46c-29 -44 -62 -53 -90 -60l217 -246h-129l-178 212v-212h-109v375h-85z" />
    <glyph glyph-name="uni04A2" unicode="&#x4a2;" horiz-adv-x="669" 
d="M477 0v296h-289v-296h-115v700h115v-301h289v301h115v-597h62v-194h-115v91h-62z" />
    <glyph glyph-name="uni04A3" unicode="&#x4a3;" horiz-adv-x="599" 
d="M395 191h-213v-191h-109v466h109v-184h213v184h109v-375h75v-166h-108v75h-76v191z" />
    <glyph glyph-name="uni04A4" unicode="&#x4a4;" horiz-adv-x="776" 
d="M592 0h-115v296h-289v-296h-115v700h115v-301h289v301h289v-103h-174v-597z" />
    <glyph glyph-name="uni04A5" unicode="&#x4a5;" horiz-adv-x="654" 
d="M639 466v-91h-135v-375h-109v191h-213v-191h-109v466h109v-184h213v184h244z" />
    <glyph glyph-name="uni04A6" unicode="&#x4a6;" horiz-adv-x="697" 
d="M188 597v-597h-115v700h518v-597h91v-194h-115v91h-91v597h-288z" />
    <glyph glyph-name="uni04A7" unicode="&#x4a7;" horiz-adv-x="589" 
d="M494 91h75v-166h-108v75h-76v375h-203v-375h-109v466h421v-375z" />
    <glyph glyph-name="uni04A8" unicode="&#x4a8;" horiz-adv-x="813" 
d="M362 614c-130 0 -203 -108 -203 -244c0 -153 88 -279 231 -284v416c0 183 98 216 187 216c100 0 186 -40 186 -211v-130c0 -176 -101 -337 -268 -382v-90c0 -27 29 -44 65 -44h58v-103h-74c-89 0 -154 54 -154 134v92c-220 5 -352 163 -352 371c0 189 124 362 324 362
v-103zM646 377v145c0 52 -18 105 -72 105c-55 0 -79 -44 -79 -101v-419c93 43 151 155 151 270z" />
    <glyph glyph-name="uni04A9" unicode="&#x4a9;" horiz-adv-x="567" 
d="M249 377c-70 0 -102 -60 -102 -132c0 -85 46 -157 121 -160v248c0 122 69 144 131 144c71 0 133 -26 133 -141v-91c0 -113 -66 -214 -176 -246v-114c0 -24 15 -38 34 -38h37v-90h-54c-71 0 -105 51 -105 127v103c-144 3 -230 121 -230 258c0 120 75 231 211 231v-99z
M435 250v71c0 33 -11 65 -40 65s-39 -28 -39 -67v-212c49 29 79 84 79 143z" />
    <glyph glyph-name="uni04AA" unicode="&#x4aa;" horiz-adv-x="775" 
d="M617 445c-16 96 -94 169 -208 169c-161 0 -253 -127 -253 -263c0 -144 94 -265 265 -265c81 0 167 59 191 139h126c-30 -132 -151 -233 -313 -241v-43c10 9 24 13 42 13c36 0 74 -28 74 -81c0 -44 -33 -92 -102 -92c-15 0 -90 5 -101 81h64c6 -17 18 -25 37 -25
c23 0 38 15 38 36c0 23 -16 37 -36 37c-15 0 -25 -6 -32 -18h-54v94c-199 24 -317 183 -317 365c0 189 136 366 356 366c208 0 323 -121 344 -272h-121z" />
    <glyph glyph-name="uni04AB" unicode="&#x4ab;" horiz-adv-x="534" 
d="M223 -7c-120 24 -183 127 -183 240c0 126 81 245 232 245c152 0 213 -92 221 -182h-109c-7 51 -35 85 -110 85c-84 0 -125 -69 -125 -148c0 -80 39 -148 132 -148c64 0 89 28 104 75h109c-16 -93 -78 -163 -201 -171v-48c10 9 24 13 42 13c36 0 74 -28 74 -81
c0 -44 -33 -92 -102 -92c-15 0 -90 5 -101 81h64c6 -17 18 -25 37 -25c23 0 38 15 38 36c0 23 -16 37 -36 37c-15 0 -25 -6 -32 -18h-54v101z" />
    <glyph glyph-name="uni04AC" unicode="&#x4ac;" horiz-adv-x="482" 
d="M183 597h-173v103h462v-103h-174v-494h62v-194h-115v91h-62v597z" />
    <glyph glyph-name="uni04AD" unicode="&#x4ad;" horiz-adv-x="397" 
d="M387 466v-91h-135v-284h75v-166h-108v75h-76v375h-133v91h377z" />
    <glyph glyph-name="uni04AE" unicode="&#x4ae;" horiz-adv-x="649" 
d="M324 398l182 302h133l-257 -411v-289h-115v288l-257 412h133z" />
    <glyph glyph-name="uni04AF" unicode="&#x4af;" horiz-adv-x="512" 
d="M255 156l130 310h117l-193 -426v-275h-109v275l-190 426h117z" />
    <glyph glyph-name="uni04B0" unicode="&#x4b0;" horiz-adv-x="649" 
d="M382 154v-154h-115v154h-111v87h111v47l-257 412h133l181 -302l182 302h133l-257 -411v-48h111v-87h-111z" />
    <glyph glyph-name="uni04B1" unicode="&#x4b1;" horiz-adv-x="512" 
d="M255 156l130 310h117l-193 -426v-40h75v-72h-75v-163h-109v163h-74v72h74v40l-190 426h117z" />
    <glyph glyph-name="uni04B2" unicode="&#x4b2;" horiz-adv-x="562" 
d="M476 -75v75h-52l-143 250l-143 -250h-130l208 350l-208 350h130l143 -251l143 251h130l-208 -350l208 -350v-75h-78z" />
    <glyph glyph-name="uni04B3" unicode="&#x4b3;" horiz-adv-x="446" 
d="M360 -75v75h-48l-89 150l-89 -150h-126l152 235l-149 231h126l86 -146l86 146h126l-149 -231l152 -235v-75h-78z" />
    <glyph glyph-name="uni04B4" unicode="&#x4b4;" horiz-adv-x="788" 
d="M298 103h274v597h115v-597h91v-194h-103v91h-492v597h-173v103h462v-103h-174v-494z" />
    <glyph glyph-name="uni04B5" unicode="&#x4b5;" horiz-adv-x="644" 
d="M232 91h198v375h109v-375h75v-166h-108v75h-383v375h-108v91h327v-91h-110v-284z" />
    <glyph glyph-name="uni04B6" unicode="&#x4b6;" horiz-adv-x="619" 
d="M398 0v210h-133c-144 0 -230 102 -230 225v265h115v-235c0 -96 53 -152 137 -152h111v387h115v-597h91v-194h-115v91h-91z" />
    <glyph glyph-name="uni04B7" unicode="&#x4b7;" horiz-adv-x="504" 
d="M300 0v134h-108c-104 0 -162 52 -162 157v175h109v-173c0 -45 23 -68 70 -68h91v241h109v-375h75v-166h-108v75h-76z" />
    <glyph glyph-name="uni04B8" unicode="&#x4b8;" horiz-adv-x="586" 
d="M323 313h75v387h115v-700h-115v210h-75v-86h-72v86c-136 5 -216 108 -216 225v265h115v-235c0 -81 38 -133 101 -148v106h72v-110z" />
    <glyph glyph-name="uni04B9" unicode="&#x4b9;" horiz-adv-x="482" 
d="M250 225h50v241h109v-466h-109v134h-50v-85h-55v85h-3c-104 0 -162 52 -162 157v175h109v-173c0 -41 19 -64 56 -68v98h55v-98z" />
    <glyph glyph-name="uni04BA" unicode="&#x4ba;" horiz-adv-x="616" 
d="M71 700h115v-210h133c72 0 130 -26 170 -67s62 -97 62 -158v-265h-115v235c0 96 -53 152 -137 152h-111v-387h-115z" />
    <glyph glyph-name="uni04BB" unicode="&#x4bb;" horiz-adv-x="569" 
d="M73 700h109v-299c29 51 83 77 152 77c68 0 113 -24 140 -63c23 -35 30 -74 30 -138v-277h-109v241c0 80 -24 141 -101 141c-76 0 -112 -61 -112 -141v-241h-109v700z" />
    <glyph glyph-name="uni04BC" unicode="&#x4bc;" horiz-adv-x="927" 
d="M889 309h-561c11 -119 61 -215 222 -215c123 0 171 54 195 121h139c-21 -120 -144 -227 -334 -227c-227 0 -343 138 -359 321h-53c-80 0 -133 57 -133 135v50h102v-48c0 -28 17 -47 44 -47h40c19 184 145 319 359 319c191 0 339 -143 339 -328v-81zM545 616
c-123 0 -217 -73 -217 -217h440c0 134 -91 217 -223 217z" />
    <glyph glyph-name="uni04BD" unicode="&#x4bd;" horiz-adv-x="641" 
d="M265 200c5 -67 34 -121 125 -121c63 0 86 28 99 61h110c-13 -80 -90 -152 -209 -152c-144 0 -220 91 -231 212h-20c-80 0 -134 49 -134 125v49h93v-48c0 -28 17 -45 44 -45h18c16 115 97 197 227 197c121 0 216 -91 216 -210c0 -16 0 -37 -5 -68h-333zM384 396
c-68 0 -119 -39 -119 -115h232c0 72 -46 115 -113 115z" />
    <glyph glyph-name="uni04BE" unicode="&#x4be;" horiz-adv-x="927" 
d="M499 -9c-192 19 -295 150 -308 318h-53c-80 0 -133 57 -133 135v50h102v-48c0 -28 17 -47 44 -47h40c19 184 145 319 359 319c191 0 339 -143 339 -328v-81h-561c11 -119 61 -215 222 -215c123 0 171 54 195 121h139c-22 -113 -130 -215 -303 -226
c-15 -16 -24 -42 -24 -67c0 -28 17 -53 46 -53c16 0 37 4 56 12v-78c-21 -7 -56 -15 -91 -15c-76 0 -115 44 -115 97c0 39 17 79 46 106zM545 616c-123 0 -217 -73 -217 -217h440c0 134 -91 217 -223 217z" />
    <glyph glyph-name="uni04BF" unicode="&#x4bf;" horiz-adv-x="641" 
d="M338 -8c-110 18 -171 103 -179 208h-20c-80 0 -134 49 -134 125v49h93v-48c0 -28 17 -45 44 -45h18c16 115 97 197 227 197c121 0 216 -91 216 -210c0 -16 0 -37 -5 -68h-333c5 -67 34 -121 125 -121c63 0 86 28 99 61h110c-13 -75 -78 -140 -183 -151
c-16 -17 -33 -44 -33 -67c0 -28 17 -53 46 -53c16 0 37 4 56 12v-78c-21 -7 -56 -15 -91 -15c-76 0 -115 44 -115 97c0 35 24 76 59 107zM384 396c-68 0 -119 -39 -119 -115h232c0 72 -46 115 -113 115z" />
    <glyph glyph-name="uni04C0" unicode="&#x4c0;" horiz-adv-x="265" 
d="M73 700h119v-700h-119v700z" />
    <glyph glyph-name="uni04C3" unicode="&#x4c3;" horiz-adv-x="635" 
d="M187 405h21c41 0 56 23 88 76l67 112c39 67 90 112 163 112h41v-103h-20c-29 0 -63 -11 -88 -54l-57 -97c-11 -19 -38 -46 -56 -46c63 -6 109 -24 139 -53c31 -30 46 -75 46 -135v-326c0 -80 -65 -134 -154 -134h-74v103h48c36 0 65 17 65 44v273c0 97 -43 166 -132 166
h-96v-343h-115v700h115z" />
    <glyph glyph-name="uni04C4" unicode="&#x4c4;" horiz-adv-x="546" 
d="M182 267h10c24 0 42 20 66 55l60 86c31 45 63 63 112 63h49v-88h-26c-21 0 -43 -6 -60 -31l-27 -41c-16 -24 -35 -36 -59 -45c57 -7 96 -33 120 -66c25 -35 30 -74 30 -138v-171c0 -80 -60 -134 -149 -134h-68v90h48c37 0 60 17 60 44v200c0 63 -25 110 -96 110h-70v-201
h-109v466h109v-199z" />
    <glyph glyph-name="uni04C5" unicode="&#x4c5;" horiz-adv-x="682" 
d="M10 91h48c31 0 50 17 50 44v565h482v-597h77l-73 -194h-115l34 91h-38v597h-252v-475c0 -80 -54 -134 -134 -134h-79v103z" />
    <glyph glyph-name="uni04C6" unicode="&#x4c6;" horiz-adv-x="577" 
d="M20 89h26c28 0 45 10 45 38v339h406v-363h55l-73 -194h-105l34 91h-20v375h-188v-259c0 -76 -49 -124 -129 -124h-51v97z" />
    <glyph glyph-name="uni04C7" unicode="&#x4c7;" horiz-adv-x="659" 
d="M592 -109c0 -80 -54 -134 -134 -134h-74v103h48c28 0 45 17 45 44v392h-289v-296h-115v700h115v-301h289v301h115v-809z" />
    <glyph glyph-name="uni04C8" unicode="&#x4c8;" horiz-adv-x="571" 
d="M504 -109c0 -104 -50 -135 -98 -135c-35 0 -69 4 -84 11v90c21 -5 29 -6 38 -6c23 0 35 12 35 47v293h-213v-191h-109v466h109v-184h213v184h109v-575z" />
    <glyph glyph-name="uni04C9" unicode="&#x4c9;" horiz-adv-x="674" 
d="M477 296h-289v-296h-115v700h115v-301h289v301h115v-597h77l-73 -194h-115l34 91h-38v296z" />
    <glyph glyph-name="uni04CA" unicode="&#x4ca;" horiz-adv-x="584" 
d="M395 191h-213v-191h-109v466h109v-184h213v184h109v-363h55l-73 -194h-105l34 91h-20v191z" />
    <glyph glyph-name="uni04CB" unicode="&#x4cb;" horiz-adv-x="586" 
d="M451 0v-91h-115v194h62v107h-133c-144 0 -230 102 -230 225v265h115v-235c0 -96 53 -152 137 -152h111v387h115v-700h-62z" />
    <glyph glyph-name="uni04CC" unicode="&#x4cc;" horiz-adv-x="504" 
d="M300 0v134h-108c-104 0 -162 52 -162 157v175h109v-173c0 -45 23 -68 70 -68h91v241h109v-375h75v-166h-108v75h-76z" />
    <glyph glyph-name="uni04CD" unicode="&#x4cd;" horiz-adv-x="832" 
d="M740 103h77l-73 -194h-115l34 91h-38v433l-175 -433h-87l-175 433v-433h-115v700h110l224 -521l223 521h110v-597z" />
    <glyph glyph-name="uni04CE" unicode="&#x4ce;" horiz-adv-x="725" 
d="M645 103h55l-73 -194h-95l34 91h-20v372l-150 -372h-74l-150 372v-372h-99v466h158l128 -319l128 319h158v-363z" />
    <glyph glyph-name="uni04D0" unicode="&#x4d0;" horiz-adv-x="571" 
d="M568 0h-121l-30 89h-263l-30 -89h-121l242 700h81zM189 192h193l-96 317zM286 862c51 0 84 28 97 72h102c-16 -88 -98 -156 -199 -156c-105 0 -183 68 -199 156h102c13 -44 46 -72 97 -72z" />
    <glyph glyph-name="uni04D1" unicode="&#x4d1;" horiz-adv-x="603" 
d="M530 466v-466h-109v63c-29 -47 -89 -75 -144 -75c-141 0 -239 113 -239 245s98 245 239 245c55 0 115 -28 144 -75v63h109zM283 85c83 0 138 68 138 148s-55 148 -138 148s-136 -68 -136 -148s53 -148 136 -148zM281 628c51 0 84 28 97 72h102
c-16 -88 -98 -156 -199 -156c-105 0 -183 68 -199 156h102c13 -44 46 -72 97 -72z" />
    <glyph glyph-name="uni04D2" unicode="&#x4d2;" horiz-adv-x="571" 
d="M568 0h-121l-30 89h-263l-30 -89h-121l242 700h81zM189 192h193l-96 317zM321 855c0 45 36 81 80 81c45 0 81 -36 81 -81c0 -44 -36 -80 -81 -80c-44 0 -80 36 -80 80zM92 855c0 45 36 81 80 81c45 0 81 -36 81 -81c0 -44 -36 -80 -81 -80c-44 0 -80 36 -80 80z" />
    <glyph glyph-name="uni04D3" unicode="&#x4d3;" horiz-adv-x="603" 
d="M421 0v63c-29 -47 -89 -75 -144 -75c-141 0 -239 113 -239 245s98 245 239 245c55 0 115 -28 144 -75v63h109v-466h-109zM283 85c83 0 138 68 138 148s-55 148 -138 148s-136 -68 -136 -148s53 -148 136 -148zM396 534c-44 0 -80 36 -80 80c0 45 36 81 80 81
c45 0 81 -36 81 -81c0 -44 -36 -80 -81 -80zM167 534c-44 0 -80 36 -80 80c0 45 36 81 80 81c45 0 81 -36 81 -81c0 -44 -36 -80 -81 -80z" />
    <glyph glyph-name="uni04D4" unicode="&#x4d4;" horiz-adv-x="879" 
d="M522 597v-198h289v-103h-289v-193h289v-103h-404v90h-237l-42 -90h-125l340 700h468v-103h-289zM407 193v399l-188 -399h188z" />
    <glyph glyph-name="uni04D5" unicode="&#x4d5;" horiz-adv-x="912" 
d="M530 466v-18c33 19 74 30 121 30c121 0 216 -91 216 -210c0 -16 0 -37 -5 -68h-330c0 -67 35 -121 122 -121c62 0 85 28 99 61h110c-16 -80 -89 -152 -209 -152c-51 0 -91 12 -124 31v-19h-109v63c-29 -47 -89 -75 -144 -75c-141 0 -239 113 -239 245s98 245 239 245
c55 0 115 -28 144 -75v63h109zM648 387c-64 0 -115 -37 -115 -106h228c0 64 -46 106 -113 106zM283 85c83 0 138 68 138 148c0 83 -55 148 -138 148s-136 -68 -136 -148s53 -148 136 -148z" />
    <glyph glyph-name="uni04D6" unicode="&#x4d6;" horiz-adv-x="545" 
d="M188 597v-198h289v-103h-289v-193h289v-103h-404v700h404v-103h-289zM277 862c51 0 84 28 97 72h102c-16 -88 -98 -156 -199 -156c-105 0 -183 68 -199 156h102c13 -44 46 -72 97 -72z" />
    <glyph glyph-name="uni04D7" unicode="&#x4d7;" horiz-adv-x="531" 
d="M148 200c5 -67 34 -121 125 -121c63 0 86 28 99 61h110c-13 -80 -90 -152 -209 -152c-156 0 -233 108 -233 245c0 140 83 245 230 245c121 0 216 -91 216 -210c0 -16 0 -37 -5 -68h-333zM267 396c-68 0 -119 -39 -119 -115h232c0 72 -46 115 -113 115zM268 628
c51 0 84 28 97 72h102c-16 -88 -98 -156 -199 -156c-105 0 -183 68 -199 156h102c13 -44 46 -72 97 -72z" />
    <glyph glyph-name="uni04D8" unicode="&#x4d8;" horiz-adv-x="776" 
d="M43 491c21 120 144 227 334 227c244 0 361 -161 361 -365c0 -209 -130 -365 -361 -365c-191 0 -339 145 -339 333v81h576c-11 116 -65 210 -237 210c-123 0 -171 -54 -195 -121h-139zM382 90c130 0 232 75 232 222h-455c0 -137 91 -222 223 -222z" />
    <glyph glyph-name="uni04D9" unicode="&#x4d9;" horiz-adv-x="531" 
d="M264 70c68 0 119 39 119 115h-232c0 -72 46 -115 113 -115zM383 266c-5 67 -34 121 -125 121c-63 0 -86 -28 -99 -61h-110c13 80 90 152 209 152c156 0 233 -108 233 -245c0 -140 -83 -245 -230 -245c-121 0 -216 91 -216 210c0 16 0 37 5 68h333z" />
    <glyph glyph-name="uni04DA" unicode="&#x4da;" horiz-adv-x="776" 
d="M43 491c21 120 144 227 334 227c244 0 361 -161 361 -365c0 -209 -130 -365 -361 -365c-191 0 -339 145 -339 333v81h576c-11 116 -65 210 -237 210c-123 0 -171 -54 -195 -121h-139zM382 90c130 0 232 75 232 222h-455c0 -137 91 -222 223 -222zM268 775
c-44 0 -80 36 -80 80c0 45 36 81 80 81c45 0 81 -36 81 -81c0 -44 -36 -80 -81 -80zM417 855c0 45 36 81 80 81c45 0 81 -36 81 -81c0 -44 -36 -80 -81 -80c-44 0 -80 36 -80 80z" />
    <glyph glyph-name="uni04DB" unicode="&#x4db;" horiz-adv-x="531" 
d="M383 266c-5 67 -34 121 -125 121c-63 0 -86 -28 -99 -61h-110c13 80 90 152 209 152c156 0 233 -108 233 -245c0 -140 -83 -245 -230 -245c-121 0 -216 91 -216 210c0 16 0 37 5 68h333zM264 70c68 0 119 39 119 115h-232c0 -72 46 -115 113 -115zM299 614
c0 45 36 81 81 81c44 0 80 -36 80 -81c0 -44 -36 -80 -80 -80c-45 0 -81 36 -81 80zM70 614c0 45 36 81 81 81c44 0 80 -36 80 -81c0 -44 -36 -80 -80 -80c-45 0 -81 36 -81 80z" />
    <glyph glyph-name="uni04DC" unicode="&#x4dc;" horiz-adv-x="874" 
d="M152 0h-147l275 367c-48 13 -88 61 -115 109l-41 72c-25 44 -56 54 -85 54h-19v103h35c73 0 124 -45 163 -112l55 -96c31 -55 61 -87 98 -87h11v290h110v-290h11c37 0 67 32 98 87l55 96c39 67 90 112 163 112h35v-103h-19c-29 0 -60 -10 -85 -54l-41 -72
c-27 -48 -67 -96 -115 -109l275 -367h-147l-230 330v-330h-110v330zM471 855c0 45 36 81 80 81c45 0 81 -36 81 -81c0 -44 -36 -80 -81 -80c-44 0 -80 36 -80 80zM242 855c0 45 36 81 80 81c45 0 81 -36 81 -81c0 -44 -36 -80 -81 -80c-44 0 -80 36 -80 80z" />
    <glyph glyph-name="uni04DD" unicode="&#x4dd;" horiz-adv-x="674" 
d="M128 0h-123l199 242c-29 3 -70 24 -90 59l-25 43c-15 26 -34 39 -58 39h-21v88h38c45 0 83 -11 118 -68l48 -81c20 -33 37 -50 62 -50h10v194h102v-194h10c25 0 42 17 62 50l48 81c35 57 73 68 118 68h38v-88h-21c-24 0 -43 -13 -58 -39l-25 -43c-20 -35 -61 -56 -90 -59
l199 -242h-123l-158 212v-212h-102v212zM222 534c-44 0 -80 36 -80 80c0 45 36 81 80 81c45 0 81 -36 81 -81c0 -44 -36 -80 -81 -80zM451 534c-44 0 -80 36 -80 80c0 45 36 81 80 81c45 0 81 -36 81 -81c0 -44 -36 -80 -81 -80z" />
    <glyph glyph-name="uni04DE" unicode="&#x4de;" horiz-adv-x="585" 
d="M159 234c0 -91 65 -143 139 -143c76 0 117 52 117 109c0 66 -33 107 -136 107h-42v102h43c95 0 123 50 123 101c0 55 -42 99 -113 99c-70 0 -127 -41 -127 -116h-115c0 130 104 219 248 219c120 0 222 -64 222 -192c0 -80 -48 -137 -111 -154c66 -13 123 -71 123 -165
c0 -127 -102 -213 -234 -213c-145 0 -252 90 -252 246h115zM174 775c-44 0 -80 36 -80 80c0 45 36 81 80 81c45 0 81 -36 81 -81c0 -44 -36 -80 -81 -80zM323 855c0 45 36 81 80 81c45 0 81 -36 81 -81c0 -44 -36 -80 -81 -80c-44 0 -80 36 -80 80z" />
    <glyph glyph-name="uni04DF" unicode="&#x4df;" horiz-adv-x="442" 
d="M136 144c0 -40 29 -67 89 -67c41 0 73 17 73 54s-25 64 -82 64h-53v76h47c59 0 78 24 78 63c0 33 -28 58 -72 58c-56 0 -74 -30 -74 -67h-106c0 92 70 153 181 153c108 0 175 -53 175 -129c0 -67 -39 -101 -95 -109c59 -7 105 -45 105 -113c0 -88 -86 -139 -185 -139
c-120 0 -187 61 -187 156h106zM120 534c-45 0 -81 36 -81 80c0 45 36 81 81 81c44 0 80 -36 80 -81c0 -44 -36 -80 -80 -80zM228 614c0 45 36 81 81 81c44 0 80 -36 80 -81c0 -44 -36 -80 -80 -80c-45 0 -81 36 -81 80z" />
    <glyph glyph-name="uni04E0" unicode="&#x4e0;" horiz-adv-x="595" 
d="M155 229c0 -88 65 -138 139 -138c76 0 117 58 117 119c0 79 -32 127 -131 127h-94l172 260h-259v103h446l-197 -284c101 -8 178 -90 178 -200c0 -133 -102 -228 -234 -228c-145 0 -252 86 -252 241h115z" />
    <glyph glyph-name="uni04E1" unicode="&#x4e1;" horiz-adv-x="503" 
d="M126 -53c3 -68 53 -100 103 -100c67 0 113 50 113 143s-66 148 -166 148h-64l185 231h-225v97h411l-214 -267c103 -13 181 -99 181 -202c0 -152 -92 -242 -223 -242c-120 0 -204 64 -207 192h106z" />
    <glyph glyph-name="uni04E2" unicode="&#x4e2;" horiz-adv-x="664" 
d="M476 484l-288 -436v-48h-115v700h115v-484l288 436v48h115v-700h-115v484zM524 803h-358v97h358v-97z" />
    <glyph glyph-name="uni04E3" unicode="&#x4e3;" horiz-adv-x="571" 
d="M389 300l-207 -261v-39h-109v466h109v-305l207 263v42h109v-466h-109v300zM468 565h-358v97h358v-97z" />
    <glyph glyph-name="uni04E4" unicode="&#x4e4;" horiz-adv-x="664" 
d="M476 484l-288 -436v-48h-115v700h115v-484l288 436v48h115v-700h-115v484zM374 855c0 45 36 81 80 81c45 0 81 -36 81 -81c0 -44 -36 -80 -81 -80c-44 0 -80 36 -80 80zM145 855c0 45 36 81 80 81c45 0 81 -36 81 -81c0 -44 -36 -80 -81 -80c-44 0 -80 36 -80 80z" />
    <glyph glyph-name="uni04E5" unicode="&#x4e5;" horiz-adv-x="571" 
d="M389 300l-207 -261v-39h-109v466h109v-305l207 263v42h109v-466h-109v300zM175 534c-44 0 -80 36 -80 80c0 45 36 81 80 81c45 0 81 -36 81 -81c0 -44 -36 -80 -81 -80zM404 534c-44 0 -80 36 -80 80c0 45 36 81 80 81c45 0 81 -36 81 -81c0 -44 -36 -80 -81 -80z" />
    <glyph glyph-name="uni04E6" unicode="&#x4e6;" horiz-adv-x="800" 
d="M400 -17c-225 0 -362 177 -362 367s137 367 362 367s362 -177 362 -367s-137 -367 -362 -367zM159 350c0 -136 92 -264 241 -264s241 128 241 264s-92 264 -241 264s-241 -128 -241 -264zM285 775c-44 0 -80 36 -80 80c0 45 36 81 80 81c45 0 81 -36 81 -81
c0 -44 -36 -80 -81 -80zM434 855c0 45 36 81 80 81c45 0 81 -36 81 -81c0 -44 -36 -80 -81 -80c-44 0 -80 36 -80 80z" />
    <glyph glyph-name="uni04E7" unicode="&#x4e7;" horiz-adv-x="568" 
d="M169 534c-44 0 -80 36 -80 80c0 45 36 81 80 81c45 0 81 -36 81 -81c0 -44 -36 -80 -81 -80zM318 614c0 45 36 81 80 81c45 0 81 -36 81 -81c0 -44 -36 -80 -81 -80c-44 0 -80 36 -80 80zM283 85c83 0 138 68 138 148s-55 148 -138 148s-136 -68 -136 -148
s53 -148 136 -148zM283 -12c-148 0 -245 113 -245 245s97 245 245 245c149 0 247 -113 247 -245s-98 -245 -247 -245z" />
    <glyph glyph-name="uni04E8" unicode="&#x4e8;" horiz-adv-x="800" 
d="M400 -17c-225 0 -362 177 -362 367s137 367 362 367s362 -177 362 -367s-137 -367 -362 -367zM400 614c-137 0 -223 -106 -239 -227h478c-16 121 -103 227 -239 227zM400 86c137 0 223 106 239 229h-478c13 -123 103 -229 239 -229z" />
    <glyph glyph-name="uni04E9" unicode="&#x4e9;" horiz-adv-x="568" 
d="M283 -12c-148 0 -245 113 -245 245s97 245 245 245c149 0 247 -113 247 -245s-98 -245 -247 -245zM283 381c-71 0 -119 -48 -132 -112h266c-15 64 -62 112 -134 112zM283 85c72 0 119 48 134 112h-266c13 -64 61 -112 132 -112z" />
    <glyph glyph-name="uni04EA" unicode="&#x4ea;" horiz-adv-x="800" 
d="M400 -17c-225 0 -362 177 -362 367s137 367 362 367s362 -177 362 -367s-137 -367 -362 -367zM400 614c-137 0 -223 -106 -239 -227h478c-16 121 -103 227 -239 227zM400 86c137 0 223 106 239 229h-478c13 -123 103 -229 239 -229zM438 869c0 43 33 77 76 77
s77 -34 77 -77s-34 -76 -77 -76s-76 33 -76 76zM285 793c-43 0 -76 33 -76 76s33 77 76 77s77 -34 77 -77s-34 -76 -77 -76z" />
    <glyph glyph-name="uni04EB" unicode="&#x4eb;" horiz-adv-x="568" 
d="M283 -12c-148 0 -245 113 -245 245s97 245 245 245c149 0 247 -113 247 -245s-98 -245 -247 -245zM283 381c-71 0 -119 -48 -132 -112h266c-15 64 -62 112 -134 112zM283 85c72 0 119 48 134 112h-266c13 -64 61 -112 132 -112zM322 635c0 43 33 77 76 77s77 -34 77 -77
s-34 -76 -77 -76s-76 33 -76 76zM169 559c-43 0 -76 33 -76 76s33 77 76 77s77 -34 77 -77s-34 -76 -77 -76z" />
    <glyph glyph-name="uni04EC" unicode="&#x4ec;" horiz-adv-x="746" 
d="M270 401h317c-16 126 -92 213 -215 213c-121 0 -193 -73 -212 -169h-121c24 151 129 272 338 272c211 0 331 -162 331 -366c0 -212 -124 -368 -343 -368c-170 0 -295 106 -327 242h126c24 -80 116 -139 201 -139c129 0 205 82 222 211h-317v104zM256 775
c-44 0 -80 36 -80 80c0 45 36 81 80 81c45 0 81 -36 81 -81c0 -44 -36 -80 -81 -80zM405 855c0 45 36 81 80 81c45 0 81 -36 81 -81c0 -44 -36 -80 -81 -80c-44 0 -80 36 -80 80z" />
    <glyph glyph-name="uni04ED" unicode="&#x4ed;" horiz-adv-x="540" 
d="M39 296c3 101 89 182 223 182c164 0 240 -119 240 -245c0 -127 -76 -245 -240 -245c-136 0 -221 76 -224 172h109c8 -44 44 -75 120 -75c81 0 117 42 124 107h-181v81h181c-7 64 -43 108 -124 108c-76 0 -111 -36 -119 -85h-109zM150 534c-45 0 -81 36 -81 80
c0 45 36 81 81 81c44 0 80 -36 80 -81c0 -44 -36 -80 -80 -80zM298 614c0 45 36 81 81 81c44 0 80 -36 80 -81c0 -44 -36 -80 -80 -80c-45 0 -81 36 -81 80z" />
    <glyph glyph-name="uni04EE" unicode="&#x4ee;" horiz-adv-x="612" 
d="M260 0h-126l139 280l-262 420h133l187 -301l150 301h126zM510 803h-358v97h358v-97z" />
    <glyph glyph-name="uni04EF" unicode="&#x4ef;" horiz-adv-x="578" 
d="M283 -245c-63 0 -116 16 -155 48s-62 80 -63 144h110c5 -68 53 -100 110 -100c67 0 114 24 114 111v107c-29 -51 -83 -77 -152 -77c-68 0 -113 24 -140 63c-23 35 -30 74 -30 138v277h109v-241c0 -80 24 -141 101 -141c76 0 112 61 112 141v241h109v-508
c0 -67 -19 -118 -58 -153c-38 -33 -94 -50 -167 -50zM476 565h-358v97h358v-97z" />
    <glyph glyph-name="uni04F0" unicode="&#x4f0;" horiz-adv-x="612" 
d="M260 0h-126l139 280l-262 420h133l187 -301l150 301h126zM369 855c0 43 33 77 76 77s77 -34 77 -77s-34 -76 -77 -76s-76 33 -76 76zM140 855c0 43 33 77 76 77s77 -34 77 -77s-34 -76 -77 -76s-76 33 -76 76z" />
    <glyph glyph-name="uni04F1" unicode="&#x4f1;" horiz-adv-x="578" 
d="M283 -245c-63 0 -116 16 -155 48s-62 80 -63 144h110c5 -68 53 -100 110 -100c67 0 114 24 114 111v107c-29 -51 -83 -77 -152 -77c-68 0 -113 24 -140 63c-23 35 -30 74 -30 138v277h109v-241c0 -80 24 -141 101 -141c76 0 112 61 112 141v241h109v-508
c0 -67 -19 -118 -58 -153c-38 -33 -94 -50 -167 -50zM337 614c0 43 33 77 76 77s77 -34 77 -77s-34 -76 -77 -76s-76 33 -76 76zM108 614c0 43 33 77 76 77s77 -34 77 -77s-34 -76 -77 -76s-76 33 -76 76z" />
    <glyph glyph-name="uni04F2" unicode="&#x4f2;" horiz-adv-x="612" 
d="M260 0h-126l139 280l-262 420h133l187 -301l150 301h126zM479 968l96 -48l-169 -146l-52 28zM284 968l96 -48l-169 -146l-52 28z" />
    <glyph glyph-name="uni04F3" unicode="&#x4f3;" horiz-adv-x="578" 
d="M283 -245c-63 0 -116 16 -155 48s-62 80 -63 144h110c5 -68 53 -100 110 -100c67 0 114 24 114 111v107c-29 -51 -83 -77 -152 -77c-68 0 -113 24 -140 63c-23 35 -30 74 -30 138v277h109v-241c0 -80 24 -141 101 -141c76 0 112 61 112 141v241h109v-508
c0 -67 -19 -118 -58 -153c-38 -33 -94 -50 -167 -50zM199 533l-52 28l125 166l96 -48zM394 533l-52 28l125 166l96 -48z" />
    <glyph glyph-name="uni04F4" unicode="&#x4f4;" horiz-adv-x="586" 
d="M398 0v210h-133c-144 0 -230 102 -230 225v265h115v-235c0 -96 53 -152 137 -152h111v387h115v-700h-115zM316 855c0 43 33 77 76 77s77 -34 77 -77s-34 -76 -77 -76s-76 33 -76 76zM87 855c0 43 33 77 76 77s77 -34 77 -77s-34 -76 -77 -76s-76 33 -76 76z" />
    <glyph glyph-name="uni04F5" unicode="&#x4f5;" horiz-adv-x="484" 
d="M300 0v134h-108c-104 0 -162 52 -162 157v175h109v-173c0 -45 23 -68 70 -68h91v241h109v-466h-109zM250 614c0 45 36 81 81 81c44 0 80 -36 80 -81c0 -44 -36 -80 -80 -80c-45 0 -81 36 -81 80zM31 614c0 45 36 81 81 81c44 0 80 -36 80 -81c0 -44 -36 -80 -80 -80
c-45 0 -81 36 -81 80z" />
    <glyph glyph-name="uni04F8" unicode="&#x4f8;" horiz-adv-x="757" 
d="M188 700v-294h126c124 0 205 -94 205 -203c0 -110 -81 -203 -205 -203h-241v700h115zM188 304v-202h126c55 0 90 45 90 101s-35 101 -90 101h-126zM569 700h115v-700h-115v700zM441 855c0 43 33 77 76 77s77 -34 77 -77s-34 -76 -77 -76s-76 33 -76 76zM212 855
c0 43 33 77 76 77s77 -34 77 -77s-34 -76 -77 -76s-76 33 -76 76z" />
    <glyph glyph-name="uni04F9" unicode="&#x4f9;" horiz-adv-x="674" 
d="M493 466h108v-466h-108v466zM73 466h102v-150h114c103 0 154 -71 154 -158c0 -85 -51 -158 -154 -158h-216v466zM175 230v-144h94c51 0 74 29 74 72s-23 72 -74 72h-94zM373 614c0 45 36 81 81 81c44 0 80 -36 80 -81c0 -44 -36 -80 -80 -80c-45 0 -81 36 -81 80z
M144 614c0 45 36 81 81 81c44 0 80 -36 80 -81c0 -44 -36 -80 -80 -80c-45 0 -81 36 -81 80z" />
    <glyph glyph-name="Wgrave" unicode="&#x1e80;" horiz-adv-x="983" 
d="M492 499l-162 -499h-83l-242 700h121l161 -499l162 499h85l162 -499l161 499h121l-242 -700h-83zM341 886l52 85l249 -137l-52 -85z" />
    <glyph glyph-name="wgrave" unicode="&#x1e81;" horiz-adv-x="753" 
d="M377 348l-123 -348h-73l-181 466h117l101 -295l105 295h107l105 -295l101 295h117l-181 -466h-73zM226 632l52 85l249 -137l-52 -85z" />
    <glyph glyph-name="Wacute" unicode="&#x1e82;" horiz-adv-x="983" 
d="M492 499l-162 -499h-83l-242 700h121l161 -499l162 499h85l162 -499l161 499h121l-242 -700h-83zM393 749l-52 85l249 137l52 -85z" />
    <glyph glyph-name="wacute" unicode="&#x1e83;" horiz-adv-x="753" 
d="M377 348l-123 -348h-73l-181 466h117l101 -295l105 295h107l105 -295l101 295h117l-181 -466h-73zM278 495l-52 85l249 137l52 -85z" />
    <glyph glyph-name="Wdieresis" unicode="&#x1e84;" horiz-adv-x="983" 
d="M492 499l-162 -499h-83l-242 700h121l161 -499l162 499h85l162 -499l161 499h121l-242 -700h-83zM529 869c0 43 33 77 76 77s77 -34 77 -77s-34 -76 -77 -76s-76 33 -76 76zM300 869c0 43 33 77 76 77s77 -34 77 -77s-34 -76 -77 -76s-76 33 -76 76z" />
    <glyph glyph-name="wdieresis" unicode="&#x1e85;" horiz-adv-x="753" 
d="M377 348l-123 -348h-73l-181 466h117l101 -295l105 295h107l105 -295l101 295h117l-181 -466h-73zM414 614c0 43 33 77 76 77s77 -34 77 -77s-34 -76 -77 -76s-76 33 -76 76zM185 614c0 43 33 77 76 77s77 -34 77 -77s-34 -76 -77 -76s-76 33 -76 76z" />
    <glyph glyph-name="Ygrave" unicode="&#x1ef2;" horiz-adv-x="602" 
d="M260 0h-126l139 280l-262 420h133l187 -301l150 301h126zM150 886l52 85l249 -137l-52 -85z" />
    <glyph glyph-name="ygrave" unicode="&#x1ef3;" horiz-adv-x="578" 
d="M283 -245c-63 0 -116 16 -155 48s-62 80 -63 144h110c5 -68 53 -100 110 -100c67 0 114 24 114 111v107c-29 -51 -83 -77 -152 -77c-68 0 -113 24 -140 63c-23 35 -30 74 -30 138v277h109v-241c0 -80 24 -141 101 -141c76 0 112 61 112 141v241h109v-508
c0 -67 -19 -118 -58 -153c-38 -33 -94 -50 -167 -50zM138 632l52 85l249 -137l-52 -85z" />
    <glyph glyph-name="thinspace" unicode="&#x2009;" horiz-adv-x="206" 
 />
    <glyph glyph-name="endash" unicode="&#x2013;" horiz-adv-x="503" 
d="M50 236v97h403v-97h-403z" />
    <glyph glyph-name="emdash" unicode="&#x2014;" horiz-adv-x="1006" 
d="M50 236v97h906v-97h-906z" />
    <glyph glyph-name="quoteleft" unicode="&#x2018;" horiz-adv-x="283" 
d="M223 559c0 -43 -34 -78 -77 -78c-52 0 -86 39 -86 99c0 117 58 159 159 160v-49c-31 0 -54 -7 -69 -20c-15 -11 -21 -27 -24 -42c3 3 12 5 20 5c47 0 77 -32 77 -75z" />
    <glyph glyph-name="quoteright" unicode="&#x2019;" horiz-adv-x="283" 
d="M60 662c0 43 34 78 77 78c52 0 86 -39 86 -99c0 -117 -58 -159 -159 -160v49c33 0 54 8 69 20s21 27 24 42c-3 -3 -12 -5 -20 -5c-47 0 -77 32 -77 75z" />
    <glyph glyph-name="quotesinglbase" unicode="&#x201a;" horiz-adv-x="283" 
d="M60 63c0 43 34 78 77 78c52 0 86 -39 86 -99c0 -117 -58 -159 -159 -160v49c33 0 54 8 69 20c15 11 21 27 24 42c-3 -3 -12 -5 -20 -5c-47 0 -77 32 -77 75z" />
    <glyph glyph-name="quotedblleft" unicode="&#x201c;" horiz-adv-x="470" 
d="M410 559c0 -43 -34 -78 -77 -78c-52 0 -86 39 -86 99c0 117 58 159 159 160v-49c-31 0 -54 -7 -69 -20c-15 -11 -21 -27 -24 -42c3 3 12 5 20 5c47 0 77 -32 77 -75zM223 559c0 -43 -34 -78 -77 -78c-52 0 -86 39 -86 99c0 117 58 159 159 160v-49c-31 0 -54 -7 -69 -20
c-15 -11 -21 -27 -24 -42c3 3 12 5 20 5c47 0 77 -32 77 -75z" />
    <glyph glyph-name="quotedblright" unicode="&#x201d;" horiz-adv-x="470" 
d="M60 662c0 43 34 78 77 78c52 0 86 -39 86 -99c0 -117 -58 -159 -159 -160v49c33 0 54 8 69 20s21 27 24 42c-3 -3 -12 -5 -20 -5c-47 0 -77 32 -77 75zM247 662c0 43 34 78 77 78c52 0 86 -39 86 -99c0 -117 -58 -159 -159 -160v49c33 0 54 8 69 20s21 27 24 42
c-3 -3 -12 -5 -20 -5c-47 0 -77 32 -77 75z" />
    <glyph glyph-name="quotedblbase" unicode="&#x201e;" horiz-adv-x="470" 
d="M60 63c0 43 34 78 77 78c52 0 86 -39 86 -99c0 -117 -58 -159 -159 -160v49c33 0 54 8 69 20c15 11 21 27 24 42c-3 -3 -12 -5 -20 -5c-47 0 -77 32 -77 75zM247 63c0 43 34 78 77 78c52 0 86 -39 86 -99c0 -117 -58 -159 -159 -160v49c33 0 54 8 69 20
c15 11 21 27 24 42c-3 -3 -12 -5 -20 -5c-47 0 -77 32 -77 75z" />
    <glyph glyph-name="dagger" unicode="&#x2020;" horiz-adv-x="486" 
d="M189 -182v551h-116v97h116v251h109v-251h115v-97h-115v-551h-109z" />
    <glyph glyph-name="daggerdbl" unicode="&#x2021;" horiz-adv-x="486" 
d="M298 717v-251h115v-94h-115v-278h115v-94h-115v-182h-109v182h-116v94h116v278h-116v94h116v251h109z" />
    <glyph glyph-name="bullet" unicode="&#x2022;" horiz-adv-x="353" 
d="M60 312c0 65 52 117 116 117c65 0 117 -52 117 -117c0 -64 -52 -116 -117 -116c-64 0 -116 52 -116 116z" />
    <glyph glyph-name="ellipsis" unicode="&#x2026;" horiz-adv-x="965" 
d="M60 74c0 45 36 81 80 81c45 0 81 -36 81 -81c0 -44 -36 -80 -81 -80c-44 0 -80 36 -80 80zM402 73c0 45 36 81 80 81c45 0 81 -36 81 -81c0 -44 -36 -80 -81 -80c-44 0 -80 36 -80 80zM744 72c0 45 36 81 80 81c45 0 81 -36 81 -81c0 -44 -36 -80 -81 -80
c-44 0 -80 36 -80 80z" />
    <glyph glyph-name="perthousand" unicode="&#x2030;" horiz-adv-x="1296" 
d="M1009 129c0 -35 23 -63 58 -63c36 0 59 28 59 63v127c0 35 -23 63 -59 63c-35 0 -58 -28 -58 -63v-127zM1214 129c0 -75 -57 -137 -147 -137c-91 0 -146 62 -146 137v127c0 74 55 137 146 137c90 0 147 -63 147 -137v-127zM721 393c90 0 147 -63 147 -137v-127
c0 -75 -57 -137 -147 -137c-91 0 -146 62 -146 137v127c0 74 55 137 146 137zM721 319c-35 0 -58 -28 -58 -63v-127c0 -35 23 -63 58 -63c36 0 59 28 59 63v127c0 35 -23 63 -59 63zM81 571c0 74 55 137 146 137c90 0 147 -63 147 -137v-127c0 -75 -57 -137 -147 -137
c-91 0 -146 62 -146 137v127zM286 571c0 35 -23 63 -59 63c-35 0 -58 -28 -58 -63v-127c0 -35 23 -63 58 -63c36 0 59 28 59 63v127zM642 752l87 -50l-437 -753l-87 50z" />
    <glyph glyph-name="guilsinglleft" unicode="&#x2039;" horiz-adv-x="276" 
d="M236 95l-196 164v64l196 164v-105l-109 -91l109 -91v-105z" />
    <glyph glyph-name="guilsinglright" unicode="&#x203a;" horiz-adv-x="276" 
d="M40 200l109 91l-109 91v105l196 -164v-64l-196 -164v105z" />
    <glyph glyph-name="fraction" unicode="&#x2044;" horiz-adv-x="224" 
d="M287 752l87 -50l-437 -753l-87 50z" />
    <glyph glyph-name="zerosuperior" unicode="&#x2070;" horiz-adv-x="399" 
d="M53 571c0 74 55 137 146 137c90 0 147 -63 147 -137v-127c0 -75 -57 -137 -147 -137c-91 0 -146 62 -146 137v127zM258 571c0 35 -23 63 -59 63c-35 0 -58 -28 -58 -63v-127c0 -35 23 -63 58 -63c36 0 59 28 59 63v127z" />
    <glyph glyph-name="foursuperior" unicode="&#x2074;" horiz-adv-x="395" 
d="M215 422h-153v278h88v-204h65v107h88v-107h47v-74h-47v-107h-88v107z" />
    <glyph glyph-name="fivesuperior" unicode="&#x2075;" horiz-adv-x="408" 
d="M68 700h259v-69h-178v-87c15 25 49 36 78 36c85 0 126 -66 126 -133c0 -76 -55 -140 -147 -140s-147 63 -147 139h86c0 -36 22 -66 61 -66c37 0 61 30 61 67c0 35 -22 66 -61 66c-25 0 -44 -12 -56 -36h-82v223z" />
    <glyph glyph-name="sixsuperior" unicode="&#x2076;" horiz-adv-x="390" 
d="M194 308c-92 0 -147 63 -147 139c0 30 8 57 23 80l111 173h100l-77 -116c8 -1 16 -4 23 -5c71 -11 114 -65 114 -132c0 -76 -55 -139 -147 -139zM194 381c37 0 61 30 61 66s-24 66 -61 66c-39 0 -61 -30 -61 -66s22 -66 61 -66z" />
    <glyph glyph-name="sevensuperior" unicode="&#x2077;" horiz-adv-x="351" 
d="M325 700l-164 -385h-94l133 311h-151v74h276z" />
    <glyph glyph-name="eightsuperior" unicode="&#x2078;" horiz-adv-x="399" 
d="M200 307c-92 0 -145 53 -145 118c0 41 25 80 62 91c-33 13 -52 46 -52 82c0 60 48 110 135 110c85 0 134 -51 134 -110c0 -36 -19 -69 -52 -82c37 -12 62 -51 62 -91c0 -63 -52 -118 -144 -118zM200 545c31 0 50 22 50 49c0 25 -19 47 -50 47c-33 0 -51 -22 -51 -47
c0 -27 18 -49 51 -49zM200 374c36 0 58 25 58 53c0 27 -21 53 -58 53c-39 0 -59 -25 -59 -53c0 -29 22 -53 59 -53z" />
    <glyph glyph-name="ninesuperior" unicode="&#x2079;" horiz-adv-x="390" 
d="M196 707c92 0 147 -63 147 -139c0 -31 -9 -57 -24 -80l-111 -173h-99l77 115c-85 5 -137 62 -137 138s55 139 147 139zM196 634c-37 0 -61 -30 -61 -66s24 -66 61 -66s61 30 61 66s-24 66 -61 66z" />
    <glyph glyph-name="plussuperior" unicode="&#x207a;" horiz-adv-x="397" 
d="M163 354v84h-82v67h82v84h71v-84h82v-67h-82v-84h-71z" />
    <glyph glyph-name="minussuperior" unicode="&#x207b;" horiz-adv-x="397" 
d="M81 438v67h235v-67h-235z" />
    <glyph glyph-name="equalsuperior" unicode="&#x207c;" horiz-adv-x="397" 
d="M81 487v67h235v-67h-235zM81 388v67h235v-67h-235z" />
    <glyph glyph-name="parenleftsuperior" unicode="&#x207d;" horiz-adv-x="279" 
d="M229 666c-44 0 -71 -33 -71 -76v-251c0 -41 27 -76 71 -76v-75c-97 0 -157 68 -157 151v251c0 83 60 151 157 151v-75z" />
    <glyph glyph-name="parenrightsuperior" unicode="&#x207e;" horiz-adv-x="279" 
d="M50 741c97 0 157 -68 157 -151v-251c0 -83 -60 -151 -157 -151v75c44 0 71 35 71 76v251c0 43 -27 76 -71 76v75z" />
    <glyph glyph-name="nsuperior" unicode="&#x207f;" horiz-adv-x="393" 
d="M66 580h83v-38c16 29 45 44 87 44c34 0 59 -10 75 -30c16 -21 20 -45 20 -84v-157h-83v136c0 39 -12 64 -47 64s-52 -26 -52 -67v-133h-83v265z" />
    <glyph glyph-name="zeroinferior" unicode="&#x2080;" horiz-adv-x="399" 
d="M53 56c0 74 55 137 146 137c90 0 147 -63 147 -137v-127c0 -75 -57 -137 -147 -137c-91 0 -146 62 -146 137v127zM258 56c0 35 -23 63 -59 63c-35 0 -58 -28 -58 -63v-127c0 -35 23 -63 58 -63c36 0 59 28 59 63v127z" />
    <glyph glyph-name="oneinferior" unicode="&#x2081;" horiz-adv-x="282" 
d="M46 118c74 0 91 21 91 67h78v-385h-90v255h-79v63z" />
    <glyph glyph-name="twoinferior" unicode="&#x2082;" horiz-adv-x="377" 
d="M55 -200c0 126 42 162 102 199c45 27 80 45 80 84c0 31 -19 43 -44 43c-28 0 -49 -16 -49 -56h-88c0 71 49 123 137 123c70 0 131 -35 131 -116c0 -67 -63 -103 -100 -127c-53 -35 -68 -47 -68 -78h166v-72h-267z" />
    <glyph glyph-name="threeinferior" unicode="&#x2083;" horiz-adv-x="391" 
d="M136 -71c0 -43 24 -66 59 -66c33 0 51 24 51 51c0 32 -14 53 -57 53h-34v69h34c40 0 51 19 51 47c0 31 -17 43 -44 43c-39 0 -49 -21 -49 -56h-88c0 66 39 123 135 123c71 0 134 -37 134 -108c0 -43 -26 -74 -57 -85c35 -12 63 -44 63 -92c0 -75 -66 -116 -138 -116
c-96 0 -148 56 -148 137h88z" />
    <glyph glyph-name="fourinferior" unicode="&#x2084;" horiz-adv-x="395" 
d="M215 -93h-153v278h88v-204h65v107h88v-107h47v-74h-47v-107h-88v107z" />
    <glyph glyph-name="fiveinferior" unicode="&#x2085;" horiz-adv-x="408" 
d="M68 185h259v-69h-178v-87c15 25 49 36 78 36c85 0 126 -66 126 -133c0 -76 -55 -140 -147 -140s-147 63 -147 139h86c0 -36 22 -66 61 -66c37 0 61 30 61 67c0 35 -22 66 -61 66c-25 0 -44 -12 -56 -36h-82v223z" />
    <glyph glyph-name="sixinferior" unicode="&#x2086;" horiz-adv-x="390" 
d="M194 -207c-92 0 -147 63 -147 139c0 30 8 57 23 80l111 173h100l-77 -116c8 -1 16 -4 23 -5c71 -11 114 -65 114 -132c0 -76 -55 -139 -147 -139zM194 -134c37 0 61 30 61 66s-24 66 -61 66c-39 0 -61 -30 -61 -66s22 -66 61 -66z" />
    <glyph glyph-name="seveninferior" unicode="&#x2087;" horiz-adv-x="351" 
d="M325 185l-164 -385h-94l133 311h-151v74h276z" />
    <glyph glyph-name="eightinferior" unicode="&#x2088;" horiz-adv-x="399" 
d="M200 -208c-92 0 -145 53 -145 118c0 41 25 80 62 91c-33 13 -52 46 -52 82c0 60 48 110 135 110c85 0 134 -51 134 -110c0 -36 -19 -69 -52 -82c37 -12 62 -51 62 -91c0 -63 -52 -118 -144 -118zM200 30c31 0 50 22 50 49c0 25 -19 47 -50 47c-33 0 -51 -22 -51 -47
c0 -27 18 -49 51 -49zM200 -141c36 0 58 25 58 53c0 27 -21 53 -58 53c-39 0 -59 -25 -59 -53c0 -29 22 -53 59 -53z" />
    <glyph glyph-name="nineinferior" unicode="&#x2089;" horiz-adv-x="390" 
d="M196 192c92 0 147 -63 147 -139c0 -31 -9 -57 -24 -80l-111 -173h-99l77 115c-85 5 -137 62 -137 138s55 139 147 139zM196 119c-37 0 -61 -30 -61 -66s24 -66 61 -66s61 30 61 66s-24 66 -61 66z" />
    <glyph glyph-name="parenleftinferior" unicode="&#x208d;" horiz-adv-x="279" 
d="M229 151c-44 0 -71 -33 -71 -76v-251c0 -41 27 -76 71 -76v-75c-97 0 -157 68 -157 151v251c0 83 60 151 157 151v-75z" />
    <glyph glyph-name="parenrightinferior" unicode="&#x208e;" horiz-adv-x="279" 
d="M50 226c97 0 157 -68 157 -151v-251c0 -83 -60 -151 -157 -151v75c44 0 71 35 71 76v251c0 43 -27 76 -71 76v75z" />
    <glyph glyph-name="Euro" unicode="&#x20ac;" 
d="M554 234c0 -133 -98 -246 -247 -246c-148 0 -245 114 -245 246h-62l20 82h42v68h-62l20 82h42c0 132 97 246 245 246c141 0 233 -98 246 -219h-116c-11 65 -58 116 -130 116c-80 0 -130 -66 -130 -143h208l-20 -82h-188v-68h208l-20 -82h-188c0 -77 50 -143 130 -143
s132 66 132 143h115z" />
    <glyph glyph-name="afii61289" unicode="&#x2113;" horiz-adv-x="423" 
d="M282 -12c-60 0 -165 6 -165 178l-64 -48l-48 83l112 80v226c0 133 46 210 146 210c93 0 144 -76 144 -179c0 -123 -92 -220 -196 -300v-80c0 -73 44 -76 84 -76c32 0 58 5 73 9v-91c-19 -8 -43 -12 -86 -12zM267 631c-37 0 -56 -45 -56 -104v-171c75 67 102 117 102 186
c0 44 -11 89 -46 89z" />
    <glyph glyph-name="afii61352" unicode="&#x2116;" horiz-adv-x="1083" 
d="M476 202v498h115v-700h-126l-277 498v-498h-115v700h126zM845 309c-128 0 -207 92 -207 200c0 109 79 201 207 201s208 -92 208 -201c0 -108 -80 -200 -208 -200zM845 403c60 0 99 48 99 106s-39 106 -99 106s-98 -47 -98 -106s38 -106 98 -106zM638 193v97h415v-97h-415
z" />
    <glyph glyph-name="trademark" unicode="&#x2122;" horiz-adv-x="817" 
d="M362 700h136l82 -266l81 266h136v-407h-80v326l-102 -326h-71l-102 326v-326h-80v407zM308 700v-72h-94v-335h-81v335h-93v72h268z" />
    <glyph glyph-name="uni2126" horiz-adv-x="716" 
d="M358 609c-132 0 -198 -98 -198 -205c0 -103 46 -199 158 -223v-181h-255v103h165v18c-117 45 -183 153 -183 278c0 165 118 313 313 313s313 -148 313 -313c0 -125 -67 -233 -183 -279v-17h165v-103h-255v181c112 24 158 120 158 223c0 107 -66 205 -198 205z" />
    <glyph glyph-name="estimated" unicode="&#x212e;" horiz-adv-x="531" 
d="M151 239v-193c32 -23 71 -35 122 -35c96 0 161 53 182 116h23c-22 -76 -94 -139 -205 -139c-156 0 -233 118 -233 246c0 140 83 244 230 244c120 0 216 -90 216 -210c0 -7 0 -16 -1 -29h-334zM270 456c-46 0 -86 -11 -119 -33v-161h228v162c-31 20 -69 32 -109 32z" />
    <glyph glyph-name="arrowleft" unicode="&#x2190;" horiz-adv-x="720" 
d="M10 350l234 216l60 -65l-120 -107h526v-89h-525l119 -106l-60 -65z" />
    <glyph glyph-name="arrowup" unicode="&#x2191;" horiz-adv-x="492" 
d="M246 700l216 -234l-65 -60l-107 120v-526h-89v524l-106 -118l-65 60z" />
    <glyph glyph-name="arrowright" unicode="&#x2192;" horiz-adv-x="720" 
d="M710 350l-234 -216l-60 65l120 107h-526v89h524l-118 106l60 65z" />
    <glyph glyph-name="arrowdown" unicode="&#x2193;" horiz-adv-x="492" 
d="M246 0l-216 234l65 60l107 -120v526h89v-525l106 119l65 -60z" />
    <glyph glyph-name="uni2196" unicode="&#x2196;" horiz-adv-x="586" 
d="M30 597l318 -12l-4 -89l-160 9l372 -371l-63 -63l-371 370l9 -158l-89 -4z" />
    <glyph glyph-name="uni2197" unicode="&#x2197;" horiz-adv-x="586" 
d="M556 597l-12 -318l-89 4l10 160l-372 -372l-63 63l370 371l-158 -9l-4 89z" />
    <glyph glyph-name="uni2198" unicode="&#x2198;" horiz-adv-x="586" 
d="M556 103l-318 12l4 89l160 -9l-372 371l63 63l371 -370l-9 158l89 4z" />
    <glyph glyph-name="uni2199" unicode="&#x2199;" horiz-adv-x="586" 
d="M30 103l12 318l89 -4l-9 -160l371 372l63 -63l-370 -371l158 9l4 -89z" />
    <glyph glyph-name="partialdiff" unicode="&#x2202;" 
d="M280 445c55 0 109 -22 142 -50c-11 183 -54 222 -134 222c-75 0 -122 -62 -122 -145h-115c0 136 92 245 237 245c162 0 244 -98 244 -410c0 -237 -100 -325 -252 -325c-140 0 -232 105 -232 229s92 234 232 234zM280 345c-75 0 -125 -59 -125 -134s49 -129 125 -129
c86 0 142 41 145 214c-39 31 -77 49 -145 49z" />
    <glyph glyph-name="uni2206" horiz-adv-x="571" 
d="M162 103h247l-123 406zM568 0h-565l242 700h81z" />
    <glyph glyph-name="product" unicode="&#x220f;" horiz-adv-x="665" 
d="M662 692h-70v-926h-115v926h-289v-926h-115v926h-70v102h659v-102z" />
    <glyph glyph-name="summation" unicode="&#x2211;" 
d="M30 -234v107l357 412l-357 412v97h519v-102h-373l356 -392l-356 -422h373v-112h-519z" />
    <glyph glyph-name="minus" unicode="&#x2212;" 
d="M88 236v97h404v-97h-404z" />
    <glyph glyph-name="radical" unicode="&#x221a;" horiz-adv-x="684" 
d="M2 232h197l88 -275l274 837h121l-355 -1028h-81l-128 369h-116v97z" />
    <glyph glyph-name="infinity" unicode="&#x221e;" horiz-adv-x="833" 
d="M597 491c136 0 208 -94 208 -202s-72 -202 -208 -202c-64 0 -126 32 -181 104c-55 -72 -116 -104 -180 -104c-139 0 -208 102 -208 202s69 202 208 202c64 0 125 -32 180 -104c55 72 117 104 181 104zM597 394c-40 0 -85 -33 -124 -105c39 -73 84 -105 124 -105
c69 0 105 49 105 105s-36 105 -105 105zM236 394c-69 0 -105 -49 -105 -105s36 -105 105 -105c39 0 84 32 124 105c-40 72 -85 105 -124 105z" />
    <glyph glyph-name="integral" unicode="&#x222b;" horiz-adv-x="294" 
d="M201 -109c0 -104 -49 -135 -97 -135c-35 0 -69 4 -84 11v90c21 -5 29 -6 38 -6c23 0 35 12 35 47v761c0 104 49 135 97 135c35 0 69 -4 84 -11v-90c-21 5 -29 6 -38 6c-23 0 -35 -12 -35 -47v-761z" />
    <glyph glyph-name="approxequal" unicode="&#x2248;" 
d="M66 195c33 44 76 59 111 59c36 0 77 -15 118 -32c39 -16 80 -36 108 -36c45 0 83 28 110 55v-93c-33 -44 -76 -59 -111 -59c-39 0 -73 14 -108 33s-74 35 -122 35c-41 0 -79 -28 -106 -55v93zM66 351c33 44 76 59 111 59c36 0 77 -15 118 -32c39 -16 80 -36 108 -36
c45 0 83 28 110 55v-93c-33 -44 -76 -59 -111 -59c-39 0 -73 14 -108 33s-74 35 -122 35c-41 0 -79 -28 -106 -55v93z" />
    <glyph glyph-name="notequal" unicode="&#x2260;" 
d="M278 157l-45 -105h-90l45 105h-100v97h142l26 59h-168v97h210l45 105h90l-45 -105h104v-97h-146l-26 -59h172v-97h-214z" />
    <glyph glyph-name="lessequal" unicode="&#x2264;" 
d="M492 251l-404 140v77l404 140v-100l-243 -78l243 -79v-100zM88 0v97h404v-97h-404z" />
    <glyph glyph-name="greaterequal" unicode="&#x2265;" 
d="M88 351l243 79l-243 78v100l404 -140v-77l-404 -140v100zM88 0v97h404v-97h-404z" />
    <glyph glyph-name="lozenge" unicode="&#x25ca;" horiz-adv-x="485" 
d="M5 396l189 398h98l188 -398l-188 -396h-98zM242 115l126 281l-125 281l-126 -281z" />
    <glyph glyph-name="commaaccent" unicode="&#xf6c3;" horiz-adv-x="250" 
d="M61 69c0 36 29 65 64 65c43 0 73 -34 73 -83c0 -99 -50 -133 -134 -134v41c28 0 46 5 59 16c11 9 18 21 19 36c-3 -3 -10 -5 -17 -5c-39 0 -64 29 -64 64z" />
    <glyph glyph-name="asuperior" unicode="&#xf6e9;" horiz-adv-x="409" 
d="M343 580v-265h-84v38c-12 -25 -46 -45 -81 -45c-76 0 -129 60 -129 139s53 139 129 139c35 0 69 -20 81 -44v38h84zM196 379c39 0 63 31 63 68s-24 68 -63 68s-64 -31 -64 -68s25 -68 64 -68z" />
    <glyph glyph-name="bsuperior" unicode="&#xf6ea;" horiz-adv-x="410" 
d="M149 315h-83v385h83v-158c13 24 46 44 81 44c77 0 130 -60 130 -139s-53 -139 -130 -139c-35 0 -68 20 -81 45v-38zM213 379c39 0 63 31 63 68s-24 68 -63 68s-64 -31 -64 -68s25 -68 64 -68z" />
    <glyph glyph-name="dsuperior" unicode="&#xf6eb;" horiz-adv-x="409" 
d="M259 353c-12 -25 -46 -45 -81 -45c-76 0 -129 60 -129 139s53 139 129 139c35 0 69 -20 81 -44v158h84v-385h-84v38zM196 379c39 0 63 31 63 68s-24 68 -63 68s-64 -31 -64 -68s25 -68 64 -68z" />
    <glyph glyph-name="esuperior" unicode="&#xf6ec;" horiz-adv-x="377" 
d="M133 427c0 -32 15 -59 58 -59c31 0 43 14 50 31h81c-8 -51 -54 -91 -130 -91c-92 0 -143 62 -143 139s49 140 141 140c83 0 136 -57 136 -121c0 -10 -1 -23 -3 -39h-190zM189 528c-32 0 -56 -18 -56 -53h110c0 32 -22 53 -54 53z" />
    <glyph glyph-name="isuperior" unicode="&#xf6ed;" horiz-adv-x="235" 
d="M159 580v-265h-83v265h83zM64 668c0 29 24 53 53 53c31 0 54 -24 54 -53s-23 -53 -54 -53c-29 0 -53 24 -53 53z" />
    <glyph glyph-name="lsuperior" unicode="&#xf6ee;" horiz-adv-x="215" 
d="M66 700h83v-385h-83v385z" />
    <glyph glyph-name="msuperior" unicode="&#xf6ef;" horiz-adv-x="542" 
d="M399 315v143c0 36 -12 57 -41 57c-27 0 -45 -16 -45 -67v-133h-81v143c0 36 -11 57 -39 57c-27 0 -46 -16 -46 -68v-132h-81v265h81v-38c11 24 39 44 76 44c47 0 69 -20 80 -47c15 27 44 47 83 47c77 0 93 -52 93 -108v-163h-80z" />
    <glyph glyph-name="osuperior" unicode="&#xf6f0;" horiz-adv-x="390" 
d="M195 308c-92 0 -147 63 -147 139s55 140 147 140s147 -64 147 -140s-55 -139 -147 -139zM195 379c39 0 63 31 63 68c0 39 -24 68 -63 68s-64 -29 -64 -68c0 -37 25 -68 64 -68z" />
    <glyph glyph-name="rsuperior" unicode="&#xf6f1;" horiz-adv-x="289" 
d="M256 504c-11 3 -21 4 -30 4c-47 0 -77 -25 -77 -89v-104h-83v265h83v-43c12 25 44 47 81 47c10 0 19 -1 26 -4v-76z" />
    <glyph glyph-name="ssuperior" unicode="&#xf6f2;" horiz-adv-x="339" 
d="M205 471c46 -16 84 -26 84 -78c0 -63 -53 -85 -119 -85c-76 0 -122 35 -122 96h82c0 -29 18 -40 43 -40c20 0 35 8 35 25c0 20 -21 24 -72 40c-44 13 -81 27 -81 77c0 56 45 81 116 81c77 0 114 -38 114 -89h-82c0 23 -12 34 -35 34c-17 0 -31 -8 -31 -24
c0 -19 23 -22 68 -37z" />
    <glyph glyph-name="tsuperior" unicode="&#xf6f3;" horiz-adv-x="270" 
d="M230 315c-12 -3 -31 -4 -55 -4c-40 0 -94 5 -94 93v113h-42v63h42v78h83v-78h60v-63h-60v-94c0 -40 15 -46 36 -46c11 0 23 1 30 2v-64z" />
    <glyph glyph-name="apple" unicode="&#xf8ff;" horiz-adv-x="800" 
d="M400 717c225 0 362 -177 362 -367s-137 -367 -362 -367s-362 177 -362 367s137 367 362 367zM400 695c-51 0 -98 -10 -143 -29c-40 -18 -75 -43 -106 -76c-30 -33 -52 -70 -67 -110c-16 -42 -24 -85 -24 -130s8 -88 24 -129c15 -41 37 -78 67 -110c31 -33 66 -59 106 -76
c45 -19 92 -29 143 -29s98 10 142 29c40 17 75 43 106 76c30 32 52 69 67 110c16 41 24 84 24 129s-8 88 -24 130c-15 40 -37 77 -67 110c-31 33 -66 58 -106 76c-44 19 -91 29 -142 29zM168 228c67 -40 113 -71 188 -71c55 0 158 5 220 37c1 0 2 1 3 2
c-17 -37 -59 -74 -107 -99c-38 -21 -73 -31 -106 -31c-65 0 -129 46 -198 162zM219 259l179 268l-110 -243h178v-25h-247zM230 169c40 -59 108 -77 136 -77c67 0 151 56 161 63c-57 -11 -102 -23 -169 -23c-35 0 -99 8 -128 37zM498 500c0 24 19 43 42 43
c24 0 43 -19 43 -43c0 -23 -19 -43 -43 -43c-23 0 -42 20 -42 43zM201 500c0 24 19 43 42 43c24 0 43 -19 43 -43c0 -23 -19 -43 -43 -43c-23 0 -42 20 -42 43zM600 161c3 7 2 13 2 18c-1 6 -3 10 -4 13l-3 5c-1 0 -2 1 -3 2c-1 0 -3 1 -4 2l-14 5c-11 5 -22 10 -33 19
c-7 5 -13 11 -18 20l-4 11c-1 5 -3 9 -3 14c-3 11 -4 20 -4 31c1 7 0 14 3 19l15 -5c0 -3 -1 -6 -1 -10v-13c1 -9 1 -19 4 -27c3 -5 2 -9 5 -12c4 -8 11 -13 19 -20c8 -5 18 -9 26 -13l15 -6c2 -1 4 -2 7 -5c4 -3 6 -6 7 -9c3 -6 5 -12 6 -19c0 -8 1 -16 -2 -24zM213 331
c0 -7 1 -13 2 -20s2 -13 2 -20s-2 -13 -7 -20c-5 -6 -9 -10 -14 -13c-1 0 -3 -1 -4 -1c-7 -3 -14 -6 -21 -10c-3 -1 -6 -2 -10 -5l-6 -5c-2 -3 -4 -8 -5 -13c-1 -7 -2 -12 -2 -17h-16c0 7 1 13 2 20c3 7 4 13 9 20l9 8l11 7c7 4 16 7 24 10l1 1c3 1 6 3 9 8c3 4 4 7 4 10
c0 7 -1 11 -2 18l-3 20z" />
    <glyph glyph-name="uniFB00" unicode="&#xfb00;" horiz-adv-x="718" 
d="M346 602c-15 4 -31 7 -48 7c-34 0 -74 0 -74 -73v-70h122v-91h-122v-375h-109v375h-95v91h95v58c0 178 114 182 168 182c28 0 51 -5 63 -12v-92zM705 602c-15 4 -31 7 -48 7c-34 0 -74 0 -74 -73v-70h122v-91h-122v-375h-109v375h-95v91h95v58c0 178 114 182 168 182
c28 0 51 -5 63 -12v-92z" />
    <glyph glyph-name="uniFB03" unicode="&#xfb03;" horiz-adv-x="1017" 
d="M346 602c-15 4 -31 7 -48 7c-34 0 -74 0 -74 -73v-70h122v-91h-122v-375h-109v375h-95v91h95v58c0 178 114 182 168 182c28 0 51 -5 63 -12v-92zM705 602c-15 4 -31 7 -48 7c-34 0 -74 0 -74 -73v-70h122v-91h-122v-375h-109v375h-95v91h95v58c0 178 114 182 168 182
c28 0 51 -5 63 -12v-92zM813 466h109v-466h-109v466zM787 636c0 45 36 81 80 81c45 0 81 -36 81 -81c0 -44 -36 -80 -81 -80c-44 0 -80 36 -80 80z" />
    <glyph glyph-name="uniFB04" unicode="&#xfb04;" horiz-adv-x="969" 
d="M346 602c-15 4 -31 7 -48 7c-34 0 -74 0 -74 -73v-70h122v-91h-122v-375h-109v375h-95v91h95v58c0 178 114 182 168 182c28 0 51 -5 63 -12v-92zM705 602c-15 4 -31 7 -48 7c-34 0 -74 0 -74 -73v-70h122v-91h-122v-375h-109v375h-95v91h95v58c0 178 114 182 168 182
c28 0 51 -5 63 -12v-92zM791 700h109v-700h-109v700z" />
    <glyph glyph-name="commaturn" horiz-adv-x="250" 
d="M198 642c0 -36 -29 -65 -64 -65c-43 0 -73 34 -73 83c0 99 50 133 134 134v-41c-26 0 -45 -5 -58 -16s-17 -23 -20 -36c3 3 9 5 17 5c39 0 64 -29 64 -64z" />
    <glyph glyph-name="zero.slash" 
d="M289 -12c-148 0 -245 113 -245 245v234c0 132 97 245 245 245c149 0 247 -113 247 -245v-234c0 -132 -98 -245 -247 -245zM241 100c14 -6 30 -9 48 -9c80 0 132 66 132 142v234c0 15 -2 27 -5 40zM159 233c0 -17 3 -34 8 -51l178 414c-19 9 -37 13 -56 13
c-80 0 -130 -66 -130 -142v-234z" />
    <glyph glyph-name="zero.tlfslash" 
d="M44 467c0 132 97 245 245 245c149 0 247 -113 247 -245v-234c0 -132 -98 -245 -247 -245c-148 0 -245 113 -245 245v234zM421 467c0 15 -2 27 -5 40l-175 -407c14 -6 30 -9 48 -9c80 0 132 66 132 142v234zM159 233c0 -17 3 -34 8 -51l178 414c-19 9 -37 13 -56 13
c-80 0 -130 -66 -130 -142v-234z" />
    <glyph glyph-name="zero.tlf" 
d="M44 467c0 132 97 245 245 245c149 0 247 -113 247 -245v-234c0 -132 -98 -245 -247 -245c-148 0 -245 113 -245 245v234zM421 467c0 76 -52 142 -132 142s-130 -66 -130 -142v-234c0 -76 50 -142 130 -142s132 66 132 142v234z" />
    <glyph glyph-name="one.tlf" 
d="M95 584h47c89 0 140 36 149 116h109v-700h-119v493h-186v91z" />
    <glyph glyph-name="two.tlf" 
d="M81 0c0 223 80 283 187 353c61 37 138 76 138 160c0 68 -44 96 -101 96c-60 0 -109 -35 -109 -116h-115c0 141 108 219 225 219c121 0 215 -70 215 -210c0 -128 -143 -201 -188 -233c-101 -72 -120 -99 -120 -166h304v-103h-436z" />
    <glyph glyph-name="three.tlf" 
d="M159 234c0 -91 59 -143 134 -143c73 0 117 52 117 109c0 66 -31 116 -126 116h-47v102h48c83 0 108 42 108 102s-40 89 -99 89c-83 0 -111 -47 -111 -116h-115c0 130 90 219 218 219c120 0 222 -76 222 -192c0 -80 -39 -130 -95 -154c64 -25 112 -76 112 -165
c0 -127 -108 -213 -237 -213c-127 0 -244 90 -244 246h115z" />
    <glyph glyph-name="four.tlf" 
d="M322 210h-255v490h115v-387h140v210h115v-210h96v-103h-96v-210h-115v210z" />
    <glyph glyph-name="five.tlf" 
d="M56 700h425v-103h-322v-194c29 53 102 74 150 74c149 0 227 -112 227 -244s-98 -245 -247 -245c-148 0 -245 113 -245 245h115c0 -76 50 -142 130 -142c81 0 132 66 132 142s-51 142 -132 142c-51 0 -91 -24 -118 -77h-115v402z" />
    <glyph glyph-name="six.tlf" 
d="M289 -12c-148 0 -245 113 -245 245c0 53 17 102 44 145l201 322h132l-147 -223c3 1 8 1 15 1c149 0 247 -113 247 -245s-98 -245 -247 -245zM289 91c80 0 132 66 132 142s-52 142 -132 142s-130 -66 -130 -142s50 -142 130 -142z" />
    <glyph glyph-name="seven.tlf" 
d="M534 700l-298 -700h-122l258 597h-284v103h446z" />
    <glyph glyph-name="eight.tlf" 
d="M280 -12c-149 0 -240 98 -240 214c0 66 31 142 102 166c-63 28 -85 89 -85 145c0 108 83 199 223 199s222 -92 222 -199c0 -56 -22 -117 -85 -145c71 -24 102 -102 102 -166c0 -112 -90 -214 -239 -214zM280 406c67 0 107 49 107 102c0 52 -40 101 -107 101
c-68 0 -108 -47 -108 -101c0 -56 40 -102 108 -102zM280 91c77 0 124 52 124 111c0 57 -44 112 -124 112c-81 0 -125 -52 -125 -112s47 -111 125 -111z" />
    <glyph glyph-name="nine.tlf" 
d="M291 712c148 0 245 -113 245 -245c0 -55 -18 -102 -45 -145l-200 -322h-132l147 222h-15c-150 0 -247 113 -247 245s97 245 247 245zM291 609c-80 0 -132 -66 -132 -142s52 -142 132 -142s130 66 130 142s-50 142 -130 142z" />
    <glyph glyph-name="csuperior" horiz-adv-x="376" 
d="M243 476c-3 24 -17 40 -52 40c-41 0 -60 -32 -60 -69s19 -68 63 -68c29 0 42 12 49 35h84c-8 -60 -53 -106 -137 -106c-93 0 -142 66 -142 139c0 74 49 140 142 140c89 0 131 -55 136 -111h-83z" />
    <glyph glyph-name="fsuperior" horiz-adv-x="269" 
d="M232 638c-8 3 -17 4 -26 4c-19 0 -36 -3 -36 -34v-28h62v-63h-62v-202h-83v202h-48v63h48v23c0 96 57 103 100 103c20 0 34 -4 45 -7v-61z" />
    <glyph glyph-name="gsuperior" horiz-adv-x="407" 
d="M196 515c-39 0 -64 -31 -64 -68s25 -68 64 -68s63 31 63 68s-24 68 -63 68zM343 316c0 -92 -48 -128 -149 -128c-97 0 -139 45 -142 106h84c3 -23 21 -44 58 -44c40 0 65 18 65 61v43c-15 -25 -45 -42 -80 -42c-77 0 -130 56 -130 135s51 139 128 139c35 0 67 -16 82 -44
v38h84v-264z" />
    <glyph glyph-name="ksuperior" horiz-adv-x="364" 
d="M228 447l103 -132h-100l-82 111v-111h-83v385h83v-232l82 112h100z" />
    <glyph glyph-name="psuperior" horiz-adv-x="410" 
d="M149 542c13 24 46 44 81 44c77 0 130 -60 130 -139s-53 -139 -130 -139c-35 0 -68 20 -81 45v-158h-83v385h83v-38zM213 515c-39 0 -64 -31 -64 -68c0 -36 25 -68 64 -68s63 32 63 68c0 37 -24 68 -63 68z" />
    <glyph glyph-name="qsuperior" horiz-adv-x="410" 
d="M260 580h84v-385h-84v158c-12 -25 -46 -45 -81 -45c-76 0 -129 60 -129 139s53 139 129 139c35 0 69 -20 81 -44v38zM197 515c-39 0 -64 -31 -64 -68c0 -36 25 -68 64 -68s63 32 63 68c0 37 -24 68 -63 68z" />
    <glyph glyph-name="usuperior" horiz-adv-x="393" 
d="M327 315h-83v38c-15 -28 -46 -45 -87 -45c-35 0 -60 12 -75 31c-16 21 -20 45 -20 84v157h83v-136c0 -39 12 -65 47 -65s52 27 52 68v133h83v-265z" />
    <glyph glyph-name="vsuperior" horiz-adv-x="362" 
d="M117 580l64 -167l65 167h87l-119 -265h-67l-118 265h88z" />
    <glyph glyph-name="zsuperior" horiz-adv-x="324" 
d="M286 580l-116 -194h112v-71h-242l117 194h-110v71h239z" />
    <glyph glyph-name="plusinferior" horiz-adv-x="397" 
d="M163 -161v84h-82v67h82v84h71v-84h82v-67h-82v-84h-71z" />
    <glyph glyph-name="minusinferior" horiz-adv-x="397" 
d="M81 -77v67h235v-67h-235z" />
    <glyph glyph-name="equalinferior" horiz-adv-x="397" 
d="M81 -28v67h235v-67h-235zM81 -127v67h235v-67h-235z" />
    <glyph glyph-name="multiply.case" 
d="M394 467l77 -77l-109 -109l105 -105l-69 -68l-104 104l-109 -108l-77 77l108 108l-103 104l68 69l104 -104z" />
    <glyph glyph-name="Iacute.smcp" horiz-adv-x="287" 
d="M86 560h115v-560h-115v560zM58 583l-40 77l211 105l40 -77z" />
    <glyph glyph-name="uni0442.002" horiz-adv-x="836" 
d="M661 0v261c0 75 -26 121 -87 121c-55 0 -98 -34 -98 -145v-237h-109v262c0 75 -24 120 -85 120c-55 0 -100 -34 -100 -145v-237h-109v466h109v-65c20 43 69 77 130 77c85 0 127 -36 147 -83c23 47 76 83 143 83c140 0 168 -96 168 -183v-295h-109z" />
    <glyph glyph-name="parenleft.smcp" horiz-adv-x="375" 
d="M315 529c-64 0 -103 -51 -103 -112v-397c0 -61 39 -112 103 -112v-98c-131 0 -214 97 -214 210v397c0 113 83 210 214 210v-98z" />
    <glyph glyph-name="Ibreve.smcp" horiz-adv-x="287" 
d="M86 560h115v-560h-115v560zM64 726c12 -29 37 -48 80 -48c41 0 68 21 79 48h92c-11 -78 -87 -132 -171 -132s-158 56 -171 132h91z" />
    <glyph glyph-name="seven.003" horiz-adv-x="800" 
d="M400 -17c-225 0 -362 177 -362 367s137 367 362 367s362 -177 362 -367s-137 -367 -362 -367zM400 57c171 0 275 141 275 293s-104 293 -275 293s-275 -141 -275 -293s104 -293 275 -293zM561 542l-164 -385h-94l133 311h-151v74h276z" />
    <glyph glyph-name="uni0438.002" horiz-adv-x="569" 
d="M496 466v-466h-109v65c-29 -51 -83 -77 -152 -77c-68 0 -113 24 -140 63c-23 35 -30 74 -30 138v277h109v-241c0 -80 24 -141 101 -141c76 0 112 61 112 141v241h109z" />
    <glyph glyph-name="Dcroat.smcp" horiz-adv-x="630" 
d="M281 560c186 0 291 -136 291 -280s-105 -280 -291 -280h-195v237h-87v86h87v237h195zM290 237h-91v-138h79c113 0 179 89 179 181s-66 181 -179 181h-79v-138h91v-86z" />
    <glyph glyph-name="Scaron.smcp" horiz-adv-x="532" 
d="M175 185c0 -68 39 -105 98 -105c47 0 82 29 82 73c0 51 -44 67 -88 83c-103 37 -188 69 -188 182c0 99 90 156 189 156c117 0 188 -77 188 -177h-113c0 52 -28 86 -76 86c-41 0 -75 -20 -75 -63c0 -41 36 -62 80 -78c90 -32 195 -69 195 -178c0 -116 -87 -178 -202 -178
c-112 0 -203 71 -203 199h113zM131 727l53 66l84 -78l85 78l54 -66l-139 -121z" />
    <glyph glyph-name="Nacute.smcp" horiz-adv-x="615" 
d="M417 180v380h112v-560h-119l-211 377v-377h-113v560h120zM222 595l-40 77l211 106l40 -77z" />
    <glyph glyph-name="Q.smcp" horiz-adv-x="703" 
d="M645 280c0 -115 -65 -228 -176 -270l48 -65c-21 -13 -78 -40 -99 -51l-67 92c-184 0 -293 142 -293 294c0 153 110 294 293 294c184 0 294 -141 294 -294zM351 88c110 0 177 93 177 192s-67 192 -177 192c-109 0 -176 -93 -176 -192s67 -192 176 -192z" />
    <glyph glyph-name="Eth.smcp" horiz-adv-x="630" 
d="M281 560c184 0 291 -136 291 -280s-107 -280 -291 -280h-195v236h-91v89h91v235h195zM293 236h-94v-137h78c114 0 179 89 179 181s-65 181 -179 181h-78v-136h94v-89z" />
    <glyph glyph-name="Tbar.smcp" horiz-adv-x="457" 
d="M374 302h-89v-302h-113v302h-89v85h89v74h-132v99h377v-99h-132v-74h89v-85z" />
    <glyph glyph-name="Lcommaaccent.smcp" horiz-adv-x="414" 
d="M86 560h113v-461h165v-99h-278v560zM147 -71c0 32 25 58 56 58c39 0 64 -30 64 -73c0 -87 -45 -118 -118 -118v36c49 0 66 23 69 46l-5 -3c-4 -1 -7 -2 -10 -2c-35 0 -56 25 -56 56z" />
    <glyph glyph-name="Y.smcp" horiz-adv-x="559" 
d="M257 0h-125l108 217l-204 343h131l133 -229l110 229h125z" />
    <glyph glyph-name="Ncaron.smcp" horiz-adv-x="615" 
d="M417 180v380h112v-560h-119l-211 377v-377h-113v560h120zM170 716l53 66l84 -78l85 78l54 -66l-139 -122z" />
    <glyph glyph-name="Uogonek.smcp" horiz-adv-x="579" 
d="M370 -158c-19 -7 -46 -12 -75 -12c-65 0 -97 35 -97 78c0 31 16 54 49 81c-103 16 -168 102 -168 200v371h113v-370c0 -57 38 -105 97 -105c60 0 99 48 99 105v370h112v-371c0 -103 -70 -190 -183 -201c-16 -12 -28 -27 -28 -50s14 -43 37 -43c15 0 30 3 45 10z" />
    <glyph glyph-name="Rcaron.smcp" horiz-adv-x="567" 
d="M86 560h220c122 0 201 -92 201 -200c0 -80 -42 -149 -114 -181l111 -179h-130l-100 161h-75v-161h-113v560zM199 465v-209h97c59 0 97 48 97 104c0 57 -37 105 -96 105h-98zM132 717l53 66l85 -77l85 77l53 -66l-138 -121z" />
    <glyph glyph-name="three.denominator" horiz-adv-x="391" 
d="M136 129c0 -43 24 -66 59 -66c33 0 51 24 51 51c0 32 -14 53 -57 53h-34v69h34c40 0 51 19 51 47c0 31 -17 43 -44 43c-39 0 -49 -21 -49 -56h-88c0 66 39 123 135 123c71 0 134 -37 134 -108c0 -43 -26 -74 -57 -85c35 -12 63 -44 63 -92c0 -75 -66 -116 -138 -116
c-96 0 -148 56 -148 137h88z" />
    <glyph glyph-name="Obreve.smcp" horiz-adv-x="703" 
d="M351 -14c-183 0 -293 141 -293 294s110 294 293 294c184 0 294 -141 294 -294s-110 -294 -294 -294zM351 88c110 0 177 93 177 192s-67 192 -177 192c-109 0 -176 -93 -176 -192s67 -192 176 -192zM271 725c13 -29 37 -48 80 -48s68 21 80 48h91
c-11 -78 -86 -132 -171 -132s-157 56 -170 132h90z" />
    <glyph glyph-name="Lacute.smcp" horiz-adv-x="414" 
d="M364 99v-99h-278v560h112v-461h166zM58 595l-40 77l211 106l40 -77z" />
    <glyph glyph-name="two.plf.smcp" horiz-adv-x="527" 
d="M77 0c0 180 63 233 149 287c59 35 114 64 114 124c0 48 -31 68 -70 68c-43 0 -77 -25 -77 -85h-115c0 106 78 177 192 177c100 0 184 -53 184 -169c0 -98 -101 -154 -148 -185c-79 -53 -97 -72 -97 -121h241v-96h-373z" />
    <glyph glyph-name="C.smcp" horiz-adv-x="686" 
d="M629 191c-24 -115 -125 -205 -273 -205c-186 0 -298 138 -298 295c0 152 110 293 290 293c170 0 265 -101 281 -225h-118c-13 71 -67 124 -154 124c-118 0 -184 -92 -184 -192c0 -106 70 -194 192 -194c63 0 127 45 143 104h121z" />
    <glyph glyph-name="ampersand.smcp" horiz-adv-x="554" 
d="M303 278h204v-92h-40c0 -120 -87 -197 -204 -197c-99 0 -200 62 -200 175c0 65 40 101 91 128c-47 23 -80 56 -80 124c0 99 88 155 186 155c122 0 189 -77 189 -177h-113c0 51 -19 86 -79 86c-41 0 -71 -22 -71 -66c0 -43 18 -75 86 -75v-92c-72 0 -96 -35 -96 -86
c0 -40 33 -78 89 -78c46 0 91 38 91 103h-53v92z" />
    <glyph glyph-name="J.smcp" horiz-adv-x="510" 
d="M429 188c0 -123 -70 -202 -195 -202c-127 0 -194 90 -194 202h113c0 -60 26 -103 81 -103s83 39 83 103v372h112v-372z" />
    <glyph glyph-name="Amacron.smcp" horiz-adv-x="557" 
d="M524 0h-122l-22 69h-204l-23 -69h-120l197 560h95zM205 162h145l-72 241zM423 638h-291v86h291v-86z" />
    <glyph glyph-name="Edieresis.smcp" horiz-adv-x="501" 
d="M199 466v-142h221v-92h-221v-138h221v-94h-334v560h334v-94h-221zM287 683c0 39 31 70 70 70c40 0 71 -31 71 -70s-31 -70 -71 -70c-39 0 -70 31 -70 70zM98 683c0 39 32 70 71 70s71 -31 71 -70s-32 -70 -71 -70s-71 31 -71 70z" />
    <glyph glyph-name="four.003" horiz-adv-x="800" 
d="M400 -17c-225 0 -362 177 -362 367s137 367 362 367s362 -177 362 -367s-137 -367 -362 -367zM400 57c171 0 275 141 275 293s-104 293 -275 293s-275 -141 -275 -293s104 -293 275 -293zM405 262h-153v278h88v-204h65v107h88v-107h47v-74h-47v-107h-88v107z" />
    <glyph glyph-name="nine.denominator" horiz-adv-x="390" 
d="M196 392c92 0 147 -63 147 -139c0 -31 -9 -57 -24 -80l-111 -173h-99l77 115c-85 5 -137 62 -137 138s55 139 147 139zM196 319c-37 0 -61 -30 -61 -66s24 -66 61 -66s61 30 61 66s-24 66 -61 66z" />
    <glyph glyph-name="Aring.smcp" horiz-adv-x="557" 
d="M524 0h-122l-22 69h-204l-23 -69h-120l197 560h95zM205 162h145l-72 241zM279 789c57 0 103 -48 103 -104s-46 -103 -103 -103c-59 0 -104 47 -104 103c0 57 45 104 104 104zM279 722c-21 0 -36 -17 -36 -37c0 -19 16 -34 36 -34c19 0 35 16 35 35s-15 36 -35 36z" />
    <glyph glyph-name="Idotaccent.smcp" horiz-adv-x="287" 
d="M86 560h115v-560h-115v560zM73 690c0 39 31 71 70 71c40 0 71 -32 71 -71s-31 -70 -71 -70c-39 0 -70 31 -70 70z" />
    <glyph glyph-name="Hcircumflex.smcp" horiz-adv-x="608" 
d="M409 229h-210v-229h-113v560h113v-233h210v233h113v-560h-113v229zM304 782l151 -121l-60 -66l-91 74l-91 -73l-61 65z" />
    <glyph glyph-name="three.numerator" horiz-adv-x="391" 
d="M136 444c0 -43 24 -66 59 -66c33 0 51 24 51 51c0 32 -14 53 -57 53h-34v69h34c40 0 51 19 51 47c0 31 -17 43 -44 43c-39 0 -49 -21 -49 -56h-88c0 66 39 123 135 123c71 0 134 -37 134 -108c0 -43 -26 -74 -57 -85c35 -12 63 -44 63 -92c0 -75 -66 -116 -138 -116
c-96 0 -148 56 -148 137h88z" />
    <glyph glyph-name="uni0437.002" horiz-adv-x="460" 
d="M111 -53c3 -68 59 -100 113 -100c52 0 98 35 98 128c0 62 -22 137 -113 137h-31v76h32c59 0 93 40 93 108c0 51 -22 88 -71 88c-56 0 -75 -30 -75 -67h-106c0 91 76 153 186 153c108 0 170 -66 170 -159s-45 -143 -110 -154c76 -8 133 -90 133 -179
c0 -152 -89 -223 -213 -223c-123 0 -209 64 -212 192h106z" />
    <glyph glyph-name="Racute.smcp" horiz-adv-x="567" 
d="M86 560h220c122 0 201 -92 201 -200c0 -80 -42 -149 -114 -181l111 -179h-130l-100 161h-75v-161h-113v560zM199 465v-209h97c59 0 97 48 97 104c0 57 -37 105 -96 105h-98zM198 595l-40 77l211 106l40 -77z" />
    <glyph glyph-name="Scommaaccent.smcp" horiz-adv-x="532" 
d="M175 185c0 -68 39 -105 98 -105c47 0 82 29 82 73c0 51 -44 67 -88 83c-103 37 -188 69 -188 182c0 99 88 156 187 156c118 0 190 -77 190 -177h-113c0 52 -28 86 -76 86c-41 0 -75 -20 -75 -63c0 -41 36 -62 80 -78c90 -32 195 -69 195 -178c0 -116 -87 -178 -202 -178
c-112 0 -203 71 -203 199h113zM207 -79c0 32 25 57 56 57c39 0 65 -30 65 -73c0 -87 -45 -117 -118 -118v36c48 0 65 23 68 46c-1 -1 -3 -1 -5 -2c-4 -1 -7 -2 -10 -2c-35 0 -56 25 -56 56z" />
    <glyph glyph-name="Icircumflex.smcp" horiz-adv-x="287" 
d="M86 560h115v-560h-115v560zM143 782l152 -122l-59 -66l-92 74l-91 -73l-60 65z" />
    <glyph glyph-name="A.smcp" horiz-adv-x="557" 
d="M524 0h-122l-22 69h-204l-23 -69h-120l197 560h95zM205 162h145l-72 241z" />
    <glyph glyph-name="E.smcp" horiz-adv-x="501" 
d="M199 466v-142h221v-92h-221v-138h221v-94h-334v560h334v-94h-221z" />
    <glyph glyph-name="AEacute.smcp" horiz-adv-x="782" 
d="M477 466v-142h220v-92h-220v-138h220v-94h-333v70h-179l-31 -70h-123l270 560h396v-94h-220zM364 163v294l-136 -294h136zM355 595l-40 77l211 106l40 -77z" />
    <glyph glyph-name="Adieresis.001.smcp" horiz-adv-x="557" 
d="M256 592h-73l70 104h72zM361 592h-73l70 104h72zM524 0h-122l-22 69h-204l-23 -69h-120l197 560h95zM205 162h145l-72 241z" />
    <glyph glyph-name="Abreve.smcp" horiz-adv-x="557" 
d="M524 0h-122l-22 69h-204l-23 -69h-120l197 560h95zM205 162h145l-72 241zM198 726c13 -29 37 -48 80 -48c41 0 68 21 79 48h92c-11 -78 -87 -132 -171 -132s-158 56 -171 132h91z" />
    <glyph glyph-name="Udieresis.smcp" horiz-adv-x="579" 
d="M79 560h113v-370c0 -57 38 -105 97 -105c60 0 99 48 99 105v370h112v-371c0 -112 -80 -203 -211 -203c-128 0 -210 91 -210 203v371zM312 683c0 39 31 70 70 70c40 0 71 -31 71 -70s-31 -70 -71 -70c-39 0 -70 31 -70 70zM123 683c0 39 32 70 71 70s71 -31 71 -70
s-32 -70 -71 -70s-71 31 -71 70z" />
    <glyph glyph-name="eight.003" horiz-adv-x="800" 
d="M400 -17c-225 0 -362 177 -362 367s137 367 362 367s362 -177 362 -367s-137 -367 -362 -367zM400 57c171 0 275 141 275 293s-104 293 -275 293s-275 -141 -275 -293s104 -293 275 -293zM400 150c-92 0 -145 53 -145 118c0 41 25 80 62 91c-33 13 -52 46 -52 82
c0 60 48 110 135 110c85 0 134 -51 134 -110c0 -36 -19 -69 -52 -82c37 -12 62 -51 62 -91c0 -63 -52 -118 -144 -118zM400 388c31 0 50 22 50 49c0 25 -19 47 -50 47c-33 0 -51 -22 -51 -47c0 -27 18 -49 51 -49zM400 217c36 0 58 25 58 53c0 27 -21 53 -58 53
c-39 0 -59 -25 -59 -53c0 -29 22 -53 59 -53z" />
    <glyph glyph-name="six.numerator" horiz-adv-x="390" 
d="M194 308c-92 0 -147 63 -147 139c0 30 8 57 23 80l111 173h100l-77 -116c8 -1 16 -4 23 -5c71 -11 114 -65 114 -132c0 -76 -55 -139 -147 -139zM194 381c37 0 61 30 61 66s-24 66 -61 66c-39 0 -61 -30 -61 -66s22 -66 61 -66z" />
    <glyph glyph-name="Cacute.smcp" horiz-adv-x="686" 
d="M629 191c-24 -115 -125 -205 -273 -205c-186 0 -298 138 -298 295c0 152 110 293 290 293c170 0 265 -101 281 -225h-118c-13 71 -67 124 -154 124c-118 0 -184 -92 -184 -192c0 -106 70 -194 192 -194c63 0 127 45 143 104h121zM257 595l-40 77l212 106l40 -77z" />
    <glyph glyph-name="minus.numerator" horiz-adv-x="397" 
d="M81 438v67h235v-67h-235z" />
    <glyph glyph-name="one.003" horiz-adv-x="800" 
d="M286 476c74 0 91 21 91 67h78v-385h-90v255h-79v63zM400 -17c-225 0 -362 177 -362 367s137 367 362 367s362 -177 362 -367s-137 -367 -362 -367zM400 57c171 0 275 141 275 293s-104 293 -275 293s-275 -141 -275 -293s104 -293 275 -293z" />
    <glyph glyph-name="Uacute.smcp" horiz-adv-x="579" 
d="M79 560h113v-370c0 -57 38 -105 97 -105c60 0 99 48 99 105v370h112v-371c0 -112 -80 -203 -211 -203c-128 0 -210 91 -210 203v371zM188 595l-40 77l211 106l40 -77z" />
    <glyph glyph-name="Aacute.smcp" horiz-adv-x="557" 
d="M524 0h-122l-22 69h-204l-23 -69h-120l197 560h95zM205 162h145l-72 241zM193 583l-40 77l212 105l40 -77z" />
    <glyph glyph-name="Imacron.smcp" horiz-adv-x="287" 
d="M85 560h116v-560h-116v560zM289 638h-291v86h291v-86z" />
    <glyph glyph-name="equal.denominator" horiz-adv-x="397" 
d="M81 172v67h235v-67h-235zM81 73v67h235v-67h-235z" />
    <glyph glyph-name="F.smcp" horiz-adv-x="496" 
d="M199 463v-163h221v-96h-221v-204h-113v560h334v-97h-221z" />
    <glyph glyph-name="one.numerator" horiz-adv-x="282" 
d="M46 633c74 0 91 21 91 67h78v-385h-90v255h-79v63z" />
    <glyph glyph-name="parenleft.denominator" horiz-adv-x="279" 
d="M229 351c-44 0 -71 -33 -71 -76v-251c0 -41 27 -76 71 -76v-75c-97 0 -157 68 -157 151v251c0 83 60 151 157 151v-75z" />
    <glyph glyph-name="exclamdown.smcp" horiz-adv-x="319" 
d="M104 368h115v-370h-115v370zM87 494c0 40 33 74 74 74s74 -34 74 -74s-33 -74 -74 -74s-74 34 -74 74z" />
    <glyph glyph-name="brokenbar.smcp" horiz-adv-x="350" 
d="M86 285v342h107v-342h-107zM193 188v-344h-107v344h107z" />
    <glyph glyph-name="D.smcp" horiz-adv-x="630" 
d="M281 560c185 0 291 -136 291 -280s-105 -280 -291 -280h-195v560h195zM199 461v-362h78c114 0 179 89 179 181s-65 181 -179 181h-78z" />
    <glyph glyph-name="Gdotaccent.smcp" horiz-adv-x="729" 
d="M404 289h280v-90h-60c-24 -126 -116 -213 -275 -213c-186 0 -291 138 -291 294c0 152 111 294 291 294c139 0 241 -86 249 -189h-118c-8 48 -59 90 -131 90c-111 0 -176 -95 -176 -196c0 -104 61 -196 187 -196c86 0 136 55 147 116h-103v90zM279 690c0 39 31 71 70 71
c40 0 71 -32 71 -71s-31 -70 -71 -70c-39 0 -70 31 -70 70z" />
    <glyph glyph-name="three.plf.smcp" horiz-adv-x="552" 
d="M181 188c0 -67 40 -104 93 -104c52 0 82 37 82 80c0 48 -22 83 -90 83h-45v93h46c61 0 79 30 79 74s-29 65 -70 65c-60 0 -78 -34 -78 -85h-115c0 98 64 177 188 177c100 0 189 -55 189 -155c0 -64 -35 -107 -80 -124c51 -19 91 -62 91 -134c0 -105 -92 -169 -197 -169
c-125 0 -208 77 -208 199h115z" />
    <glyph glyph-name="five.smcp" horiz-adv-x="561" 
d="M84 560h364v-94h-259v-136c24 38 76 54 117 54c122 0 182 -93 182 -194c0 -109 -80 -201 -208 -201s-207 92 -207 200h113c0 -56 35 -102 94 -102c60 0 95 47 95 103s-36 102 -95 102c-39 0 -68 -18 -86 -55h-110v323z" />
    <glyph glyph-name="Edieresis.001" horiz-adv-x="545" 
d="M257 740h-83l87 130h83zM381 740h-83l87 130h83zM188 597v-198h289v-103h-289v-193h289v-103h-404v700h404v-103h-289z" />
    <glyph glyph-name="Aringacute.smcp" horiz-adv-x="557" 
d="M402 0l-22 69h-204l-23 -69h-120l197 559l-8 16c-5 11 -7 20 -7 29c0 35 27 61 62 61c33 0 61 -28 61 -61c0 -9 -4 -19 -7 -28l-6 -16l199 -560h-122zM278 403l-73 -241h145zM184 637l-26 48l194 99l25 -47zM277 626c-12 0 -21 -10 -21 -22c0 -11 9 -20 21 -20
c11 0 20 10 20 21s-8 21 -20 21z" />
    <glyph glyph-name="OE.smcp" horiz-adv-x="943" 
d="M642 466v-142h220v-92h-220v-138h220v-94h-333v64c-29 -42 -77 -79 -178 -79c-183 0 -293 141 -293 294c0 152 110 294 293 294c82 0 154 -38 178 -70v57h333v-94h-220zM351 86c110 0 177 93 177 193c0 99 -67 192 -177 192c-109 0 -176 -93 -176 -192
c0 -100 67 -193 176 -193z" />
    <glyph glyph-name="Gcircumflex.smcp" horiz-adv-x="729" 
d="M404 289h280v-90h-60c-24 -126 -116 -213 -275 -213c-186 0 -291 138 -291 294c0 152 111 294 291 294c139 0 241 -86 249 -189h-118c-8 48 -59 90 -131 90c-111 0 -176 -95 -176 -196c0 -104 61 -196 187 -196c86 0 136 55 147 116h-103v90zM349 784l152 -121l-60 -66
l-92 74l-91 -73l-60 65z" />
    <glyph glyph-name="equal.numerator" horiz-adv-x="397" 
d="M81 487v67h235v-67h-235zM81 388v67h235v-67h-235z" />
    <glyph glyph-name="Egrave.smcp" horiz-adv-x="501" 
d="M199 466v-142h221v-92h-221v-138h221v-94h-334v560h334v-94h-221zM139 689l40 77l211 -105l-40 -78z" />
    <glyph glyph-name="three.003" horiz-adv-x="800" 
d="M400 -17c-225 0 -362 177 -362 367s137 367 362 367s362 -177 362 -367s-137 -367 -362 -367zM400 57c171 0 275 141 275 293s-104 293 -275 293s-275 -141 -275 -293s104 -293 275 -293zM341 287c0 -43 24 -66 59 -66c33 0 51 24 51 51c0 32 -14 53 -57 53h-34v69h34
c40 0 51 19 51 47c0 31 -17 43 -44 43c-39 0 -49 -21 -49 -56h-88c0 66 39 123 135 123c71 0 134 -37 134 -108c0 -43 -26 -74 -57 -85c35 -12 63 -44 63 -92c0 -75 -66 -116 -138 -116c-96 0 -148 56 -148 137h88z" />
    <glyph glyph-name="Edotaccent.smcp" horiz-adv-x="501" 
d="M199 466v-142h221v-92h-221v-138h221v-94h-334v560h334v-94h-221zM180 690c0 39 31 71 70 71c40 0 71 -32 71 -71s-31 -70 -71 -70c-39 0 -70 31 -70 70z" />
    <glyph glyph-name="R.smcp" horiz-adv-x="567" 
d="M86 560h220c122 0 201 -92 201 -200c0 -80 -42 -149 -114 -181l111 -179h-130l-100 161h-75v-161h-113v560zM296 256c59 0 97 48 97 104c0 57 -37 105 -96 105h-98v-209h97z" />
    <glyph glyph-name="P.smcp" horiz-adv-x="554" 
d="M86 560h220c122 0 201 -92 201 -200c0 -107 -79 -199 -201 -199h-107v-161h-113v560zM296 256c59 0 97 48 97 104c0 57 -37 105 -96 105h-98v-209h97z" />
    <glyph glyph-name="Ecaron.smcp" horiz-adv-x="501" 
d="M199 466v-142h221v-92h-221v-138h221v-94h-334v560h334v-94h-221zM112 716l53 66l85 -78l85 78l53 -66l-138 -122z" />
    <glyph glyph-name="Uring.smcp" horiz-adv-x="579" 
d="M79 560h113v-370c0 -57 38 -105 97 -105c60 0 99 48 99 105v370h112v-371c0 -112 -80 -203 -211 -203c-128 0 -210 91 -210 203v371zM290 789c57 0 103 -48 103 -104s-46 -103 -103 -103c-59 0 -104 47 -104 103c0 57 45 104 104 104zM290 722c-21 0 -36 -17 -36 -37
c0 -19 16 -34 36 -34c19 0 35 16 35 35s-15 36 -35 36z" />
    <glyph glyph-name="Thorn.smcp" horiz-adv-x="478" 
d="M187 462h40c129 0 200 -90 200 -186s-71 -186 -200 -186h-40v-90h-103v560h103v-98zM187 178h40c61 0 97 48 97 98s-36 98 -97 98h-40v-196z" />
    <glyph glyph-name="M.smcp" horiz-adv-x="740" 
d="M654 0h-112v347l-129 -347h-84l-132 347v-347h-111v560h122l163 -402l162 402h121v-560z" />
    <glyph glyph-name="Wcircumflex.smcp" horiz-adv-x="869" 
d="M435 373l-120 -373h-88l-196 560h119l121 -381l120 381h86l121 -381l121 381h119l-196 -560h-88zM434 782l151 -121l-59 -66l-92 74l-91 -73l-60 65z" />
    <glyph glyph-name="questiondown.smcp" horiz-adv-x="482" 
d="M312 397c0 -69 -11 -111 -66 -150c-31 -21 -73 -52 -73 -99s32 -67 75 -67c41 0 75 25 75 86h112c0 -107 -75 -177 -187 -177c-100 0 -186 57 -186 158c0 77 57 119 86 142c45 37 54 50 54 107h110zM333 498c0 -41 -33 -75 -76 -75s-76 34 -76 75s33 76 76 76
s76 -35 76 -76z" />
    <glyph glyph-name="Dcaron.smcp" horiz-adv-x="630" 
d="M281 560c185 0 291 -136 291 -280s-105 -280 -291 -280h-195v560h195zM199 461v-362h78c114 0 179 89 179 181s-65 181 -179 181h-78zM163 716l53 66l85 -78l85 78l54 -66l-139 -122z" />
    <glyph glyph-name="two.denominator" horiz-adv-x="377" 
d="M55 0c0 126 42 162 102 199c45 27 80 45 80 84c0 31 -19 43 -44 43c-28 0 -49 -16 -49 -56h-88c0 71 49 123 137 123c70 0 131 -35 131 -116c0 -67 -63 -103 -100 -127c-53 -35 -68 -47 -68 -78h166v-72h-267z" />
    <glyph glyph-name="Kcommaaccent.smcp" horiz-adv-x="568" 
d="M392 0l-193 241v-241h-113v560h113v-242l193 242h137l-228 -280l228 -280h-137zM229 -71c0 32 25 58 56 58c39 0 64 -30 64 -73c0 -87 -45 -118 -118 -118v36c49 0 66 23 69 46l-5 -3c-4 -1 -7 -2 -10 -2c-35 0 -56 25 -56 56z" />
    <glyph glyph-name="H.smcp" horiz-adv-x="608" 
d="M409 229h-210v-229h-113v560h113v-233h210v233h113v-560h-113v229z" />
    <glyph glyph-name="uni021A.smcp" horiz-adv-x="457" 
d="M172 461h-132v99h377v-99h-132v-461h-113v461zM170 -71c0 32 26 58 57 58c39 0 64 -30 64 -73c0 -87 -45 -118 -118 -118v36c48 0 66 23 69 46l-5 -3c-4 -1 -7 -2 -10 -2c-35 0 -57 25 -57 56z" />
    <glyph glyph-name="Otilde.smcp" horiz-adv-x="703" 
d="M351 -14c-183 0 -293 141 -293 294s110 294 293 294c184 0 294 -141 294 -294s-110 -294 -294 -294zM351 88c110 0 177 93 177 192s-67 192 -177 192c-109 0 -176 -93 -176 -192s67 -192 176 -192zM199 697c49 29 70 30 85 30c24 0 95 -22 117 -22c19 0 28 3 67 22
l35 -64c-43 -35 -75 -36 -90 -36c-24 0 -95 20 -117 20c-23 0 -38 -8 -58 -16z" />
    <glyph glyph-name="braceleft.smcp" horiz-adv-x="435" 
d="M347 627v-84h-34c-41 0 -49 -35 -49 -63v-174c0 -69 -56 -88 -80 -91c24 -5 80 -17 80 -98v-153c0 -28 8 -63 49 -63h34v-83h-70c-63 0 -121 40 -121 120v159c0 53 -43 71 -71 71v92c28 0 71 17 71 66v180c0 80 58 121 121 121h70z" />
    <glyph glyph-name="G.smcp" horiz-adv-x="729" 
d="M404 289h280v-90h-60c-24 -126 -116 -213 -275 -213c-186 0 -291 138 -291 294c0 152 111 294 291 294c139 0 241 -86 249 -189h-118c-8 48 -59 90 -131 90c-111 0 -176 -95 -176 -196c0 -104 61 -196 187 -196c86 0 136 55 147 116h-103v90z" />
    <glyph glyph-name="two.003" horiz-adv-x="800" 
d="M400 -17c-225 0 -362 177 -362 367s137 367 362 367s362 -177 362 -367s-137 -367 -362 -367zM266 158c0 126 42 162 102 199c45 27 80 45 80 84c0 31 -19 43 -44 43c-28 0 -49 -16 -49 -56h-88c0 71 49 123 137 123c70 0 131 -35 131 -116c0 -67 -63 -103 -100 -127
c-53 -35 -68 -47 -68 -78h166v-72h-267zM400 57c171 0 275 141 275 293s-104 293 -275 293s-275 -141 -275 -293s104 -293 275 -293z" />
    </font>
</defs>
</svg>
